<?xml version="1.0" encoding="UTF-8"?><svg id="Layer_1" xmlns="http://www.w3.org/2000/svg" xmlns:xlink="http://www.w3.org/1999/xlink" viewBox="0 0 1010.96 498.62"><defs><style>.cls-1{fill:none;}.cls-2{fill:url(#linear-gradient);}.cls-3{clip-path:url(#clippath);}.cls-4{fill:#0059b2;}.cls-5{fill:#005938;}.cls-6{fill:#00832d;}.cls-7{fill:#fff;}.cls-8{clip-path:url(#clippath-1);}.cls-9{fill:url(#linear-gradient-8);}.cls-10{fill:url(#linear-gradient-9);}.cls-11{fill:url(#linear-gradient-3);}.cls-12{fill:url(#linear-gradient-4);}.cls-13{fill:url(#linear-gradient-2);}.cls-14{fill:url(#linear-gradient-6);}.cls-15{fill:url(#linear-gradient-7);}.cls-16{fill:url(#linear-gradient-5);}.cls-17{fill:url(#linear-gradient-55);}.cls-18{fill:url(#linear-gradient-53);}.cls-19{fill:url(#linear-gradient-54);}.cls-20{fill:url(#linear-gradient-51);}.cls-21{fill:url(#linear-gradient-52);}.cls-22{fill:url(#linear-gradient-50);}.cls-23{fill:url(#linear-gradient-41);}.cls-24{fill:url(#linear-gradient-40);}.cls-25{fill:url(#linear-gradient-43);}.cls-26{fill:url(#linear-gradient-42);}.cls-27{fill:url(#linear-gradient-45);}.cls-28{fill:url(#linear-gradient-46);}.cls-29{fill:url(#linear-gradient-44);}.cls-30{fill:url(#linear-gradient-49);}.cls-31{fill:url(#linear-gradient-47);}.cls-32{fill:url(#linear-gradient-48);}.cls-33{fill:url(#linear-gradient-14);}.cls-34{fill:url(#linear-gradient-18);}.cls-35{fill:url(#linear-gradient-22);}.cls-36{fill:url(#linear-gradient-20);}.cls-37{fill:url(#linear-gradient-21);}.cls-38{fill:url(#linear-gradient-23);}.cls-39{fill:url(#linear-gradient-15);}.cls-40{fill:url(#linear-gradient-19);}.cls-41{fill:url(#linear-gradient-16);}.cls-42{fill:url(#linear-gradient-17);}.cls-43{fill:url(#linear-gradient-13);}.cls-44{fill:url(#linear-gradient-12);}.cls-45{fill:url(#linear-gradient-10);}.cls-46{fill:url(#linear-gradient-11);}.cls-47{fill:url(#linear-gradient-27);}.cls-48{fill:url(#linear-gradient-24);}.cls-49{fill:url(#linear-gradient-26);}.cls-50{fill:url(#linear-gradient-38);}.cls-51{fill:url(#linear-gradient-35);}.cls-52{fill:url(#linear-gradient-37);}.cls-53{fill:url(#linear-gradient-34);}.cls-54{fill:url(#linear-gradient-39);}.cls-55{fill:url(#linear-gradient-36);}.cls-56{fill:url(#linear-gradient-25);}.cls-57{fill:url(#linear-gradient-28);}.cls-58{fill:url(#linear-gradient-29);}.cls-59{fill:url(#linear-gradient-33);}.cls-60{fill:url(#linear-gradient-30);}.cls-61{fill:url(#linear-gradient-32);}.cls-62{fill:url(#linear-gradient-31);}</style><clipPath id="clippath"><path class="cls-1" d="M112.78,112.09h30.57l45.96,70.22V112.09h28.8v118.34h-30.18l-46.15-70.41v70.41h-28.99V112.09Zm126.03,0h78.3v25.64h-49.31v21.3h45.56v25.25h-45.56v21.3h51.48v24.85h-80.47V112.09Zm147.53-3.94h5.13l57.99,122.29h-31.16l-5.91-12.23h-46.75l-5.72,12.23h-31.16l57.59-122.29Zm16.17,89.35l-13.61-29.98h-.4l-13.81,29.98h27.81Zm67.45-59.76h-26.43v-25.64h82.45v25.64h-26.82v92.7h-29.19v-92.7Z"/></clipPath><linearGradient id="linear-gradient" x1="427.6" y1="161.96" x2="512.81" y2="76.75" gradientUnits="userSpaceOnUse"><stop offset=".12" stop-color="#1db135"/><stop offset=".18" stop-color="#19a934"/><stop offset=".49" stop-color="#0b8633"/><stop offset=".75" stop-color="#037133"/><stop offset=".92" stop-color="#006a33"/></linearGradient><linearGradient id="linear-gradient-2" x1="428.27" y1="240.22" x2="494.88" y2="173.61" xlink:href="#linear-gradient"/><linearGradient id="linear-gradient-3" x1="378.84" y1="226.43" x2="435.45" y2="169.82" xlink:href="#linear-gradient"/><linearGradient id="linear-gradient-4" x1="298.25" y1="241.71" x2="367.11" y2="172.85" xlink:href="#linear-gradient"/><linearGradient id="linear-gradient-5" x1="512.66" y1="76.6" x2="548.1" y2="41.16" xlink:href="#linear-gradient"/><linearGradient id="linear-gradient-6" x1="487.34" y1="166.07" x2="569.48" y2="83.94" xlink:href="#linear-gradient"/><linearGradient id="linear-gradient-7" x1="284.03" y1="167.95" x2="343.78" y2="108.2" xlink:href="#linear-gradient"/><linearGradient id="linear-gradient-8" x1="230.67" y1="222.34" x2="284.54" y2="168.47" xlink:href="#linear-gradient"/><linearGradient id="linear-gradient-9" x1="335.03" y1="99.45" x2="411.49" y2="22.99" xlink:href="#linear-gradient"/><linearGradient id="linear-gradient-10" x1="353.83" y1="159.34" x2="433.55" y2="79.62" xlink:href="#linear-gradient"/><linearGradient id="linear-gradient-11" x1="232.96" y1="161.38" x2="286.36" y2="107.98" xlink:href="#linear-gradient"/><linearGradient id="linear-gradient-12" x1="156.47" y1="166.8" x2="230.93" y2="92.34" xlink:href="#linear-gradient"/><linearGradient id="linear-gradient-13" x1="166.49" y1="210.94" x2="224.51" y2="152.93" xlink:href="#linear-gradient"/><linearGradient id="linear-gradient-14" x1="442.09" y1="88.37" x2="498.63" y2="31.83" xlink:href="#linear-gradient"/><linearGradient id="linear-gradient-15" x1="403.01" y1="277.2" x2="434.13" y2="246.08" xlink:href="#linear-gradient"/><linearGradient id="linear-gradient-16" x1="301.7" y1="305.09" x2="379.6" y2="227.19" xlink:href="#linear-gradient"/><linearGradient id="linear-gradient-17" x1="219.8" y1="290.64" x2="283.49" y2="226.95" xlink:href="#linear-gradient"/><linearGradient id="linear-gradient-18" x1="172.25" y1="269.69" x2="225.14" y2="216.81" xlink:href="#linear-gradient"/><linearGradient id="linear-gradient-19" x1="483.02" y1="256.96" x2="559.73" y2="180.25" xlink:href="#linear-gradient"/><linearGradient id="linear-gradient-20" x1="434.54" y1="288.18" x2="474.39" y2="248.33" xlink:href="#linear-gradient"/><linearGradient id="linear-gradient-21" x1="485.89" y1="301.45" x2="538.38" y2="248.96" xlink:href="#linear-gradient"/><linearGradient id="linear-gradient-22" x1="99.55" y1="290.57" x2="172.83" y2="217.28" xlink:href="#linear-gradient"/><linearGradient id="linear-gradient-23" x1="87.89" y1="109.07" x2="131.59" y2="65.38" xlink:href="#linear-gradient"/><linearGradient id="linear-gradient-24" x1="135.38" y1="115.79" x2="226.97" y2="24.2" xlink:href="#linear-gradient"/><linearGradient id="linear-gradient-25" x1="236.92" y1="98.33" x2="282.12" y2="53.14" xlink:href="#linear-gradient"/><linearGradient id="linear-gradient-26" x1="101.75" y1="161.51" x2="141.42" y2="121.83" xlink:href="#linear-gradient"/><linearGradient id="linear-gradient-27" x1="274.73" y1="96.35" x2="316.51" y2="54.57" xlink:href="#linear-gradient"/><linearGradient id="linear-gradient-28" x1="106.63" y1="209.59" x2="152.94" y2="163.28" xlink:href="#linear-gradient"/><clipPath id="clippath-1"><path class="cls-1" d="M472.08,265.65c18.1-11.63,35.03-12.86,52.03-8.76l-6.24,25.55c-10.85-2.22-22.08-.84-31.6,5.28-16.99,10.92-19.78,30.66-9.48,46.7,10.31,16.03,29.43,21.7,46.42,10.78,9.53-6.12,15.45-15.76,17.93-26.55l25.36,5.24c-3.1,16.13-11.48,32.06-29.11,43.39-30.16,19.38-65.99,10.77-84.26-17.65-18.27-28.42-11.22-64.58,18.95-83.97Zm88.42-37.88l27.2-4.35,11.21,70.07c2.38,14.91,10.3,18.99,19.8,17.47,10.44-1.67,16.13-7.93,13.74-22.84l-11.21-70.07,27.39-4.38,11.86,74.16c4.23,26.46-13.13,44.53-37.73,48.46-25.53,4.08-46.3-8.64-50.41-34.36l-11.87-74.17Zm136.87-11.69l46.18,10.52c23.74,5.41,35.93,23.28,31.19,44.08-4.4,19.32-16.63,27.96-33.93,28.27l20.46,47.83-33.86-7.72-18.77-47.63-9.39,41.22-27.05-6.16,25.16-110.41Zm37.86,58.96c6.07,1.39,11.55-3.95,13.02-10.39,1.47-6.44-2.02-13.24-8.09-14.62l-20.98-4.78-5.66,24.84,21.71,4.94Zm99.44-23.73l38.28,24.89c15.82,10.29,20.87,30.23,11.2,45.1-5.76,8.86-13,12.03-22.94,12.78l-.2,.32c5.28,13.34,5.08,22.66-1.3,32.47-8.54,13.13-26.8,18.37-44.84,6.64l-41.93-27.26,61.73-94.93Zm-11.07,98.38c5.38,3.5,10.92,2.6,14.21-2.47,2.99-4.59,1.97-10.65-3.41-14.15l-14.08-9.16-10.8,16.61,14.08,9.16Zm20.66-38.34c5.38,3.5,11.54,2.32,14.94-2.9,3.19-4.9,1.86-11.17-3.52-14.67l-11.08-7.2-11.42,17.56,11.08,7.2Z"/></clipPath><linearGradient id="linear-gradient-29" x1="480.13" y1="325.42" x2="592.25" y2="213.3" gradientUnits="userSpaceOnUse"><stop offset=".19" stop-color="#00d8ff"/><stop offset=".33" stop-color="#06c9ff"/><stop offset=".59" stop-color="#16a3ff"/><stop offset=".95" stop-color="#3167ff"/></linearGradient><linearGradient id="linear-gradient-30" x1="260.83" y1="336.12" x2="350.81" y2="246.14" xlink:href="#linear-gradient-29"/><linearGradient id="linear-gradient-31" x1="282.99" y1="423.29" x2="368.8" y2="337.49" xlink:href="#linear-gradient-29"/><linearGradient id="linear-gradient-32" x1="339.82" y1="235.15" x2="422.84" y2="152.12" xlink:href="#linear-gradient-29"/><linearGradient id="linear-gradient-33" x1="201.22" y1="230.82" x2="304.42" y2="127.61" xlink:href="#linear-gradient-29"/><linearGradient id="linear-gradient-34" x1="310.79" y1="524.46" x2="388.89" y2="446.35" xlink:href="#linear-gradient-29"/><linearGradient id="linear-gradient-35" x1="618.03" y1="588.44" x2="760.98" y2="445.5" xlink:href="#linear-gradient-29"/><linearGradient id="linear-gradient-36" x1="480.23" y1="554.13" x2="596.95" y2="437.41" xlink:href="#linear-gradient-29"/><linearGradient id="linear-gradient-37" x1="388.22" y1="535.28" x2="478.99" y2="444.51" xlink:href="#linear-gradient-29"/><linearGradient id="linear-gradient-38" x1="479.67" y1="445.19" x2="624.42" y2="300.45" xlink:href="#linear-gradient-29"/><linearGradient id="linear-gradient-39" x1="768.7" y1="453.22" x2="893.39" y2="328.53" xlink:href="#linear-gradient-29"/><linearGradient id="linear-gradient-40" x1="621.59" y1="462.05" x2="770.78" y2="312.86" xlink:href="#linear-gradient-29"/><linearGradient id="linear-gradient-41" x1="647.79" y1="323.82" x2="710.56" y2="261.05" xlink:href="#linear-gradient-29"/><linearGradient id="linear-gradient-42" x1="359.22" y1="327.91" x2="478.51" y2="208.62" xlink:href="#linear-gradient-29"/><linearGradient id="linear-gradient-43" x1="372.67" y1="430.14" x2="478.76" y2="324.05" xlink:href="#linear-gradient-29"/><linearGradient id="linear-gradient-44" x1="655.02" y1="276.07" x2="776.84" y2="154.25" xlink:href="#linear-gradient-29"/><linearGradient id="linear-gradient-45" x1="752.72" y1="289.7" x2="962.86" y2="79.56" xlink:href="#linear-gradient-29"/><linearGradient id="linear-gradient-46" x1="751.72" y1="302.21" x2="758.47" y2="295.45" xlink:href="#linear-gradient-29"/><linearGradient id="linear-gradient-47" x1="528.87" y1="257.28" x2="646.58" y2="139.57" xlink:href="#linear-gradient-29"/><linearGradient id="linear-gradient-48" x1="814.55" y1="356.63" x2="909.62" y2="261.55" xlink:href="#linear-gradient-29"/><linearGradient id="linear-gradient-49" x1="120.15" y1="378.4" x2="234.48" y2="264.07" xlink:href="#linear-gradient-29"/><linearGradient id="linear-gradient-50" x1="125.47" y1="456.69" x2="253.43" y2="328.72" xlink:href="#linear-gradient-29"/><linearGradient id="linear-gradient-51" x1="926.77" y1="474.4" x2="1022.06" y2="379.11" xlink:href="#linear-gradient-29"/><linearGradient id="linear-gradient-52" x1="128.88" y1="562.02" x2="275.3" y2="415.6" xlink:href="#linear-gradient-29"/><linearGradient id="linear-gradient-53" x1="907.9" y1="259.82" x2="1087.44" y2="80.28" xlink:href="#linear-gradient-29"/><linearGradient id="linear-gradient-54" x1="948.28" y1="383.42" x2="1051.44" y2="280.27" xlink:href="#linear-gradient-29"/><linearGradient id="linear-gradient-55" x1="56.49" y1="275.58" x2="207.97" y2="124.1" xlink:href="#linear-gradient-29"/></defs><g><path class="cls-7" d="M923.34,284.93c-4.88-16.86-16.06-31.23-31.49-40.46l-39.18-23.46c-15.18-9.09-34.44-5.26-45.14,8.21-9.21-18.74-27.23-33.18-51.37-39.09l-46.02-11.26c-14.3-3.51-28.69,2.4-36.71,13.74-2.21-2.91-4.86-5.5-7.92-7.61-7.6-5.25-16.98-7.27-26.07-5.61l-27.29,4.99c-6.07,1.11-11.48,3.73-15.92,7.4-5.44-1.86-11.42-2.4-17.49-1.29l-27.1,4.95c-8.12,1.48-15.4,5.8-20.61,12.12v-30.31c14.79-4.03,25.67-17.55,25.67-33.62v-24.54c0-19.24-15.6-34.84-34.84-34.84h-78.89c-9.07,0-17.3,3.49-23.5,9.17-6.52-8.07-16.42-12.94-27.08-12.94h-4.91c-13.49,0-25.77,7.79-31.52,20l-3.15,6.69c-4.88-13.36-17.66-22.91-32.7-22.91h-74.93c-4.46,0-8.72,.87-12.64,2.4-3.92-1.53-8.18-2.4-12.64-2.4h-27.56c-8.34,0-15.99,2.93-21.99,7.81-6.13-4.99-13.87-7.81-21.99-7.81h-29.25c-19.24,0-34.84,15.6-34.84,34.84v113.25c0,19.24,15.6,34.84,34.84,34.84h27.75c8.38,0,16.07-2.96,22.08-7.89,6.15,5.04,13.92,7.89,22.08,7.89h28.88c4.46,0,8.72-.87,12.64-2.4,3.92,1.53,8.18,2.4,12.64,2.4h77.01c1.73,0,3.42-.17,5.08-.41,1.68,.25,3.38,.41,5.1,.41h29.82c10.11,0,19.54-4.38,26.05-11.7h3.77c6.51,7.33,15.95,11.7,26.05,11.7h5.01c-18.82,29.74-20.1,68.2-.2,100.46,13.55,21.96,34.42,37.24,58.76,43.03,7.07,1.68,14.26,2.52,21.45,2.52,17.8,0,35.6-5.1,51.66-15.02,12.77-7.88,23.19-17.98,31.06-29.9,8.34,2.87,17.3,4.36,26.57,4.36,5.41,0,10.93-.5,16.47-1.51,13.39-2.45,25.59-7.7,35.78-15.16,.68,.21,1.34,.44,2.04,.61l26.95,6.6c4.88,1.2,9.92,1.31,14.77,.39,3.86,3.04,8.37,5.27,13.28,6.47l33.73,8.26c1.74,.43,3.49,.66,5.23,.82l40.98,24.54c11.81,7.07,24.72,10.72,37.43,10.72,4.84,0,9.65-.53,14.36-1.6,17.13-3.88,31.53-14.33,40.56-29.41,5.85-9.77,8.97-19.88,9.37-30.46,5.16-4.38,9.63-9.71,13.38-15.98,9.42-15.74,11.78-34.2,6.64-51.98Z"/><path class="cls-6" d="M839.03,418.15c-13.46,0-27.08-3.89-39.38-11.26l-40.25-24.1c-1.83-.19-3.41-.46-4.92-.83l-33.73-8.26c-4.85-1.19-9.33-3.25-13.36-6.15-4.92,.71-9.85,.47-14.69-.71l-26.95-6.6c-.15-.04-.3-.08-.46-.12-10.4,7.26-22.73,12.33-35.78,14.72-14.48,2.64-28.99,1.93-42.19-2.09-8.02,11.42-18.3,21.05-30.6,28.64-16.52,10.19-35.07,15.58-53.65,15.58-7.51,0-15.02-.88-22.33-2.62-25.32-6.02-47.02-21.9-61.11-44.72-18.87-30.58-19.92-67.81-3.17-98.69-9.87-.41-19.23-4.59-26.12-11.67h-.46c-7.25,7.46-17.25,11.7-27.7,11.7h-29.82c-1.59,0-3.27-.12-5.11-.37-1.87,.26-3.5,.37-5.08,.37h-77.01c-4.3,0-8.54-.72-12.64-2.15-4.1,1.43-8.35,2.15-12.64,2.15h-28.88c-7.9,0-15.63-2.44-22.08-6.93-6.45,4.49-14.18,6.93-22.08,6.93h-27.75c-21.3,0-38.63-17.33-38.63-38.63V119.09c0-21.3,17.33-38.63,38.63-38.63h29.25c7.85,0,15.55,2.42,21.99,6.87,6.43-4.45,14.13-6.87,21.99-6.87h27.56c4.3,0,8.54,.72,12.64,2.15,4.1-1.43,8.35-2.15,12.64-2.15h74.93c13.35,0,25.63,6.98,32.62,18,6.43-13.24,20.02-21.77,34.76-21.77h4.91c10.42,0,20.24,4.15,27.47,11.49,6.66-5,14.74-7.71,23.1-7.71h78.89c21.3,0,38.63,17.33,38.63,38.63v24.54c0,16.4-10.42,30.97-25.67,36.4v18.71c4.74-3.54,10.26-5.97,16.14-7.04l27.1-4.95c5.79-1.06,11.76-.78,17.4,.81,4.71-3.48,10.2-5.86,16-6.92l27.29-4.99c10.14-1.85,20.41,.35,28.91,6.22,2.03,1.41,3.93,3.01,5.67,4.81,9.46-10.43,23.78-14.92,37.71-11.5l46.02,11.26c22.7,5.56,40.71,18.36,51.28,36.3,12.37-11.62,31.34-13.93,46.27-5l39.18,23.46c16.25,9.73,28.03,24.88,33.18,42.66h0c5.44,18.81,2.95,38.33-7.02,54.98-3.64,6.08-7.99,11.4-12.93,15.83-.67,10.55-3.97,20.84-9.82,30.61-9.56,15.97-24.83,27.04-42.98,31.16-4.96,1.12-10.07,1.69-15.2,1.69Zm-129.67-58.65l1.36,1.07c3.51,2.76,7.49,4.71,11.83,5.77l33.73,8.26c1.36,.33,2.84,.56,4.66,.72l.87,.08,41.73,24.99c15.33,9.18,32.94,12.32,49.01,8.68,16.11-3.65,29.65-13.48,38.15-27.66,5.57-9.3,8.46-18.67,8.83-28.66l.06-1.67,1.27-1.08c4.83-4.1,9.06-9.15,12.58-15.03,8.88-14.82,11.09-32.22,6.25-48.98h0c-4.61-15.93-15.2-29.53-29.8-38.27l-39.18-23.46c-13.3-7.96-30.59-4.81-40.22,7.32l-3.73,4.7-2.64-5.38c-9.05-18.41-26.4-31.58-48.87-37.08l-46.02-11.26c-12.46-3.05-25.29,1.75-32.72,12.25l-2.99,4.22-3.13-4.12c-2.02-2.67-4.4-4.95-7.06-6.79-6.83-4.72-15.08-6.5-23.23-5l-27.29,4.99c-5.22,.95-10.12,3.23-14.18,6.59l-1.63,1.35-2.01-.68c-4.98-1.7-10.37-2.1-15.58-1.14l-27.1,4.95c-7.18,1.31-13.7,5.15-18.37,10.8l-6.72,8.14v-43.76l2.8-.76c13.47-3.67,22.87-15.99,22.87-29.96v-24.54c0-17.12-13.93-31.05-31.05-31.05h-78.89c-7.75,0-15.18,2.9-20.94,8.17l-2.97,2.72-2.53-3.13c-5.93-7.33-14.72-11.54-24.13-11.54h-4.91c-11.97,0-22.99,7-28.09,17.82l-7.02,14.91-3.12-8.54c-4.46-12.21-16.17-20.42-29.14-20.42h-74.93c-3.83,0-7.62,.72-11.26,2.14l-1.38,.54-1.38-.54c-3.64-1.42-7.43-2.14-11.26-2.14h-27.56c-7.12,0-14.08,2.47-19.6,6.96l-2.39,1.95-2.39-1.95c-5.52-4.49-12.48-6.96-19.59-6.96h-29.25c-17.12,0-31.05,13.93-31.05,31.05v113.25c0,17.12,13.93,31.05,31.05,31.05h27.75c7.16,0,14.15-2.5,19.68-7.03l2.4-1.97,2.4,1.97c5.53,4.53,12.52,7.03,19.68,7.03h28.88c3.83,0,7.62-.72,11.26-2.14l1.38-.54,1.38,.54c3.64,1.42,7.43,2.14,11.26,2.14h77.01c1.36,0,2.8-.12,4.54-.37l.55-.08,.55,.08c1.69,.25,3.17,.37,4.55,.37h29.82c8.86,0,17.33-3.8,23.22-10.43l1.13-1.27h7.17l1.13,1.27c5.89,6.63,14.35,10.43,23.21,10.43h11.9l-3.68,5.82c-18.64,29.46-18.71,66.41-.18,96.44,13.02,21.1,33.06,35.78,56.41,41.33,6.73,1.6,13.65,2.41,20.57,2.41,17.18,0,34.35-5,49.67-14.45,12.2-7.53,22.26-17.21,29.88-28.76l1.62-2.45,2.78,.96c12.72,4.38,26.91,5.3,41.12,2.7,12.59-2.3,24.42-7.31,34.22-14.49l1.54-1.13,2.36,.73c.42,.13,.84,.27,1.28,.38l26.95,6.6c4.34,1.06,8.77,1.18,13.16,.35l1.7-.32Z"/></g><g><polygon class="cls-5" points="112.78 112.09 112.78 230.44 115.55 235.24 144.09 235.24 144.09 164.73 190.66 235.24 220.9 235.24 220.9 116.83 218.12 112.11 189.33 112.11 189.33 181.9 143.49 112.11 112.78 112.09"/><polygon class="cls-5" points="238.8 112.09 238.8 230.44 241.51 235.65 322.13 235.65 322.13 210.56 319.28 205.58 270.73 205.58 270.55 189.24 316.18 189.24 316.18 163.96 313.36 159.03 270.37 159.08 270.37 142.46 320.33 142.46 320.33 117.17 317.11 112.09 238.8 112.09"/><path class="cls-5" d="M397.21,111.65l-5.75-3.5-5.14,.38-57.59,121.9,3.36,5.21h30.8l5.57-12.39,46.21,.36,6.26,12.03h36.03l-59.76-124Zm-17.37,85.98l11.28-24.49,11.12,24.49h-22.39Z"/><polygon class="cls-5" points="443.37 112.09 443.37 138.23 445.91 142.95 469.63 142.95 469.96 230.44 473.31 235.65 501.82 235.65 501.82 142.95 528.56 142.95 528.56 117.17 525.97 112.09 443.37 112.09"/><g class="cls-3"><g><polygon class="cls-2" points="434.52 80.8 434.96 169.32 492.54 171.27 508.4 72.34 434.52 80.8"/><polygon class="cls-13" points="435.34 247.29 479.38 253.32 492.54 171.27 434.96 169.32 435.34 247.29"/><polygon class="cls-11" points="361.08 166.82 394.05 241.63 435.34 247.29 434.96 169.32 361.08 166.82"/><polygon class="cls-12" points="280.16 164.08 282.97 226.42 394.05 241.63 361.08 166.82 280.16 164.08"/><polygon class="cls-16" points="552.79 67.25 552.79 45.84 512.64 45.84 508.4 72.34 552.79 67.25"/><polygon class="cls-14" points="492.54 171.27 552.79 173.31 552.79 67.25 508.4 72.34 492.54 171.27"/><polygon class="cls-15" points="361.08 166.82 328.54 92.95 277.21 98.83 280.16 164.08 361.08 166.82"/><polygon class="cls-9" points="234.1 162.53 227.11 218.78 282.97 226.42 280.16 164.08 234.1 162.53"/><polygon class="cls-10" points="434.52 80.8 434.35 45.84 307.78 45.84 328.54 92.95 434.52 80.8"/><polygon class="cls-45" points="435.21 169.35 434.78 80.84 328.79 92.98 361.34 166.85 435.21 169.35"/><polygon class="cls-46" points="280.16 164.08 277.21 98.83 241.52 102.92 234.1 162.53 280.16 164.08"/><polygon class="cls-44" points="241.52 102.92 134.75 115.16 149.33 159.66 234.1 162.53 241.52 102.92"/><polygon class="cls-43" points="149.33 159.66 165.94 210.4 227.11 218.78 234.1 162.53 149.33 159.66"/><polygon class="cls-33" points="508.4 72.34 512.64 45.84 434.35 45.84 434.52 80.8 508.4 72.34"/><polygon class="cls-39" points="394.05 241.63 415 289.19 435.55 289.19 435.34 247.29 394.05 241.63"/><polygon class="cls-41" points="282.97 226.42 285.8 289.19 415 289.19 394.05 241.63 282.97 226.42"/><polygon class="cls-42" points="227.11 218.78 218.35 289.19 285.8 289.19 282.97 226.42 227.11 218.78"/><polygon class="cls-34" points="165.94 210.4 191.75 289.19 218.35 289.19 227.11 218.78 165.94 210.4"/><polygon class="cls-40" points="492.54 171.27 479.38 253.32 552.79 263.37 552.79 173.31 492.54 171.27"/><polygon class="cls-36" points="435.34 247.29 435.55 289.19 473.63 289.19 479.38 253.32 435.34 247.29"/><polygon class="cls-37" points="473.63 289.19 552.79 289.19 552.79 263.37 479.38 253.32 473.63 289.19"/><polygon class="cls-35" points="98.17 201.12 98.17 289.19 191.75 289.19 165.94 210.4 98.17 201.12"/><polygon class="cls-38" points="112.05 45.84 98.17 45.84 98.17 119.35 134.75 115.16 112.05 45.84"/><polygon class="cls-48" points="241.52 102.92 248.61 45.84 112.05 45.84 134.75 115.16 241.52 102.92"/><polygon class="cls-56" points="277.21 98.83 274.82 45.84 248.61 45.84 241.52 102.92 277.21 98.83"/><polygon class="cls-49" points="134.75 115.16 98.17 119.35 98.17 157.93 149.33 159.66 134.75 115.16"/><polygon class="cls-47" points="328.54 92.95 307.78 45.84 274.82 45.84 277.21 98.83 328.54 92.95"/><polygon class="cls-57" points="149.33 159.66 98.17 157.93 98.17 201.12 165.94 210.4 149.33 159.66"/></g></g></g><g><path class="cls-4" d="M541.09,318.66c-2.48,10.79-8.41,20.43-17.93,26.55-12.19,7.84-25.48,7.13-35.82,.19-2.05-2-3.91-4.29-5.56-6.85-10.3-16.04-7.51-35.78,9.48-46.7,9.53-6.12,20.75-7.5,31.6-5.28l6.24-25.55-5.04-4.12c-17-4.1-33.93-2.87-52.03,8.76-30.16,19.38-37.21,55.55-18.95,83.97,4.36,6.79,9.74,12.44,15.79,16.85,19.56,17.79,48.47,20.99,73.5,4.91,17.62-11.33,26.01-27.26,29.11-43.39l-5.04-4.12-25.36-5.24Z"/><path class="cls-4" d="M653.63,217.81l-5.04-4.12-27.39,4.38,11.21,70.07c2.39,14.91-3.3,21.17-13.74,22.84-3.68,.59-7.12,.33-10.09-1.07-2.17-2.81-3.79-6.82-4.67-12.29l-11.21-70.07-5.04-4.12-27.2,4.35,11.87,74.17c2.03,12.69,8.12,22.21,16.84,28.12,9.33,9.1,23.09,12.84,38.61,10.36,24.6-3.93,41.96-22,37.73-48.46l-11.86-74.16Z"/><path class="cls-4" d="M878.64,280.8c-1.71-1.67-3.62-3.21-5.72-4.58l-38.28-24.89-61.73,94.93,5.04,4.12,41.93,27.26c18.04,11.73,36.3,6.49,44.84-6.64,6.38-9.81,6.59-19.13,1.3-32.47l.2-.32c9.94-.74,17.18-3.91,22.94-12.78,9.53-14.66,4.76-34.22-10.52-44.64Zm-40.87,66.44c-3.29,5.06-8.83,5.96-14.21,2.47l-8.66-5.63,10.42-16.02,12.09,7.86c2.58,3.43,2.65,7.81,.36,11.33Zm21.39-38.77c-3.39,5.22-9.56,6.39-14.94,2.9l-5.66-3.68,11.04-16.97,9.12,5.93c2.66,3.5,2.89,8.06,.44,11.83Z"/><path class="cls-4" d="M779.74,274.82c3.42-15.03-1.99-28.53-14.22-36.9-5.41-5.25-12.85-9.21-22.01-11.29l-46.18-10.52-25.16,110.41,5.04,4.12,27.05,6.16,8.13-35.72,14.98,38.02,5.04,4.12,33.86,7.72-20.46-47.83c17.3-.32,29.53-8.95,33.93-28.27Zm-31.54-10.15c-1.47,6.44-6.94,11.78-13.02,10.39l-16.03-3.65,5.02-22.02,20.98,4.78c.45,.1,.87,.24,1.29,.4,1.85,2.81,2.58,6.51,1.76,10.1Z"/></g><g class="cls-8"><polygon class="cls-58" points="473.89 319.17 630.89 306.91 638.5 259.55 472.92 201.32 471.59 201.7 473.89 319.17"/><polygon class="cls-60" points="342.93 238.27 238.38 267.98 260.54 335.83 359.42 328.11 342.93 238.27"/><polygon class="cls-62" points="359.42 328.11 260.54 335.83 292.06 432.36 379.37 436.84 359.42 328.11"/><polygon class="cls-61" points="471.59 201.7 471.57 200.85 326.72 149.91 342.93 238.27 471.59 201.7"/><polygon class="cls-59" points="326.72 149.91 183.36 99.5 238.38 267.98 342.93 238.27 326.72 149.91"/><polygon class="cls-53" points="292.06 432.36 327.63 541.3 399.51 546.56 379.37 436.84 292.06 432.36"/><polygon class="cls-51" points="608.11 448.57 590.11 560.52 781.73 574.54 772.47 457 608.11 448.57"/><polygon class="cls-55" points="476.28 441.81 478.44 552.34 590.11 560.52 608.11 448.57 476.28 441.81"/><polygon class="cls-52" points="379.37 436.84 399.51 546.56 478.44 552.34 476.28 441.81 379.37 436.84"/><polygon class="cls-50" points="473.89 319.17 476.28 441.81 608.11 448.57 630.89 306.91 473.89 319.17"/><polygon class="cls-54" points="760.3 302.38 772.47 457 916.77 464.4 925.25 360.39 760.3 302.38"/><polygon class="cls-24" points="630.89 306.91 608.11 448.57 772.47 457 760.3 302.38 747.33 297.82 630.89 306.91"/><polygon class="cls-23" points="638.5 259.55 630.89 306.91 747.33 297.82 638.5 259.55"/><polygon class="cls-26" points="471.59 201.7 342.93 238.27 359.42 328.11 473.89 319.17 471.59 201.7"/><polygon class="cls-25" points="359.42 328.11 379.37 436.84 476.28 441.81 473.89 319.17 359.42 328.11"/><polygon class="cls-29" points="747.33 297.82 759.87 296.85 746.23 123.65 656.24 149.23 638.5 259.55 747.33 297.82"/><polygon class="cls-27" points="931.52 283.45 949.25 65.95 746.23 123.65 759.87 296.85 931.52 283.45"/><polygon class="cls-28" points="747.33 297.82 760.3 302.38 759.87 296.85 747.33 297.82"/><polygon class="cls-31" points="656.24 149.23 472.92 201.32 638.5 259.55 656.24 149.23"/><polygon class="cls-32" points="760.3 302.38 925.25 360.39 931.52 283.45 759.87 296.85 760.3 302.38"/><polygon class="cls-30" points="238.38 267.98 90.83 309.91 90.83 349.07 260.54 335.83 238.38 267.98"/><polygon class="cls-22" points="260.54 335.83 90.83 349.07 90.83 422.04 292.06 432.36 260.54 335.83"/><polygon class="cls-20" points="916.77 464.4 1045.7 471.01 1045.7 402.75 925.25 360.39 916.77 464.4"/><polygon class="cls-21" points="292.06 432.36 90.83 422.04 90.83 523.97 327.63 541.3 292.06 432.36"/><polygon class="cls-18" points="931.52 283.45 1045.7 274.53 1045.7 38.54 949.25 65.95 931.52 283.45"/><polygon class="cls-19" points="925.25 360.39 1045.7 402.75 1045.7 274.53 931.52 283.45 925.25 360.39"/><polygon class="cls-17" points="183.36 99.5 90.83 66.96 90.83 309.91 238.38 267.98 183.36 99.5"/></g></svg>