<?xml version="1.0" encoding="UTF-8"?><svg id="Layer_1" xmlns="http://www.w3.org/2000/svg" xmlns:xlink="http://www.w3.org/1999/xlink" viewBox="0 0 1200 1200"><defs><style>.cls-1{fill:none;}.cls-2{fill:url(#linear-gradient);}.cls-3{clip-path:url(#clippath);}.cls-4{fill:#0059b2;}.cls-5{fill:#005938;}.cls-6{fill:#00832d;}.cls-7{fill:#fff;}.cls-8{fill:#ffb71b;}.cls-9{fill:#a6a8ab;}.cls-10{clip-path:url(#clippath-1);}.cls-11{fill:url(#radial-gradient-10);}.cls-12{fill:url(#radial-gradient-11);}.cls-13{fill:url(#radial-gradient-12);}.cls-14{fill:url(#radial-gradient-13);}.cls-15{fill:url(#radial-gradient-6);}.cls-16{fill:url(#radial-gradient-5);}.cls-17{fill:url(#radial-gradient-3);}.cls-18{fill:url(#radial-gradient-4);}.cls-19{fill:url(#radial-gradient-9);}.cls-20{fill:url(#radial-gradient-8);}.cls-21{fill:url(#radial-gradient-7);}.cls-22{fill:url(#radial-gradient-2);}.cls-23{fill:url(#linear-gradient-8);}.cls-24{fill:url(#linear-gradient-9);}.cls-25{fill:url(#linear-gradient-3);}.cls-26{fill:url(#linear-gradient-4);}.cls-27{fill:url(#linear-gradient-2);}.cls-28{fill:url(#linear-gradient-6);}.cls-29{fill:url(#linear-gradient-7);}.cls-30{fill:url(#linear-gradient-5);}.cls-31{fill:url(#radial-gradient);}.cls-32{fill:url(#linear-gradient-59);}.cls-33{fill:url(#linear-gradient-57);}.cls-34{fill:url(#linear-gradient-58);}.cls-35{fill:url(#linear-gradient-55);}.cls-36{fill:url(#linear-gradient-56);}.cls-37{fill:url(#linear-gradient-53);}.cls-38{fill:url(#linear-gradient-54);}.cls-39{fill:url(#linear-gradient-51);}.cls-40{fill:url(#linear-gradient-52);}.cls-41{fill:url(#linear-gradient-50);}.cls-42{fill:url(#linear-gradient-64);}.cls-43{fill:url(#linear-gradient-63);}.cls-44{fill:url(#linear-gradient-60);}.cls-45{fill:url(#linear-gradient-62);}.cls-46{fill:url(#linear-gradient-61);}.cls-47{fill:url(#linear-gradient-41);}.cls-48{fill:url(#linear-gradient-40);}.cls-49{fill:url(#linear-gradient-43);}.cls-50{fill:url(#linear-gradient-42);}.cls-51{fill:url(#linear-gradient-45);}.cls-52{fill:url(#linear-gradient-46);}.cls-53{fill:url(#linear-gradient-44);}.cls-54{fill:url(#linear-gradient-49);}.cls-55{fill:url(#linear-gradient-47);}.cls-56{fill:url(#linear-gradient-48);}.cls-57{fill:url(#linear-gradient-14);}.cls-58{fill:url(#linear-gradient-18);}.cls-59{fill:url(#linear-gradient-22);}.cls-60{fill:url(#linear-gradient-20);}.cls-61{fill:url(#linear-gradient-21);}.cls-62{fill:url(#linear-gradient-23);}.cls-63{fill:url(#linear-gradient-15);}.cls-64{fill:url(#linear-gradient-19);}.cls-65{fill:url(#linear-gradient-16);}.cls-66{fill:url(#linear-gradient-17);}.cls-67{fill:url(#linear-gradient-13);}.cls-68{fill:url(#linear-gradient-12);}.cls-69{fill:url(#linear-gradient-10);}.cls-70{fill:url(#linear-gradient-11);}.cls-71{fill:url(#linear-gradient-27);}.cls-72{fill:url(#linear-gradient-24);}.cls-73{fill:url(#linear-gradient-26);}.cls-74{fill:url(#linear-gradient-38);}.cls-75{fill:url(#linear-gradient-35);}.cls-76{fill:url(#linear-gradient-37);}.cls-77{fill:url(#linear-gradient-34);}.cls-78{fill:url(#linear-gradient-39);}.cls-79{fill:url(#linear-gradient-36);}.cls-80{fill:url(#linear-gradient-25);}.cls-81{fill:url(#linear-gradient-28);}.cls-82{fill:url(#linear-gradient-29);}.cls-83{fill:url(#linear-gradient-33);}.cls-84{fill:url(#linear-gradient-30);}.cls-85{fill:url(#linear-gradient-32);}.cls-86{fill:url(#linear-gradient-31);}</style><linearGradient id="linear-gradient" x1="795.56" y1="665.56" x2="519.22" y2="389.23" gradientTransform="translate(-167.56 357.02) rotate(-14.98)" gradientUnits="userSpaceOnUse"><stop offset="0" stop-color="#00d9ff"/><stop offset="1" stop-color="#217eff"/></linearGradient><linearGradient id="linear-gradient-2" x1="661.61" y1="325.1" x2="644.22" y2="307.71" gradientTransform="translate(-167.56 357.02) rotate(-14.98)" xlink:href="#linear-gradient"/><linearGradient id="linear-gradient-3" x1="810.22" y1="387.18" x2="792.82" y2="369.78" gradientTransform="translate(-167.56 357.02) rotate(-14.98)" xlink:href="#linear-gradient"/><linearGradient id="linear-gradient-4" x1="871.4" y1="536.14" x2="854.01" y2="518.75" gradientTransform="translate(-167.56 357.02) rotate(-14.98)" xlink:href="#linear-gradient"/><linearGradient id="linear-gradient-5" x1="809.33" y1="684.75" x2="791.93" y2="667.35" gradientTransform="translate(-167.56 357.02) rotate(-14.98)" xlink:href="#linear-gradient"/><linearGradient id="linear-gradient-6" x1="660.36" y1="745.93" x2="642.97" y2="728.54" gradientTransform="translate(-167.56 357.02) rotate(-14.98)" xlink:href="#linear-gradient"/><linearGradient id="linear-gradient-7" x1="511.76" y1="683.86" x2="494.36" y2="666.46" gradientTransform="translate(-167.56 357.02) rotate(-14.98)" xlink:href="#linear-gradient"/><linearGradient id="linear-gradient-8" x1="450.57" y1="534.89" x2="433.18" y2="517.5" gradientTransform="translate(-167.56 357.02) rotate(-14.98)" xlink:href="#linear-gradient"/><linearGradient id="linear-gradient-9" x1="512.65" y1="386.29" x2="495.25" y2="368.89" gradientTransform="translate(-167.56 357.02) rotate(-14.98)" xlink:href="#linear-gradient"/><radialGradient id="radial-gradient" cx="712.42" cy="537.84" fx="712.42" fy="537.84" r="160.64" gradientTransform="translate(-117.06 167.96) rotate(-15.88)" gradientUnits="userSpaceOnUse"><stop offset="0" stop-color="#ff8d00"/><stop offset="1" stop-color="#ff4b00"/></radialGradient><radialGradient id="radial-gradient-2" cx="648.95" cy="701.49" fx="648.95" fy="701.49" r=".55" xlink:href="#radial-gradient"/><radialGradient id="radial-gradient-3" cx="654.51" cy="453.97" fx="654.51" fy="453.97" r=".21" xlink:href="#radial-gradient"/><radialGradient id="radial-gradient-4" cx="470.8" cy="373.39" fx="470.8" fy="373.39" r="107.92" gradientTransform="translate(-5.01 135.95) rotate(.68) scale(1 .68) skewX(1.14)" gradientUnits="userSpaceOnUse"><stop offset="0" stop-color="#1db135"/><stop offset="1" stop-color="#006a33"/></radialGradient><radialGradient id="radial-gradient-5" cx="511.17" cy="347.65" fx="511.17" fy="347.65" r="104.14" xlink:href="#radial-gradient-4"/><radialGradient id="radial-gradient-6" cx="460.07" cy="310.83" fx="460.07" fy="310.83" r="104.14" gradientTransform="translate(69.63 282.8) rotate(1.19) scale(.81 .36) skewX(1.71)" xlink:href="#radial-gradient-4"/><radialGradient id="radial-gradient-7" cx="569.59" cy="358.67" fx="569.59" fy="358.67" r="97.92" xlink:href="#radial-gradient-4"/><radialGradient id="radial-gradient-8" cx="555.97" cy="357.82" fx="555.97" fy="357.82" r="107.92" xlink:href="#radial-gradient-4"/><radialGradient id="radial-gradient-9" cx="633.66" cy="422.6" fx="633.66" fy="422.6" r="107.92" xlink:href="#radial-gradient-4"/><radialGradient id="radial-gradient-10" cx="602.71" cy="352.26" fx="602.71" fy="352.26" r="104.14" xlink:href="#radial-gradient-4"/><radialGradient id="radial-gradient-11" cx="653.21" cy="497.35" fx="653.21" fy="497.35" r="104.14" gradientTransform="matrix(1, 0, 0, 1, 0, 0)" xlink:href="#radial-gradient-4"/><radialGradient id="radial-gradient-12" cx="705.46" cy="482.61" fx="705.46" fy="482.61" r="97.92" gradientTransform="matrix(1, 0, 0, 1, 0, 0)" xlink:href="#radial-gradient-4"/><radialGradient id="radial-gradient-13" cx="609.75" cy="507.52" fx="609.75" fy="507.52" r="107.92" gradientTransform="matrix(1, 0, 0, 1, 0, 0)" xlink:href="#radial-gradient-4"/><clipPath id="clippath"><path class="cls-1" d="M160.96,463.62h34.21l51.42,78.57v-78.57h32.22v132.43h-33.77l-51.64-78.79v78.79h-32.44v-132.43Zm141.02,0h87.62v28.69h-55.17v23.83h50.98v28.25h-50.98v23.84h57.6v27.81h-90.05v-132.43Zm165.08-4.41h5.74l64.89,136.84h-34.87l-6.62-13.68h-52.31l-6.4,13.68h-34.87l64.45-136.84Zm18.1,99.98l-15.23-33.55h-.44l-15.45,33.55h31.12Zm75.48-66.87h-29.58v-28.69h92.25v28.69h-30.01v103.73h-32.66v-103.73Z"/></clipPath><linearGradient id="linear-gradient-10" x1="513.24" y1="519.43" x2="608.59" y2="424.08" gradientUnits="userSpaceOnUse"><stop offset=".12" stop-color="#1db135"/><stop offset=".18" stop-color="#19a934"/><stop offset=".49" stop-color="#0b8633"/><stop offset=".75" stop-color="#037133"/><stop offset=".92" stop-color="#006a33"/></linearGradient><linearGradient id="linear-gradient-11" x1="513.99" y1="606.99" x2="588.52" y2="532.46" xlink:href="#linear-gradient-10"/><linearGradient id="linear-gradient-12" x1="458.68" y1="591.56" x2="522.03" y2="528.21" xlink:href="#linear-gradient-10"/><linearGradient id="linear-gradient-13" x1="368.51" y1="608.66" x2="445.56" y2="531.61" xlink:href="#linear-gradient-10"/><linearGradient id="linear-gradient-14" x1="608.42" y1="423.91" x2="648.08" y2="384.25" xlink:href="#linear-gradient-10"/><linearGradient id="linear-gradient-15" x1="580.09" y1="524.03" x2="672" y2="432.12" xlink:href="#linear-gradient-10"/><linearGradient id="linear-gradient-16" x1="352.58" y1="526.13" x2="419.45" y2="459.26" xlink:href="#linear-gradient-10"/><linearGradient id="linear-gradient-17" x1="292.88" y1="586.99" x2="353.16" y2="526.71" xlink:href="#linear-gradient-10"/><linearGradient id="linear-gradient-18" x1="409.66" y1="449.47" x2="495.21" y2="363.91" xlink:href="#linear-gradient-10"/><linearGradient id="linear-gradient-19" x1="430.69" y1="516.5" x2="519.9" y2="427.28" xlink:href="#linear-gradient-10"/><linearGradient id="linear-gradient-20" x1="295.44" y1="518.78" x2="355.2" y2="459.02" xlink:href="#linear-gradient-10"/><linearGradient id="linear-gradient-21" x1="209.85" y1="524.84" x2="293.17" y2="441.52" xlink:href="#linear-gradient-10"/><linearGradient id="linear-gradient-22" x1="221.06" y1="574.24" x2="285.98" y2="509.32" xlink:href="#linear-gradient-10"/><linearGradient id="linear-gradient-23" x1="529.46" y1="437.08" x2="592.73" y2="373.81" xlink:href="#linear-gradient-10"/><linearGradient id="linear-gradient-24" x1="485.73" y1="648.38" x2="520.55" y2="613.55" xlink:href="#linear-gradient-10"/><linearGradient id="linear-gradient-25" x1="372.37" y1="679.59" x2="459.54" y2="592.42" xlink:href="#linear-gradient-10"/><linearGradient id="linear-gradient-26" x1="280.72" y1="663.42" x2="351.99" y2="592.14" xlink:href="#linear-gradient-10"/><linearGradient id="linear-gradient-27" x1="227.51" y1="639.98" x2="286.69" y2="580.8" xlink:href="#linear-gradient-10"/><linearGradient id="linear-gradient-28" x1="575.26" y1="625.73" x2="661.1" y2="539.89" xlink:href="#linear-gradient-10"/><linearGradient id="linear-gradient-29" x1="521.01" y1="660.67" x2="565.6" y2="616.07" xlink:href="#linear-gradient-10"/><linearGradient id="linear-gradient-30" x1="578.47" y1="675.51" x2="637.2" y2="616.78" xlink:href="#linear-gradient-10"/><linearGradient id="linear-gradient-31" x1="146.16" y1="663.34" x2="228.16" y2="581.33" xlink:href="#linear-gradient-10"/><linearGradient id="linear-gradient-32" x1="133.11" y1="460.25" x2="182.01" y2="411.35" xlink:href="#linear-gradient-10"/><linearGradient id="linear-gradient-33" x1="186.25" y1="467.76" x2="288.74" y2="365.27" xlink:href="#linear-gradient-10"/><linearGradient id="linear-gradient-34" x1="299.88" y1="448.23" x2="350.45" y2="397.65" xlink:href="#linear-gradient-10"/><linearGradient id="linear-gradient-35" x1="148.62" y1="518.92" x2="193.02" y2="474.52" xlink:href="#linear-gradient-10"/><linearGradient id="linear-gradient-36" x1="342.18" y1="446.01" x2="388.93" y2="399.26" xlink:href="#linear-gradient-10"/><linearGradient id="linear-gradient-37" x1="154.09" y1="572.72" x2="205.91" y2="520.9" xlink:href="#linear-gradient-10"/><clipPath id="clippath-1"><path class="cls-1" d="M563.01,635.46c20.26-13.02,39.2-14.39,58.22-9.8l-6.99,28.59c-12.14-2.49-24.7-.94-35.36,5.91-19.01,12.22-22.13,34.31-10.61,52.25,11.53,17.94,32.93,24.28,51.94,12.06,10.66-6.85,17.28-17.63,20.06-29.71l28.38,5.86c-3.47,18.05-12.85,35.87-32.57,48.55-33.75,21.69-73.84,12.05-94.28-19.75-20.44-31.8-12.55-72.27,21.2-93.96Zm98.94-42.39l30.44-4.87,12.55,78.4c2.67,16.68,11.53,21.25,22.16,19.55,11.68-1.87,18.04-8.87,15.37-25.56l-12.54-78.41,30.65-4.9,13.27,82.99c4.74,29.61-14.69,49.83-42.22,54.23-28.56,4.57-51.8-9.67-56.41-38.45l-13.28-82.99Zm153.16-13.08l51.68,11.78c26.56,6.05,40.2,26.05,34.9,49.32-4.92,21.62-18.6,31.28-37.97,31.64l22.9,53.52-37.89-8.63-21-53.3-10.5,46.13-30.27-6.9,28.15-123.55Zm42.37,65.97c6.8,1.55,12.92-4.42,14.56-11.62,1.64-7.21-2.26-14.81-9.05-16.36l-23.47-5.35-6.33,27.8,24.3,5.53Zm111.28-26.56l42.84,27.85c17.71,11.51,23.35,33.82,12.53,50.47-6.45,9.92-14.55,13.47-25.67,14.3l-.23,.36c5.91,14.92,5.68,25.36-1.46,36.33-9.55,14.69-29.99,20.55-50.17,7.43l-46.91-30.5,69.07-106.23Zm-12.39,110.09c6.02,3.91,12.21,2.91,15.9-2.76,3.34-5.14,2.21-11.92-3.81-15.83l-15.76-10.25-12.08,18.59,15.76,10.25Zm23.12-42.91c6.02,3.91,12.92,2.6,16.71-3.24,3.57-5.49,2.08-12.5-3.94-16.41l-12.4-8.06-12.78,19.65,12.4,8.06Z"/></clipPath><linearGradient id="linear-gradient-38" x1="572.02" y1="702.33" x2="697.48" y2="576.87" gradientUnits="userSpaceOnUse"><stop offset=".19" stop-color="#00d8ff"/><stop offset=".33" stop-color="#06c9ff"/><stop offset=".59" stop-color="#16a3ff"/><stop offset=".95" stop-color="#3167ff"/></linearGradient><linearGradient id="linear-gradient-39" x1="326.62" y1="714.3" x2="427.31" y2="613.62" xlink:href="#linear-gradient-38"/><linearGradient id="linear-gradient-40" x1="351.43" y1="811.85" x2="447.45" y2="715.83" xlink:href="#linear-gradient-38"/><linearGradient id="linear-gradient-41" x1="415.01" y1="601.32" x2="507.92" y2="508.42" xlink:href="#linear-gradient-38"/><linearGradient id="linear-gradient-42" x1="259.92" y1="596.47" x2="375.41" y2="480.99" xlink:href="#linear-gradient-38"/><linearGradient id="linear-gradient-43" x1="382.53" y1="925.05" x2="469.93" y2="837.66" xlink:href="#linear-gradient-38"/><linearGradient id="linear-gradient-44" x1="726.33" y1="996.65" x2="886.28" y2="836.7" xlink:href="#linear-gradient-38"/><linearGradient id="linear-gradient-45" x1="572.13" y1="958.25" x2="702.74" y2="827.65" xlink:href="#linear-gradient-38"/><linearGradient id="linear-gradient-46" x1="469.18" y1="937.16" x2="570.74" y2="835.59" xlink:href="#linear-gradient-38"/><linearGradient id="linear-gradient-47" x1="571.51" y1="836.36" x2="733.48" y2="674.39" xlink:href="#linear-gradient-38"/><linearGradient id="linear-gradient-48" x1="894.93" y1="845.34" x2="1034.45" y2="705.82" xlink:href="#linear-gradient-38"/><linearGradient id="linear-gradient-49" x1="730.31" y1="855.22" x2="897.25" y2="688.28" xlink:href="#linear-gradient-38"/><linearGradient id="linear-gradient-50" x1="759.63" y1="700.54" x2="829.87" y2="630.3" xlink:href="#linear-gradient-38"/><linearGradient id="linear-gradient-51" x1="436.73" y1="705.12" x2="570.21" y2="571.64" xlink:href="#linear-gradient-38"/><linearGradient id="linear-gradient-52" x1="451.78" y1="819.51" x2="570.49" y2="700.8" xlink:href="#linear-gradient-38"/><linearGradient id="linear-gradient-53" x1="767.72" y1="647.11" x2="904.03" y2="510.8" xlink:href="#linear-gradient-38"/><linearGradient id="linear-gradient-54" x1="877.05" y1="662.37" x2="1112.19" y2="427.23" xlink:href="#linear-gradient-38"/><linearGradient id="linear-gradient-55" x1="875.92" y1="676.36" x2="883.48" y2="668.8" xlink:href="#linear-gradient-38"/><linearGradient id="linear-gradient-56" x1="626.56" y1="626.08" x2="758.28" y2="494.37" xlink:href="#linear-gradient-38"/><linearGradient id="linear-gradient-57" x1="946.23" y1="737.25" x2="1052.62" y2="630.86" xlink:href="#linear-gradient-38"/><linearGradient id="linear-gradient-58" x1="169.21" y1="761.62" x2="297.14" y2="633.69" xlink:href="#linear-gradient-38"/><linearGradient id="linear-gradient-59" x1="175.17" y1="849.22" x2="318.35" y2="706.03" xlink:href="#linear-gradient-38"/><linearGradient id="linear-gradient-60" x1="1071.81" y1="869.04" x2="1178.44" y2="762.41" xlink:href="#linear-gradient-38"/><linearGradient id="linear-gradient-61" x1="178.98" y1="967.09" x2="342.82" y2="803.24" xlink:href="#linear-gradient-38"/><linearGradient id="linear-gradient-62" x1="1050.69" y1="628.93" x2="1251.59" y2="428.03" xlink:href="#linear-gradient-38"/><linearGradient id="linear-gradient-63" x1="1095.88" y1="767.24" x2="1211.31" y2="651.81" xlink:href="#linear-gradient-38"/><linearGradient id="linear-gradient-64" x1="97.98" y1="646.56" x2="267.48" y2="477.07" xlink:href="#linear-gradient-38"/></defs><circle class="cls-8" cx="600" cy="596.12" r="362.71"/><g><path class="cls-2" d="M774.07,779.71l-17.52,4.69s-.02-.02-.03-.02l-15.75-9.1,12.06-3.23c1.99-.53,3.18-2.58,2.65-4.58-.53-1.99-2.58-3.18-4.58-2.65l-19.28,5.16-47.95-27.7,14.1-3.77c1.99-.53,3.18-2.58,2.65-4.58-.53-1.99-2.58-3.18-4.58-2.65l-21.32,5.71-55.18-31.88,107.94,16.37,11.72,15.91c.94,1.28,2.53,1.78,3.98,1.39,.44-.12,.86-.32,1.25-.6,1.66-1.23,2.02-3.56,.79-5.23l-7.29-9.9,27.24,4.13c.09-2.52,.59-5.01,1.49-7.34l-27.26-4.13,9.49-6.99c1.66-1.23,2.02-3.56,.79-5.23-1.23-1.66-3.55-2.02-5.23-.79l-15.52,11.43-111.68-16.93,68.92-18.44,15.07,8.71c.89,.52,1.91,.62,2.84,.38,.93-.25,1.75-.85,2.27-1.74,1.03-1.79,.42-4.07-1.37-5.11l-8.59-4.96,50.61-13.54,16.9,9.76c.89,.52,1.91,.62,2.84,.38s1.75-.85,2.27-1.74c1.03-1.79,.42-4.07-1.37-5.11l-10.43-6.02,15.06-4.03,17.52,10.13c.89,.52,1.91,.62,2.84,.38,.92-.25,1.75-.85,2.27-1.74,1.03-1.79,.42-4.07-1.37-5.11l-15-8.67,8.67-15c1.03-1.79,.42-4.07-1.37-5.11-1.79-1.03-4.07-.42-5.11,1.37l-9.4,16.28-16.04,4.29,6.03-10.43c1.03-1.79,.42-4.07-1.37-5.11-1.79-1.03-4.07-.42-5.11,1.37l-9.77,16.9-53.49,14.31,7.08-12.26c1.03-1.79,.42-4.07-1.37-5.11-1.79-1.03-4.07-.42-5.11,1.37l-10.82,18.73-59.67,15.97,85.73-63.15,19.52,2.96c.53,.08,1.04,.04,1.52-.09,1.39-.37,2.5-1.54,2.73-3.05,.31-2.04-1.1-3.95-3.14-4.26l-12.12-1.84,30.91-22.77,19.64,2.98c.53,.08,1.05,.04,1.53-.09,1.39-.37,2.5-1.54,2.73-3.05,.31-2.04-1.1-3.95-3.14-4.26l-17.14-2.6,2.6-17.14c.31-2.04-1.1-3.95-3.14-4.26-2.03-.31-3.95,1.09-4.26,3.14l-2.87,18.96-31.04,22.87,1.77-11.69c.31-2.04-1.1-3.95-3.14-4.26-2.03-.31-3.95,1.1-4.26,3.14l-2.89,19.07-93.04,68.54,36.85-63.78,17.83-4.77c1.99-.53,3.18-2.58,2.65-4.58-.53-1.99-2.59-3.18-4.58-2.65l-10.61,2.84,26.21-45.36,19.88-5.32c1.99-.53,3.18-2.58,2.65-4.58-.53-1.99-2.59-3.18-4.58-2.65l-12.65,3.39,8.35-14.46,18.99-5.08c1.99-.53,3.18-2.58,2.65-4.58-.53-1.99-2.58-3.18-4.58-2.65l-16.74,4.48-4.48-16.73c-.53-1.99-2.59-3.18-4.58-2.65-1.99,.53-3.18,2.59-2.65,4.58l5.01,18.71-7.71,13.34-2.84-10.61c-.53-1.99-2.58-3.18-4.58-2.65-1.99,.53-3.18,2.58-2.65,4.58l4.77,17.84-27.7,47.95-3.38-12.65c-.53-1.99-2.58-3.18-4.58-2.65-1.99,.53-3.18,2.58-2.65,4.58l5.32,19.87-31.06,53.76,15.68-103.39,16.71-12.31c1.66-1.23,2.02-3.56,.79-5.23-1.23-1.66-3.56-2.02-5.23-.79l-10.69,7.88,5.85-38.61,15.66-11.53c1.66-1.23,2.02-3.56,.79-5.23-1.22-1.66-3.56-2.01-5.23-.79l-13.95,10.28-10.28-13.95c-1.23-1.66-3.56-2.02-5.23-.79-1.66,1.23-2.02,3.56-.79,5.23l11.62,15.77-5.58,36.77-6.41-8.69c-1.23-1.66-3.56-2.02-5.23-.79-1.66,1.23-2.02,3.56-.79,5.23l10.84,14.72-17.45,115.08-18.94-70.78,9.77-16.9c1.03-1.79,.42-4.07-1.37-5.11-1.79-1.03-4.07-.42-5.11,1.37l-6.03,10.43-13.93-52.05,9.77-16.9c1.03-1.79,.42-4.07-1.37-5.11-1.79-1.03-4.07-.42-5.11,1.37l-6.03,10.43-4.35-16.26,9.77-16.9c1.03-1.79,.42-4.07-1.37-5.11-1.79-1.03-4.07-.42-5.11,1.37l-8.67,15.01-15-8.67c-1.78-1.04-4.07-.42-5.11,1.37-1.03,1.79-.42,4.07,1.37,5.11l16.9,9.77,4.35,16.26-10.42-6.03c-1.78-1.03-4.07-.43-5.11,1.37-1.03,1.79-.42,4.07,1.37,5.11l16.9,9.77,13.93,52.05-10.42-6.03c-1.78-1.03-4.07-.42-5.11,1.37-1.03,1.79-.42,4.07,1.37,5.11l16.9,9.77,16.67,62.31-63.82-86.63,3.01-19.81c.31-2.04-1.1-3.95-3.14-4.26-2.04-.29-3.95,1.1-4.26,3.14l-1.88,12.42-22.05-29.93,2.94-19.37c.31-2.04-1.1-3.95-3.14-4.26-2.05-.28-3.95,1.1-4.26,3.14l-2.6,17.14-17.14-2.6c-2.03-.31-3.95,1.1-4.26,3.14-.31,2.04,1.1,3.95,3.14,4.26l19.23,2.91s0,0,0,0l21.67,29.42-11.39-1.73c-2.02-.29-3.94,1.1-4.26,3.14-.31,2.04,1.1,3.95,3.14,4.26l18.78,2.85,68.15,92.51-60.97-35.23-5.16-19.28c-.53-1.99-2.58-3.18-4.58-2.65-1.99,.53-3.18,2.58-2.65,4.58l3.23,12.05-45.36-26.21-5.71-21.33c-.53-1.99-2.58-3.18-4.58-2.65-1.99,.53-3.18,2.58-2.65,4.58l3.77,14.1-11.1-6.41-5.05-18.86c-.53-1.99-2.58-3.18-4.58-2.65-1.99,.53-3.18,2.58-2.65,4.58l4.48,16.74-16.74,4.48c-1.99,.53-3.18,2.58-2.65,4.58,.53,1.99,2.58,3.18,4.58,2.65l18.85-5.04,7.98,4.61-9.16,2.45c-1.99,.53-3.18,2.58-2.65,4.58,.53,1.99,2.59,3.18,4.58,2.65l16.39-4.39,47.95,27.71-11.21,3c-1.99,.53-3.18,2.58-2.65,4.58,.53,1.99,2.58,3.18,4.58,2.65l18.43-4.93,58.52,33.81-110.64-16.78-11.77-15.97c-1.23-1.66-3.56-2.02-5.23-.79-1.66,1.23-2.02,3.56-.79,5.23l7.34,9.96-28.71-4.35-11.76-15.96c-1.23-1.66-3.56-2.02-5.23-.79-1.66,1.23-2.02,3.56-.79,5.23l10.28,13.95-13.95,10.28c-1.66,1.23-2.02,3.57-.79,5.23,.94,1.28,2.53,1.78,3.98,1.4,.44-.12,.86-.32,1.25-.6l15.48-11.4s.03,.01,.04,.02l28.63,4.34-9.43,6.95c-1.66,1.23-2.02,3.56-.79,5.23,.94,1.28,2.53,1.78,3.98,1.4,.44-.12,.86-.32,1.25-.6l15.45-11.38,111.45,16.9-64.49,17.26-16.9-9.77c-1.78-1.03-4.07-.43-5.11,1.37-1.03,1.79-.42,4.07,1.37,5.11l10.42,6.03-50.61,13.54-18.73-10.82c-1.79-1.03-4.07-.42-5.11,1.37-1.03,1.79-.42,4.07,1.37,5.11l12.25,7.08-12.78,3.42-17.81-10.29c-1.79-1.03-4.07-.42-5.11,1.37-1.03,1.79-.42,4.07,1.37,5.11l15,8.67-8.67,15c-1.03,1.79-.42,4.07,1.37,5.11,.89,.52,1.91,.62,2.84,.37,.93-.25,1.75-.85,2.27-1.74l9.37-16.22c.32,0,.64,.03,.97-.06l10.23-2.74-4.96,8.59c-1.03,1.79-.42,4.07,1.37,5.11,.89,.52,1.91,.62,2.84,.38,.93-.25,1.75-.85,2.27-1.74l8.71-15.07,53.5-14.31-6.02,10.42c-1.03,1.79-.42,4.07,1.37,5.11,.89,.52,1.91,.62,2.84,.38,.93-.25,1.75-.85,2.27-1.74l9.76-16.9,67.19-17.98-91.36,67.3-19.68-2.98c-2.03-.31-3.95,1.1-4.26,3.14-.31,2.04,1.1,3.95,3.14,4.26l12.29,1.86-24.73,18.22-20.71-3.14c-2.03-.31-3.94,1.09-4.26,3.14-.31,2.04,1.1,3.95,3.14,4.26l17.13,2.59-2.6,17.13c-.31,2.04,1.1,3.95,3.14,4.26,.53,.07,1.04,.04,1.53-.09,1.39-.37,2.5-1.54,2.73-3.05l2.76-18.19c.36-.12,.72-.26,1.04-.5l24.83-18.29-1.75,11.53c-.31,2.04,1.1,3.94,3.14,4.26,.53,.08,1.04,.04,1.52-.09,1.39-.37,2.5-1.54,2.73-3.05l2.87-18.91,87.79-64.67-32.24,55.8-17.84,4.77c-1.99,.53-3.18,2.59-2.65,4.58,.53,1.99,2.59,3.18,4.58,2.65l10.61-2.84-26.21,45.36-19.88,5.32c-1.99,.53-3.18,2.59-2.65,4.58,.53,1.99,2.59,3.18,4.58,2.65l12.65-3.39-5.51,9.54-20.43,5.47c-1.99,.53-3.18,2.58-2.65,4.58,.53,1.99,2.58,3.18,4.58,2.65l16.74-4.48,4.48,16.74c.53,1.99,2.58,3.18,4.58,2.64s3.18-2.58,2.65-4.58l-4.63-17.32s.07-.07,.1-.11l5.83-10.09,2.84,10.61c.53,1.99,2.58,3.18,4.58,2.64,1.99-.53,3.18-2.58,2.65-4.58l-4.77-17.84,27.7-47.95,3.38,12.65c.53,1.99,2.58,3.18,4.58,2.64s3.18-2.58,2.65-4.58l-5.32-19.88,34.64-59.95-17.29,114.03-15.88,11.7c-1.66,1.23-2.02,3.56-.79,5.23,1.23,1.66,3.56,2.02,5.23,.79l9.86-7.27-4.35,28.69-17.2,12.66c-1.66,1.23-2.02,3.56-.79,5.23,1.23,1.66,3.56,2.02,5.23,.79l13.95-10.28,10.28,13.95c.94,1.28,2.53,1.78,3.98,1.4,.44-.12,.86-.32,1.25-.6,1.66-1.23,2.02-3.56,.79-5.23l-10.5-14.25s.02-.06,.03-.09l4.68-30.86,7.02,9.52c.94,1.28,2.53,1.78,3.98,1.4,.44-.12,.86-.32,1.25-.6,1.66-1.23,2.02-3.56,.79-5.23l-11.45-15.55,16.39-108.1,16.76,62.63-8.7,15.07c-1.03,1.79-.42,4.07,1.37,5.11,.89,.52,1.91,.62,2.84,.37,.93-.25,1.75-.85,2.27-1.74l4.96-8.59,13.54,50.61-9.76,16.9c-1.03,1.79-.42,4.07,1.37,5.11s4.07,.42,5.11-1.37l6.02-10.42,3.05,11.38-9.76,16.9c-1.03,1.79-.42,4.07,1.37,5.11,.89,.52,1.91,.62,2.84,.37,.93-.25,1.75-.85,2.27-1.74l8.67-15.01,15.01,8.67c1.79,1.03,4.07,.42,5.11-1.37s.42-4.07-1.37-5.11l-16.9-9.77-3.05-11.38,10.43,6.02c.89,.52,1.91,.62,2.84,.38s1.75-.85,2.27-1.74c1.03-1.79,.42-4.07-1.37-5.11l-16.9-9.76-14.31-53.5,12.26,7.08c1.79,1.03,4.07,.42,5.11-1.37,1.03-1.79,.42-4.07-1.37-5.11l-18.73-10.82-17.27-64.55,66.54,90.33-3.01,19.87c-.31,2.04,1.1,3.95,3.14,4.26,.53,.08,1.04,.04,1.52-.09,1.39-.37,2.5-1.54,2.73-3.05l1.89-12.47,19.81,26.9-2.92,19.22c-.31,2.04,1.1,3.95,3.14,4.26,.53,.07,1.04,.04,1.53-.09,1.39-.37,2.5-1.54,2.73-3.05l2.6-17.13,17.14,2.6c2.04,.32,3.95-1.09,4.26-3.14,.31-2.04-1.1-3.95-3.14-4.26l-19.37-2.93-19.27-26.15,11.33,1.72c2.06,.3,3.95-1.09,4.26-3.14,.31-2.04-1.1-3.95-3.14-4.26l-18.73-2.84-65.37-88.73,58.61,33.86,4.39,16.39c.53,1.99,2.58,3.18,4.58,2.65,1.99-.53,3.18-2.58,2.65-4.58l-2.45-9.17,45.36,26.21,4.93,18.43c.53,1.99,2.58,3.18,4.58,2.65s3.18-2.58,2.65-4.58l-3-11.21,13.55,7.83,5.41,20.2c.53,1.99,2.58,3.18,4.58,2.65,1.99-.53,3.18-2.59,2.65-4.58l-4.48-16.74,16.74-4.48c1.99-.53,3.18-2.58,2.65-4.58-.53-1.99-2.58-3.18-4.58-2.65Z"/><path class="cls-27" d="M548.13,505.79c6.56-1.75,10.46-8.52,8.71-15.07-1.75-6.55-8.51-10.46-15.07-8.7-6.55,1.75-10.46,8.51-8.71,15.07,1.75,6.55,8.51,10.46,15.07,8.71Zm-4.43-16.55c2.57-.69,5.23,.84,5.91,3.41,.69,2.57-.85,5.22-3.42,5.91s-5.22-.85-5.91-3.41c-.69-2.57,.85-5.22,3.41-5.91Z"/><path class="cls-25" d="M707.73,527.33c3.04-.81,5.78-2.79,7.48-5.72,3.39-5.87,1.37-13.42-4.5-16.81-5.88-3.4-13.41-1.38-16.81,4.5-3.39,5.87-1.37,13.42,4.5,16.81,2.94,1.7,6.29,2.04,9.34,1.23Zm-7.36-14.3c.66-1.15,1.74-1.93,2.93-2.25,1.19-.32,2.51-.18,3.66,.48,2.3,1.33,3.09,4.29,1.76,6.59-1.33,2.3-4.29,3.09-6.59,1.76-2.3-1.33-3.09-4.29-1.76-6.59Z"/><path class="cls-26" d="M798.98,631.66c-6.55,1.75-10.46,8.51-8.71,15.07s8.51,10.46,15.07,8.71c6.55-1.75,10.46-8.51,8.71-15.07-1.75-6.55-8.51-10.46-15.07-8.71Zm4.43,16.55c-2.57,.69-5.22-.85-5.91-3.41-.69-2.57,.85-5.22,3.41-5.91,2.57-.69,5.22,.85,5.91,3.41,.69,2.57-.85,5.22-3.41,5.91Z"/><path class="cls-30" d="M769.96,796.98c-3.39,5.87-1.37,13.42,4.5,16.81,2.94,1.7,6.29,2.04,9.34,1.23,3.04-.81,5.78-2.79,7.48-5.72,3.39-5.87,1.37-13.42-4.5-16.81-5.88-3.4-13.41-1.38-16.81,4.5Zm14.83,8.57c-1.33,2.3-4.29,3.09-6.59,1.76-2.3-1.33-3.09-4.29-1.76-6.59,.66-1.15,1.74-1.93,2.93-2.25s2.51-.18,3.66,.48c2.3,1.33,3.09,4.29,1.76,6.59Z"/><path class="cls-28" d="M649.34,888.87c-6.55,1.75-10.46,8.51-8.71,15.07,1.75,6.55,8.51,10.46,15.07,8.71,6.55-1.75,10.46-8.51,8.71-15.07-1.75-6.55-8.51-10.46-15.07-8.71Zm4.43,16.55c-2.57,.69-5.22-.85-5.91-3.41s.85-5.22,3.41-5.91,5.22,.85,5.91,3.41c.69,2.57-.85,5.22-3.41,5.91Z"/><path class="cls-29" d="M482.27,873.04c-3.39,5.87-1.37,13.42,4.5,16.81,2.94,1.7,6.29,2.04,9.34,1.23,3.04-.81,5.78-2.79,7.48-5.72,3.39-5.87,1.37-13.42-4.5-16.81s-13.41-1.38-16.81,4.5Zm14.83,8.57c-1.33,2.3-4.29,3.09-6.59,1.76-2.3-1.33-3.09-4.29-1.76-6.59,.66-1.15,1.74-1.93,2.93-2.25s2.51-.18,3.66,.48c2.3,1.33,3.09,4.29,1.76,6.59Z"/><path class="cls-23" d="M392.13,739.23c-6.55,1.75-10.46,8.51-8.71,15.07,1.75,6.55,8.51,10.46,15.07,8.71,6.56-1.75,10.46-8.52,8.71-15.07-1.75-6.55-8.51-10.46-15.07-8.7Zm4.43,16.55c-2.57,.69-5.22-.85-5.91-3.41-.69-2.57,.85-5.22,3.41-5.91,2.57-.69,5.23,.84,5.91,3.41,.69,2.57-.85,5.22-3.42,5.91Z"/><path class="cls-24" d="M420.04,603.4c3.04-.81,5.78-2.79,7.48-5.72,3.39-5.87,1.37-13.42-4.5-16.81s-13.41-1.38-16.81,4.5c-3.39,5.87-1.37,13.42,4.5,16.81,2.94,1.7,6.29,2.04,9.34,1.23Zm-7.36-14.3c.66-1.15,1.74-1.93,2.93-2.25,1.19-.32,2.51-.18,3.66,.48,2.3,1.33,3.09,4.29,1.76,6.59-1.33,2.3-4.29,3.09-6.59,1.76-2.3-1.33-3.09-4.29-1.76-6.59Z"/></g><g><g><g id="Cfggfw.tif"><g><path class="cls-31" d="M856,433.74c-2.62,3.01-5.02,5.95-7.62,8.69-1.8,1.9-2.85,4.13-3.87,6.46-1.18,2.7-2.42,5.39-3.84,7.97-1.31,2.39-2.91,4.63-4.35,6.95-.44,.71-.8,1.48-1.2,2.21-.17,.32-.31,.68-.54,.96-1.97,2.31-3.27,5.03-4.79,7.62-2.19,3.73-4.53,7.36-6.8,11.04-.08,.13-.21,.25-.26,.4-.84,2.78-2.81,4.91-4.31,7.3-1.13,1.81-1.53,3.83-1.62,5.89-.1,2.22,1.06,3.83,3,4.84,2.98,1.56,6.18,2.4,9.5,2.84,1.77,.24,3.51,.63,5.27,.98,2.43,.48,4.85,1.09,7.3,1.44,3.15,.46,6.23,.97,9.06,2.61,1.58,.91,3.42,1.37,5.03,2.25,3.15,1.73,6.1,3.7,8.6,6.38,1.7,1.83,3.73,3.42,6.13,4.38,.58,.23,1.11,.61,1.67,.9,1.54,.8,3.09,1.58,4.62,2.4,1.07,.57,2.14,1.15,3.14,1.82,1.15,.77,2.25,1.53,3.73,1.57,.88,.02,1.1,.56,.55,1.26-.45,.57-.97,1.13-1.57,1.54-1.77,1.23-3.61,2.36-5.4,3.57-1.22,.83-2.38,1.74-3.6,2.57-1.71,1.16-3.51,2.11-5.49,2.76-1.03,.34-1.97,.99-2.91,1.57-1.7,1.05-3.31,2.26-5.06,3.21-2.08,1.13-3.52,2.99-5.4,4.35-2.25,1.63-4.7,2.78-7.38,3.47-2.6,.67-5.18,1.43-7.77,2.11-.88,.23-1.21,.79-1.14,1.63,.11,1.37,.25,2.73,.38,4.09,.16,1.67-.23,3.24-.8,4.8-.36,.98-.99,1.28-2.01,1.42-4.89,.69-9.55-.54-14.24-1.53-3.46-.73-6.94-1.38-10.39-2.11-1.13-.24-2.22-.68-3.34-.95-1.74-.43-3.55-.65-5.24-1.22-4.52-1.53-9.22-2.26-13.83-3.38-1.02-.25-2.08-.41-3.13-.41-3.41-.03-5.41,1.44-6.03,5.57-.54,3.61,.58,6.73,2.96,9.49,1.88,2.18,3.07,4.77,3.86,7.53,.29,1,.25,2.02-.61,2.78-.34,.31-.74,.6-1.17,.75-2.86,.99-5.85,1.35-8.83,1.73-.31,.04-.64,.02-.94,.1-2.52,.69-4.96,0-7.33-.63-4.86-1.29-9.36-3.56-13.94-5.57-2.35-1.03-4.5-2.52-6.74-3.79-.55-.31-1.11-.62-1.68-.88-1.18-.55-2.45-.94-3.24-2.12-.24-.36-.75-.58-1.19-.77-2.72-1.18-4.83-3.11-6.88-5.21-2.32-2.37-4.9-4.48-7.35-6.72-.62-.57-1.17-1.2-1.74-1.81-.43-.46-.83-.95-1.27-1.41-.22-.23-.52-.39-.7-.64-2.19-3.01-5.33-5.08-7.78-7.83-.24-.27-.57-.46-.85-.7-.67-.58-1.33-1.15-1.98-1.75-.19-.18-.33-.41-.5-.61-.42-.47-.93-.7-1.56-.5-.64,.2-.87,.68-.98,1.3-.33,1.92-.68,3.85-1.07,5.76-.32,1.55-.78,3.07-1.07,4.63-.44,2.38-.81,4.78-1.17,7.18-.32,2.14-.59,4.28-.88,6.42-.26,1.93-.58,3.85-.76,5.78-.22,2.25-.31,4.51-.47,6.76-.33,4.63-.67,9.26-1,13.89-.03,.36,0,.73,.02,1.1,.01,.21,.16,.48,.08,.62-1.06,1.77-.24,3.71-.46,5.56-.24,1.92,0,3.9-.14,5.84-.29,3.79,.11,7.56,.22,11.34,.08,2.69-.04,5.39,.15,8.07,.32,4.37,.02,8.72-.12,13.08-.05,1.62,.13,3.25,.31,4.87,.13,1.1,.41,2.18-.17,3.24-.12,.22-.13,.51-.11,.77,.06,1.42,.16,2.84,.23,4.26,.11,2.21-.1,4.3-1.82,5.98-.48,.47-.73,1.16-1.12,1.72-.33,.48-.66,.97-1.07,1.36-.54,.51-1.1,.43-1.42-.24-.77-1.61-1.6-3.21-.99-5.12,.18-.58,.11-1.25,.1-1.88-.04-1.69-.13-3.37-.16-5.06-.08-3.99-.17-7.98-.19-11.97-.02-4.21,.06-8.43,.05-12.64,0-2.63-.14-5.25-.14-7.88,0-1.78,.17-3.56,.23-5.35,.03-.84-.08-1.68-.04-2.52,.2-4,.38-8,.68-11.99,.23-3.05,.64-6.08,.97-9.12,.12-1.15,.27-2.3,.36-3.46,.29-3.52,.54-7.05,.86-10.57,.11-1.26,.33-2.51,.54-3.75,.78-4.68,1.56-9.37,2.37-14.05,.23-1.34,.55-2.66,.81-4,.08-.41,.1-.84,.15-1.26,.24-2.14,.48-4.29,.73-6.43,.04-.31,.12-.63,.11-.94-.03-1.02-.73-1.52-1.58-1.01-2.46,1.49-5.25,2.2-7.83,3.37-2.08,.94-4.17,1.76-6.34,2.41-1.92,.57-3.81,1.38-5.77,1.64-3.74,.49-6.97,2.36-10.47,3.46-.8,.25-1.61,.48-2.42,.7-1.84,.48-3.69,.9-5.51,1.41-2.41,.67-4.86,.93-7.36,.9-.88,0-1.76,.17-2.64,.26-.31,.03-.63,.09-.94,.09-2.84,0-5.68,.09-8.52-.03-1.72-.07-3.43-.46-5.14-.73-1.81-.3-3.59-.46-5.45-.42-3.09,.08-6.2-.17-9.29-.44-1.23-.11-2.44-.59-3.64-.97-1.43-.45-2.87-.64-4.37-.48-1.59,.17-3.02-.3-4.35-1.13-.65-.4-.97-.89-.69-1.71,.63-1.89,1.11-3.83,2.34-5.49,1.91-2.59,3.65-5.3,5.64-7.82,1.16-1.48,2.75-2.62,3.98-4.05,.95-1.1,1.68-2.4,2.46-3.64,.35-.55,.2-1.18-.23-1.61-.47-.48-1.02-.92-1.6-1.25-5.35-3.05-11.13-3.98-17.23-3.7-1.88,.08-3.8-.65-5.7-1.02-.31-.06-.6-.23-.9-.26-1.45-.15-2.9-.27-4.35-.42-.37-.04-.76-.05-1.09-.2-2.38-1.08-5.03-1.06-7.46-1.9-.34-.12-.72-.09-1.08-.16-.88-.16-1.77-.28-2.63-.5-1.82-.48-3.63-1.02-5.45-1.53-1.17-.33-2.33-.69-3.5-.99-.71-.18-1.44-.29-2.16-.4-.93-.15-1.86-.29-2.8-.4-.52-.06-1.04-.08-1.57-.1-1.43-.04-2.27-.99-1.96-2.39,.31-1.39,.75-2.69,1.99-3.67,.99-.78,1.85-1.7,3.06-2.2,.32-.13,.61-.43,.81-.73,.84-1.26,2.04-2.09,3.25-2.96,1.15-.82,2.13-1.88,3.16-2.86,.41-.39,.38-.93,0-1.28-.44-.42-.96-.87-1.53-1.03-2.22-.65-4.19-1.68-5.88-3.28-.42-.4-.92-.7-1.37-1.07-.49-.4-1.06-.75-1.41-1.25-1.54-2.15-3.43-3.98-5.29-5.84-.41-.41-.82-.81-1.26-1.19-3.25-2.78-6.23-5.82-8.31-9.59-.76-1.38-1.36-2.87-1.81-4.38-.65-2.19-1.72-4.06-3.33-5.65-.29-.29-.55-.62-.86-.96,.47-1.1,1.42-1.45,2.39-1.66,.81-.18,1.71-.36,2.5-.2,2.36,.46,4.47-.53,6.67-.97,1.91-.38,3.82-.76,5.74-1.1,.46-.08,.94-.03,1.42-.03,2.68,.04,5.37,0,8.05,.13,2.57,.12,5.15,.12,7.62,1.14,.99,.4,2.17,.32,3.26,.5,.82,.13,1.63,.33,2.45,.5,.36,.08,.72,.2,1.08,.22,2.16,.15,4.32,.24,6.47,.42,1.62,.14,3.24,.36,4.86,.6,2.56,.38,5.1,.13,7.45-.82,1.87-.75,3.63-1.8,5.29-3.06,1.74-1.33,3.04-2.94,3.97-4.8,.74-1.49,1.48-3.1,.63-4.93-.79-1.69-1.27-3.52-2.04-5.22-.43-.94-1.17-1.74-1.74-2.62-1.68-2.62-3.41-5.2-4.99-7.88-.98-1.67-1.8-3.45-2.55-5.25-.93-2.22-2.28-4.11-3.82-5.94-1.07-1.27-1.92-2.76-2.68-4.25-.52-1.01-1.34-1.88-1.39-3.15-.07-1.62-.3-3.23-.48-5.01,1.14-.28,2.13-.62,3.15-.77,1.67-.24,3.35-.36,5.03-.51,.36-.03,.74-.04,1.1,.01,2.54,.42,5.02,.06,7.47-.56,.09-.02,.15-.14,.35-.35-.15-.35-.3-.78-.51-1.17-1.17-2.17-2.59-4.22-3.4-6.58-.31-.9-.65-1.79-.87-2.7-.98-4.1-1.89-8.22-2.91-12.32-.39-1.58-.98-3.11-1.55-4.64-.53-1.43-1.17-2.82-1.74-4.24-.59-1.46-.23-2.32,1.01-3.25,2.11-1.57,4.59-1.79,7.04-2.04,2.69-.27,2.69-.18,2.19-2.77-.44-2.28-1.09-4.54-1.23-6.84-.17-2.71-.06-5.47,.25-8.18,.28-2.34,.14-4.63-.01-6.93-.1-1.53-.3-3.05-.49-4.56-.09-.71,.19-1.05,.87-1.25,1.68-.5,3.33-.35,5,.08,2.13,.54,3.99,1.65,5.86,2.74,2.96,1.73,5.94,3.41,8.86,5.19,1.39,.85,2.64,1.9,3.97,2.84,.82,.58,1.68,1.08,2.49,1.67,1.48,1.08,2.93,2.22,4.42,3.29,.68,.49,1.4,1.09,2.17,1.23,1.07,.2,1.92,.69,2.84,1.2,1.77,1,3.38,.6,5.25-.99,.96-.81,1.98-1.58,3.08-2.18,1.28-.7,1.78-.53,2.79,.52,.22,.23,.45,.47,.58,.75,.78,1.65,1.91,3.14,2.33,4.97,.22,.97,.39,2.04,.95,2.82,.68,.95,1.64,1.8,2.65,2.39,1.16,.68,2.16,1.46,3.09,2.41,1.36,1.39,2.92,2.6,4.27,4.01,1.9,1.97,3.66,4.06,5.52,6.07,1.78,1.93,3.61,3.83,5.41,5.75,.5,.54,1,1.08,1.47,1.65,1.07,1.29,2.13,2.6,3.18,3.91,.54,.68,1.22,.75,1.99,.52,.83-.25,1.4-.75,1.55-1.62,.53-3.01,1.03-6.02,1.55-9.02,.22-1.24,.54-2.46,.31-3.74-.07-.4,.03-.84,.11-1.26,.44-2.49,.84-4.98,1.36-7.46,.53-2.52,1.2-5.02,1.76-7.54,.73-3.3,1.31-6.63,2.13-9.9,.87-3.47,1.76-6.98,3.84-9.97,1.05-1.5,2.36-2.83,3.59-4.2,1.38-1.53,2.79-3.02,4.21-4.51,1.09-1.14,1.28-1.13,2.63-.15,1.27,.92,2.49,1.85,3.3,3.3,.79,1.41,2.55,1.4,3.5-.01,.78-1.17,1.39-2.49,1.93-3.8,1.13-2.78,2.94-5.1,4.81-7.38,.47-.58,1.01-.7,1.68-.47,1.28,.45,2.71,.43,3.88,1.29,.23,.17,.87,.08,1.13-.12,.9-.72,1.8-1.47,2.54-2.34,2.69-3.15,4.39-6.95,6.68-10.36,1.32-1.96,2.93-3.72,4.43-5.57,.16-.2,.38-.37,.6-.52,.91-.6,1.76-.32,2.13,.71,.12,.35,.22,.71,.26,1.08,.42,3.66,.82,7.33,1.25,11,.35,2.93,.6,5.87,1.45,8.72,.55,1.84,1.47,2.56,3.36,2.34,2.24-.26,3.98,.86,5.7,1.97,.73,.47,1.05,1.31,.9,2.23-.12,.73-.22,1.47-.44,2.17-.53,1.71-1.17,3.39-1.65,5.11-.34,1.21-.67,2.47-.69,3.71-.06,2.54,1.9,4.26,4.59,3.09,3.26-1.41,6.73-1.69,10.2-1.84,1.78-.08,1.92,.21,1.76,2.05-.27,3.19-1.46,6.13-2.44,9.13-.65,2-1.38,3.98-2.2,5.91-1.73,4.08-2.65,8.43-4.16,12.58-.71,1.95-.94,4.11-1.13,6.19-.22,2.46-.19,4.95-.23,7.43-.02,1.46,.58,1.96,1.98,1.58,2.28-.62,4.53-1.37,6.82-1.99,1.52-.41,3.08-.74,4.63-.99,2.64-.42,5.03-1.54,7.44-2.61,1.58-.7,3.12-1.51,4.67-2.28,.71-.35,1.41-.71,2.1-1.1,3.26-1.85,6.61-3.51,10.17-4.72,.3-.1,.6-.25,.91-.28,2.47-.3,3.33,.72,3.07,2.89-.2,1.67-.43,3.35-.54,5.03-.11,1.81,.69,3.33,1.98,4.49,1.11,1,2.6,.92,3.91,.42,3.24-1.22,6.61-1.81,10-2.31,4.25-.63,8.35-1.7,12.3-3.41,1.95-.84,3.73-1.93,5.51-3.06,.66-.42,1.37-.8,2.11-1.06,1.66-.59,2.91,.26,3.07,2.04,.05,.52,.1,1.07,0,1.57-.3,1.49-.67,2.97-1.04,4.45-.49,1.94-1.04,3.87-1.49,5.82-.41,1.77-1.07,3.38-2.06,4.92-1.59,2.48-2.98,5.09-4.48,7.63-.99,1.68-1.99,3.35-3.05,4.99-1.17,1.81-1.63,3.77-1.29,5.88,.23,1.4,1.86,2.76,3.51,3.04,3.38,.57,6.76,1.12,10.14,1.69,.88,.15,1.76,.37,2.64,.53,2.56,.48,4.37,1.77,4.93,4.33Zm-156.59,230.87c-.09-.03-.19-.07-.28-.1-.15,.38-.31,.76-.46,1.14,.12,.04,.23,.08,.35,.13,.13-.39,.26-.78,.39-1.16Zm-62.8-238.82c.14-.06,.23-.1,.32-.14-.08-.11-.14-.24-.25-.31-.04-.03-.17,.07-.26,.11,.06,.12,.12,.23,.18,.34Z"/><path class="cls-22" d="M699.41,664.62c-.13,.39-.26,.78-.39,1.16-.12-.04-.23-.08-.35-.13,.15-.38,.31-.76,.46-1.14,.09,.03,.19,.07,.28,.1Z"/><path class="cls-17" d="M636.61,425.8c-.06-.11-.12-.23-.18-.34,.09-.04,.22-.13,.26-.11,.1,.07,.17,.2,.25,.31-.09,.04-.18,.08-.32,.14Z"/></g></g><polygon class="cls-8" points="631.26 376.39 712.77 502.64 712.77 493.36 631.26 376.39"/><polygon class="cls-8" points="712.77 484.79 831.86 403.92 712.77 493.36 712.77 484.79"/><path class="cls-8" d="M580.78,485.21s98.12,37.88,125.1,34.67l.68-6.57s-3.85,12.54-125.78-28.11Z"/><path class="cls-8" d="M836.57,537.9s-105.07-4.7-128.5-18.47l2.01-6.29s-1.51,13.03,126.48,24.76Z"/><path class="cls-8" d="M746.64,325.91s-41.29,139.85-42.45,222.79l6.38-1.3s-3.26-73.33,36.07-221.49Z"/></g><g><g><path class="cls-18" d="M496.8,487.54s-15.51-164.44-93.98-186.85c0,0,118.46,21.43,134.37,188.7l-40.38-1.86Z"/><path class="cls-16" d="M522.48,475.25s-6.01-173.64-45.07-195.34c0,0,59.09,19.64,65.27,196.27l-20.2-.93Z"/><path class="cls-15" d="M460.77,452.72s-6.75-91.31-38.8-103.13c0,0,48.35,10.95,55.27,103.83l-16.47-.7Z"/><polygon class="cls-21" points="546.17 293.81 542.69 476.18 597.64 478.71 546.17 293.81"/><path class="cls-20" d="M581.76,477.98s-15.51-164.44-93.98-186.85c0,0,118.46,21.43,134.37,188.7l-40.38-1.86Z"/><path class="cls-19" d="M660.17,522.88s-15.51-164.44-93.98-186.85c0,0,118.46,21.43,134.37,188.7l-40.38-1.86Z"/><path class="cls-11" d="M614.04,479.46s-6.01-173.64-45.07-195.34c0,0,59.09,19.64,65.27,196.27l-20.2-.93Z"/></g><g><path class="cls-12" d="M663.96,640.32s-2.99-255.68-41.7-286.96c0,0,58.78,27.9,61.89,287.98l-20.2-1.02Z"/><polygon class="cls-13" points="684.65 346.88 677.99 615.57 732.93 618.34 684.65 346.88"/><path class="cls-14" d="M634.96,643.3s-12.65-241.97-90.79-273.6c0,0,118.16,29.5,131.16,275.63l-40.38-2.03Z"/></g></g></g><g><path class="cls-7" d="M1067.96,657.03c-5.46-18.86-17.97-34.94-35.24-45.28l-43.84-26.25c-16.98-10.17-38.53-5.89-50.51,9.19-10.3-20.97-30.47-37.13-57.48-43.75l-51.5-12.6c-16-3.92-32.1,2.69-41.08,15.37-2.47-3.26-5.44-6.15-8.86-8.52-8.51-5.88-19-8.14-29.18-6.27l-30.54,5.58c-6.79,1.24-12.84,4.17-17.81,8.28-6.09-2.08-12.78-2.68-19.57-1.44l-30.33,5.54c-9.08,1.66-17.23,6.49-23.06,13.56v-33.91c16.55-4.51,28.72-19.64,28.72-37.62v-27.46c0-21.53-17.46-38.99-38.99-38.99h-88.28c-10.15,0-19.36,3.91-26.29,10.26-7.3-9.03-18.37-14.48-30.3-14.48h-5.49c-15.1,0-28.84,8.72-35.27,22.38l-3.53,7.49c-5.46-14.95-19.76-25.64-36.59-25.64h-83.84c-5,0-9.76,.97-14.15,2.69-4.39-1.71-9.15-2.69-14.15-2.69h-30.83c-9.33,0-17.9,3.28-24.61,8.74-6.86-5.58-15.52-8.74-24.6-8.74h-32.74c-21.53,0-38.99,17.46-38.99,38.99v126.72c0,21.53,17.46,38.99,38.99,38.99h31.05c9.38,0,17.98-3.31,24.71-8.83,6.88,5.64,15.58,8.83,24.71,8.83h32.31c5,0,9.76-.97,14.15-2.69,4.39,1.71,9.15,2.69,14.15,2.69h86.17c1.94,0,3.83-.19,5.69-.46,1.88,.28,3.78,.46,5.71,.46h33.37c11.31,0,21.86-4.9,29.15-13.09h4.21c7.29,8.21,17.84,13.09,29.15,13.09h5.61c-21.06,33.28-22.49,76.32-.22,112.41,15.17,24.57,38.52,41.67,65.75,48.15,7.92,1.88,15.96,2.81,24,2.81,19.92,0,39.84-5.71,57.81-16.8,14.29-8.82,25.95-20.12,34.75-33.45,9.33,3.21,19.36,4.88,29.73,4.88,6.06,0,12.23-.56,18.43-1.69,14.98-2.74,28.64-8.62,40.03-16.97,.76,.23,1.5,.49,2.28,.68l30.16,7.38c5.46,1.34,11.1,1.46,16.53,.44,4.32,3.4,9.36,5.9,14.86,7.25l37.75,9.24c1.94,.48,3.9,.74,5.86,.92l45.86,27.46c13.22,7.91,27.66,12,41.89,12,5.41,0,10.79-.59,16.07-1.79,19.16-4.35,35.29-16.04,45.39-32.91,6.55-10.93,10.04-22.24,10.48-34.09,5.77-4.9,10.77-10.86,14.97-17.88,10.54-17.61,13.18-38.27,7.42-58.17Z"/><path class="cls-6" d="M973.63,806.09c-15.06,0-30.3-4.36-44.07-12.6l-45.03-26.97c-2.05-.21-3.82-.51-5.51-.93l-37.75-9.24c-5.43-1.33-10.45-3.64-14.95-6.88-5.5,.8-11.02,.53-16.44-.8l-30.16-7.38c-.17-.04-.34-.08-.51-.13-11.64,8.12-25.43,13.8-40.03,16.47-16.2,2.96-32.44,2.16-47.21-2.34-8.97,12.78-20.48,23.55-34.24,32.05-18.48,11.41-39.24,17.44-60.04,17.44-8.4,0-16.81-.99-24.98-2.93-28.33-6.74-52.61-24.51-68.38-50.04-21.11-34.21-22.29-75.88-3.55-110.43-11.05-.45-21.52-5.14-29.23-13.06h-.52c-8.12,8.34-19.31,13.09-31,13.09h-33.37c-1.78,0-3.65-.14-5.71-.42-2.1,.29-3.92,.42-5.68,.42h-86.17c-4.81,0-9.56-.81-14.15-2.41-4.59,1.6-9.34,2.41-14.15,2.41h-32.31c-8.83,0-17.49-2.73-24.71-7.76-7.21,5.02-15.87,7.76-24.71,7.76h-31.05c-23.84,0-43.23-19.39-43.23-43.23v-126.72c0-23.84,19.39-43.23,43.23-43.23h32.74c8.79,0,17.4,2.71,24.6,7.68,7.19-4.97,15.81-7.68,24.61-7.68h30.84c4.81,0,9.56,.81,14.15,2.41,4.59-1.6,9.34-2.41,14.15-2.41h83.84c14.94,0,28.68,7.81,36.5,20.14,7.19-14.82,22.4-24.36,38.9-24.36h5.49c11.66,0,22.64,4.64,30.74,12.85,7.46-5.59,16.49-8.63,25.85-8.63h88.28c23.84,0,43.23,19.39,43.23,43.23v27.46c0,18.35-11.66,34.66-28.72,40.73v20.94c5.31-3.96,11.49-6.68,18.06-7.88l30.33-5.54c6.48-1.18,13.16-.87,19.47,.9,5.27-3.89,11.42-6.55,17.91-7.74l30.54-5.59c11.35-2.07,22.84,.39,32.35,6.96,2.27,1.57,4.39,3.37,6.34,5.38,10.59-11.67,26.61-16.69,42.2-12.86l51.49,12.6c25.41,6.22,45.56,20.54,57.38,40.62,13.84-13.01,35.07-15.59,51.77-5.59l43.84,26.25c18.18,10.89,31.37,27.84,37.13,47.74h0c6.09,21.05,3.3,42.89-7.86,61.53-4.07,6.81-8.94,12.76-14.47,17.71-.75,11.81-4.44,23.32-10.99,34.25-10.7,17.87-27.78,30.26-48.09,34.87-5.55,1.26-11.27,1.89-17.01,1.89Zm-145.1-65.63l1.52,1.2c3.92,3.09,8.38,5.27,13.24,6.46l37.75,9.24c1.52,.37,3.18,.63,5.22,.81l.97,.08,46.69,27.96c17.16,10.27,36.85,13.78,54.84,9.71,18.02-4.09,33.18-15.08,42.68-30.95,6.23-10.41,9.47-20.89,9.88-32.06l.07-1.87,1.43-1.21c5.4-4.58,10.14-10.24,14.08-16.82,9.93-16.59,12.41-36.05,6.99-54.8h0c-5.16-17.83-17-33.04-33.34-42.82l-43.84-26.25c-14.88-8.91-34.23-5.38-45,8.19l-4.17,5.26-2.96-6.02c-10.13-20.6-29.55-35.34-54.68-41.5l-51.5-12.6c-13.94-3.42-28.3,1.96-36.61,13.7l-3.34,4.72-3.5-4.61c-2.26-2.98-4.92-5.54-7.89-7.59-7.64-5.28-16.87-7.27-26-5.59l-30.54,5.59c-5.84,1.07-11.33,3.61-15.87,7.37l-1.83,1.51-2.25-.77c-5.58-1.9-11.61-2.35-17.43-1.28l-30.33,5.54c-8.03,1.46-15.33,5.76-20.55,12.09l-7.52,9.11v-48.96l3.13-.85c15.07-4.1,25.59-17.89,25.59-33.53v-27.46c0-19.16-15.59-34.75-34.75-34.75h-88.28c-8.67,0-16.99,3.25-23.43,9.14l-3.33,3.05-2.84-3.51c-6.64-8.2-16.48-12.91-27-12.91h-5.49c-13.39,0-25.73,7.83-31.43,19.94l-7.86,16.69-3.49-9.56c-4.99-13.67-18.09-22.85-32.61-22.85h-83.84c-4.29,0-8.53,.81-12.6,2.4l-1.54,.6-1.54-.6c-4.08-1.59-8.32-2.4-12.6-2.4h-30.84c-7.97,0-15.76,2.77-21.93,7.79l-2.68,2.18-2.68-2.18c-6.18-5.02-13.96-7.79-21.92-7.79h-32.74c-19.16,0-34.75,15.59-34.75,34.75v126.72c0,19.16,15.59,34.75,34.75,34.75h31.05c8.02,0,15.84-2.79,22.02-7.87l2.69-2.2,2.69,2.2c6.19,5.07,14.01,7.87,22.02,7.87h32.31c4.29,0,8.53-.81,12.6-2.4l1.54-.6,1.54,.6c4.08,1.59,8.32,2.4,12.6,2.4h86.17c1.52,0,3.13-.13,5.08-.42l.62-.09,.62,.09c1.89,.28,3.55,.41,5.09,.41h33.37c9.92,0,19.39-4.25,25.98-11.67l1.27-1.43h8.03l1.27,1.43c6.59,7.42,16.06,11.67,25.98,11.67h13.32l-4.12,6.51c-20.86,32.96-20.93,74.32-.2,107.91,14.57,23.61,36.99,40.03,63.12,46.25,7.53,1.79,15.28,2.7,23.02,2.7,19.22,0,38.44-5.59,55.58-16.17,13.65-8.43,24.91-19.26,33.44-32.18l1.81-2.74,3.11,1.07c14.23,4.9,30.11,5.93,46.01,3.02,14.08-2.58,27.32-8.18,38.29-16.22l1.72-1.26,2.65,.82c.47,.15,.94,.3,1.43,.42l30.16,7.38c4.85,1.19,9.81,1.32,14.73,.39l1.9-.36Z"/></g><g><g><path class="cls-9" d="M284.14,292l11.27-11c5.52-5.39,12.74-4.46,17.17,.07,4.91,5.03,4.65,12.3-.34,17.17l-4.71,4.6,9.47,9.69-6.55,6.4-26.3-26.94Zm21.95,1.19c1.71-1.67,1.11-4.16-.42-5.73-1.45-1.48-3.66-1.95-5.41-.24l-4.08,3.99,5.83,5.97,4.08-3.99Z"/><path class="cls-9" d="M313.02,264.55l12.23-9.93c6.29-5.1,13.46-4.63,17.93,.88,4.15,5.11,3.91,10.08,.44,14.68l16.71,4.45-8.96,7.28-16.31-4.86,8.86,10.91-7.16,5.82-23.74-29.22Zm23.2,2.18c1.61-1.31,1.33-3.83-.05-5.54-1.39-1.7-3.88-2.19-5.48-.88l-5.55,4.51,5.34,6.58,5.75-4.67Z"/><path class="cls-9" d="M360.98,227.23c9.96-6.44,21.83-3.57,27.93,5.86,6.1,9.43,3.84,21.43-6.12,27.87-10.01,6.47-21.83,3.57-27.93-5.86-6.1-9.43-3.89-21.4,6.12-27.87Zm17.07,26.41c5.59-3.61,6.44-10.15,3-15.47-3.44-5.32-9.75-7.22-15.34-3.61-5.64,3.65-6.45,10.15-3.01,15.47,3.44,5.32,9.7,7.26,15.34,3.61Z"/><path class="cls-9" d="M389.88,211.38l21.64-11.03,3.7,7.27-13.42,6.84,3.65,7.16,12.36-6.3,3.65,7.16-12.36,6.3,6.1,11.97-8.22,4.19-17.1-33.55Z"/><path class="cls-9" d="M420.19,196.43l23.03-9.49,3.1,7.54-14.51,5.97,2.58,6.27,13.4-5.52,3.05,7.43-13.4,5.52,2.58,6.27,15.14-6.24,3.01,7.31-23.68,9.75-14.33-34.81Z"/><path class="cls-9" d="M469.85,205.94c.66,2.1,2.87,3.24,4.9,2.6,2.21-.7,3.19-2.39,2.61-4.25-.85-2.69-4.63-2.35-7.88-2.44-6.73-.24-10.97-2-12.92-8.16-2-6.34,1.78-13.33,8.53-15.47,7.96-2.52,13.34,1.38,15.92,7.87l-8.26,2.61c-.65-2.03-2.43-3.31-4.88-2.54-1.92,.61-3.41,2.33-2.67,4.66,.85,2.69,4.3,2.13,7.63,2.06,7.01-.11,11.14,2.53,12.92,8.16,2,6.34-1.72,13.31-8.48,15.45-7.84,2.48-13.93-1.39-15.97-7.85l8.56-2.71Z"/><path class="cls-9" d="M503.63,196.5c.48,2.14,2.58,3.48,4.66,3.01,2.27-.51,3.39-2.11,2.96-4.01-.61-2.76-4.41-2.75-7.64-3.12-6.68-.82-10.75-2.94-12.16-9.25-1.45-6.49,2.92-13.13,9.84-14.67,8.15-1.82,13.17,2.53,15.17,9.22l-8.45,1.89c-.47-2.08-2.14-3.51-4.64-2.95-1.96,.44-3.6,2.02-3.07,4.41,.62,2.76,4.09,2.49,7.42,2.72,6.99,.5,10.88,3.49,12.16,9.25,1.45,6.49-2.86,13.11-9.78,14.66-8.02,1.79-13.76-2.59-15.24-9.2l8.76-1.96Z"/><path class="cls-9" d="M525.39,165.04l9.12-1.42,5.77,37.21-9.12,1.41-5.77-37.2Z"/><path class="cls-9" d="M566.74,158.96c11.84-.81,20.83,7.45,21.6,18.66,.77,11.21-7.02,20.62-18.86,21.43-11.9,.82-20.83-7.44-21.6-18.65-.77-11.21,6.96-20.61,18.86-21.43Zm2.15,31.38c6.64-.46,10.56-5.76,10.13-12.08-.44-6.33-5.04-11.05-11.68-10.59-6.7,.46-10.55,5.76-10.12,12.08,.43,6.33,4.97,11.05,11.67,10.59Z"/><path class="cls-9" d="M600.02,158.9l9.72,.45,13.57,23,1.03-22.32,9.15,.42-1.74,37.62-9.59-.44-13.64-23.06-1.03,22.38-9.21-.43,1.74-37.62Z"/><path class="cls-9" d="M662.18,162.92l1.61,.25,12.3,41.27-9.8-1.51-1.27-4.13-14.7-2.27-2.39,3.57-9.8-1.51,24.05-35.66Zm.75,28.89l-2.82-10.09-.13-.02-5.8,8.76,8.75,1.35Z"/><path class="cls-9" d="M691.63,169.57l8.94,2.27-7.31,28.83,15.87,4.03-1.95,7.66-24.81-6.29,9.26-36.49Z"/><path class="cls-9" d="M745.84,185.51l8.57,3.42-11.01,27.63,15.21,6.06-2.92,7.35-23.78-9.48,13.94-34.97Z"/><path class="cls-9" d="M794.34,205.54l1.45,.75-1.4,43.03-8.81-4.53,.11-4.32-13.23-6.81-3.4,2.63-8.82-4.54,34.09-26.21Zm-8.43,27.63l.51-10.46-.11-.06-8.27,6.47,7.87,4.05Z"/><path class="cls-9" d="M813.26,216.33l8.06,5.34-3.48,19,10.34-7.31,1.3-6.29,7.95,5.27-3.5,18.91,15.53-10.94,8.01,5.31-34.58,23.77-1.05-.7,4.25-23.23-19.48,13.15-.99-.66,7.63-41.63Z"/><path class="cls-9" d="M865.5,252.48l7.38,6.33-3.45,26.48,14.55-16.96,6.96,5.97-24.52,28.58-7.29-6.25,3.44-26.57-14.59,17-7-6.01,24.52-28.58Z"/><path class="cls-9" d="M928.85,312.65c4.65,5.44,5.82,10.96,5.24,16.75l-8.7-.9c.25-3.67-.72-7.31-3.17-10.17-4.36-5.11-10.99-5.14-15.81-1.01-4.82,4.12-5.82,10.67-1.45,15.78,2.45,2.86,5.89,4.38,9.56,4.71l-.58,8.59c-5.45-.29-11.08-2.33-15.61-7.63-7.75-9.07-6.53-21.26,2.01-28.56,8.54-7.3,20.78-6.61,28.53,2.45Z"/><path class="cls-9" d="M955.17,347.26l.92,1.35-21.78,37.16-5.58-8.2,2.16-3.75-8.37-12.3-4.24,.69-5.58-8.2,42.48-6.76Zm-20.6,20.26l5.45-8.95-.07-.1-10.36,1.74,4.98,7.32Z"/><path class="cls-9" d="M970.49,373.37l7.52,13.84c3.86,7.11,2.08,14.08-4.15,17.47-5.79,3.14-10.63,1.99-14.51-2.26l-7.44,15.61-5.51-10.15,7.77-15.15-12.35,6.71-4.4-8.11,33.08-17.98Zm-6.4,22.4c.99,1.82,3.52,2.01,5.45,.96,1.93-1.05,2.86-3.41,1.87-5.23l-3.42-6.29-7.44,4.05,3.53,6.51Z"/><path class="cls-9" d="M988.83,408.39l9.93,22.84-7.48,3.25-6.25-14.38-6.21,2.7,5.78,13.29-7.36,3.2-5.78-13.29-6.22,2.7,6.53,15.02-7.25,3.15-10.2-23.48,34.53-15.01Z"/></g><g><path class="cls-9" d="M195.12,747.79l2.7,1.38,.47-1.15c1.33-3.29,3.08-5.12,5.97-6.34,4.68-1.98,10.4,.1,12.96,6.17,2.62,6.18,.72,11.69-4.02,13.69-3,1.27-6.13,.48-9.76-1.18l-.77-.36-2.31,6.29,8.96,3.63-2.65,7.59-9.04-3.67-3.13,9.02-7.83-3.37,3.2-8.71-1.18-.53c-5.14-2.32-7.45-4.41-9.14-8.4-3.03-7.16,.13-12.59,5.27-14.76,3.29-1.39,6.69-1.26,10.3,.68Zm-8.33,11.56c.68,1.62,1.92,2.12,3.23,2.65l2.61,1.01,2.44-6.62-2.67-1.32c-1.2-.58-2.64-.59-3.62-.17-.81,.34-1.47,1.03-1.96,1.98-.37,.91-.34,1.78-.04,2.47Zm20.59-5.44c.74,.3,1.47,.26,2.11,0,.93-.39,1.67-1.52,1.01-3.08-.59-1.39-2.08-1.85-3.12-1.41-.52,.22-1.06,.72-1.33,1.38l-.84,2.2,2.16,.93Z"/><path class="cls-9" d="M220.79,817.03c-1.87,1.15-2.46,3.56-1.34,5.38,1.21,1.98,3.09,2.52,4.75,1.51,2.41-1.47,1.17-5.06,.48-8.24-1.38-6.59-.7-11.12,4.82-14.5,5.68-3.47,13.37-1.48,17.07,4.57,4.36,7.12,1.87,13.28-3.81,17.34l-4.52-7.39c1.82-1.11,2.63-3.16,1.29-5.35-1.05-1.71-3.08-2.75-5.17-1.47-2.41,1.47-1.04,4.68-.17,7.9,1.79,6.78,.21,11.42-4.82,14.5-5.68,3.47-13.33,1.54-17.03-4.52-4.29-7.01-2-13.86,3.78-17.39l4.68,7.66Z"/><path class="cls-9" d="M257.75,825.9l5.86,7.76-9.04,25.13,17.84-13.45,5.51,7.31-30.07,22.67-5.78-7.67,9.05-25.21-17.89,13.49-5.55-7.37,30.07-22.67Z"/><path class="cls-9" d="M299.42,874.58c8.18,8.59,7.58,20.78-.56,28.53-8.13,7.75-20.34,7.76-28.52-.83-8.22-8.63-7.58-20.78,.56-28.53,8.13-7.75,20.3-7.81,28.52,.83Zm-22.76,21.69c4.59,4.81,11.17,4.44,15.76,.07,4.59-4.37,5.28-10.93,.69-15.74-4.63-4.86-11.17-4.44-15.76-.07-4.59,4.37-5.32,10.88-.69,15.74Z"/><path class="cls-9" d="M318.26,895.99l7.53,6.06-5.23,18.59,10.97-6.31,1.88-6.14,7.43,5.98-5.24,18.51,16.48-9.45,7.48,6.03-36.63,20.46-.98-.79,6.39-22.74-20.61,11.28-.93-.75,11.46-40.74Z"/><path class="cls-9" d="M383.02,943.9l13.73,7.73c7.05,3.97,9.25,10.82,5.77,17-3.23,5.74-7.95,7.34-13.49,5.8l2,17.18-10.06-5.66-1.47-16.96-6.9,12.25-8.04-4.53,18.47-32.81Zm6.49,22.38c1.81,1.02,4.06-.17,5.13-2.08s.61-4.41-1.19-5.43l-6.23-3.51-4.16,7.38,6.46,3.63Z"/><path class="cls-9" d="M416.02,961.9l22.69,10.28-3.37,7.43-14.29-6.47-2.8,6.17,13.2,5.98-3.31,7.32-13.2-5.98-2.8,6.17,14.92,6.76-3.26,7.2-23.32-10.56,15.53-34.29Z"/><path class="cls-9" d="M447.14,975.76l8.15,2.76,2.57,22.35,15.68-16.17,8.03,2.72-12.08,35.67-8.68-2.94,5.38-15.88-13.57,14.42-1.43-.48-1.97-19.82-5.42,15.99-8.74-2.96,12.08-35.67Z"/><path class="cls-9" d="M511.8,993.26c11.61,2.44,18.02,12.83,15.71,23.82-2.31,10.99-12.36,17.92-23.97,15.49-11.67-2.45-18.02-12.83-15.71-23.82,2.31-10.99,12.3-17.94,23.97-15.49Zm-6.46,30.77c6.51,1.37,11.72-2.67,13.02-8.87,1.31-6.2-1.84-11.99-8.35-13.36-6.57-1.38-11.72,2.67-13.02,8.87-1.31,6.2,1.78,11.98,8.35,13.36Z"/><path class="cls-9" d="M536.76,999.34l9.55,.99,5.69,18.82,9.42-17.26,9.55,.98-20.54,37-1.12-.12-12.55-40.41Z"/><path class="cls-9" d="M591.79,1002.02l1.63,.02,18.12,39.07-9.92-.08-1.85-3.91-14.87-.13-1.86,3.87-9.91-.09,18.66-38.75Zm4.9,28.48l-4.25-9.58h-.13s-4.48,9.5-4.48,9.5l8.85,.08Z"/><path class="cls-9" d="M619.86,1002.8l9.19-.79,2.55,29.64,16.32-1.41,.68,7.88-25.52,2.2-3.23-37.53Z"/><path class="cls-9" d="M687.77,1020.33c.48,2.14,2.57,3.48,4.66,3.02,2.27-.51,3.39-2.11,2.97-4.01-.61-2.76-4.41-2.75-7.64-3.12-6.68-.83-10.75-2.95-12.15-9.26-1.44-6.49,2.93-13.13,9.86-14.67,8.15-1.81,13.17,2.54,15.17,9.23l-8.46,1.88c-.46-2.08-2.13-3.51-4.64-2.95-1.96,.44-3.6,2.02-3.07,4.41,.61,2.76,4.09,2.5,7.42,2.72,6.99,.5,10.87,3.5,12.15,9.26,1.44,6.49-2.87,13.11-9.8,14.65-8.03,1.78-13.76-2.6-15.23-9.22l8.76-1.95Z"/><path class="cls-9" d="M708.09,988.1l23.78-7.44,2.43,7.79-14.97,4.68,2.02,6.46,13.83-4.32,2.4,7.67-13.83,4.33,2.02,6.47,15.63-4.89,2.36,7.55-24.44,7.64-11.24-35.93Z"/><path class="cls-9" d="M740.49,977.58l14.57-5.99c7.49-3.08,14.22-.56,16.92,6,2.51,6.09,.84,10.78-3.8,14.19l14.73,9.07-10.68,4.39-14.23-9.35,5.35,13-8.53,3.51-14.33-34.82Zm21.59,8.76c1.92-.79,2.38-3.28,1.55-5.32-.84-2.03-3.09-3.21-5-2.42l-6.62,2.72,3.23,7.84,6.85-2.82Z"/><path class="cls-9" d="M772.97,963.99l8.5-4.48,15.17,12.51-1.73-19.59,8.5-4.47,3.42,42.18-1,.53-32.85-26.68Z"/><path class="cls-9" d="M809.79,943.77l7.83-4.88,19.9,31.96-7.83,4.88-19.91-31.96Z"/><path class="cls-9" d="M842.12,920.35c5.76-4.25,11.35-5.03,17.08-4.03l-1.52,8.61c-3.65-.5-7.34,.2-10.37,2.44-5.4,3.99-5.9,10.6-2.13,15.7,3.77,5.1,10.24,6.56,15.64,2.57,3.03-2.24,4.78-5.56,5.37-9.2l8.53,1.19c-.68,5.42-3.11,10.88-8.72,15.03-9.59,7.09-21.66,5.01-28.34-4.03-6.68-9.04-5.12-21.19,4.47-28.28Z"/><path class="cls-9" d="M862.19,906.15l18.52-16.67,5.46,6.06-11.66,10.5,4.54,5.04,10.78-9.7,5.37,5.97-10.78,9.7,4.54,5.04,12.18-10.96,5.29,5.88-19.04,17.13-25.19-27.99Z"/><path class="cls-9" d="M912.68,894.87c1.6,1.51,4.09,1.43,5.55-.13,1.59-1.69,1.62-3.65,.2-4.98-2.06-1.93-5.19,.21-8.07,1.72-5.99,3.07-10.54,3.62-15.25-.81-4.85-4.56-4.97-12.5-.11-17.67,5.72-6.08,12.31-5.31,17.73-.91l-5.93,6.31c-1.55-1.46-3.74-1.71-5.5,.17-1.38,1.46-1.84,3.7-.05,5.37,2.06,1.93,4.79-.24,7.67-1.93,6.06-3.52,10.95-3.23,15.26,.81,4.85,4.56,5.01,12.45,.15,17.63-5.63,5.99-12.84,5.59-17.78,.95l6.15-6.54Z"/></g></g><g><polygon class="cls-5" points="160.96 463.62 160.96 596.05 164.06 601.43 196 601.43 196 522.52 248.11 601.43 281.95 601.43 281.95 468.93 278.84 463.65 246.62 463.65 246.62 541.74 195.33 463.65 160.96 463.62"/><polygon class="cls-5" points="301.98 463.62 301.98 596.05 305.01 601.88 395.22 601.88 395.22 573.81 392.03 568.24 337.71 568.24 337.5 549.96 388.56 549.96 388.56 521.66 385.41 516.15 337.3 516.2 337.3 497.61 393.21 497.61 393.21 469.31 389.6 463.62 301.98 463.62"/><path class="cls-5" d="M479.24,463.13l-6.44-3.92-5.75,.43-64.44,136.41,3.76,5.84h34.47l6.24-13.87,51.71,.4,7,13.46h40.31l-66.87-138.75Zm-19.43,96.21l12.62-27.4,12.44,27.4h-25.06Z"/><polygon class="cls-5" points="530.88 463.62 530.88 492.87 533.73 498.15 560.27 498.15 560.64 596.05 564.39 601.88 596.29 601.88 596.29 498.15 626.22 498.15 626.22 469.31 623.31 463.62 530.88 463.62"/><g class="cls-3"><g><polygon class="cls-69" points="520.99 428.61 521.47 527.66 585.9 529.84 603.65 419.14 520.99 428.61"/><polygon class="cls-70" points="521.9 614.91 571.18 621.65 585.9 529.84 521.47 527.66 521.9 614.91"/><polygon class="cls-68" points="438.81 524.86 475.7 608.58 521.9 614.91 521.47 527.66 438.81 524.86"/><polygon class="cls-67" points="348.26 521.8 351.4 591.56 475.7 608.58 438.81 524.86 348.26 521.8"/><polygon class="cls-57" points="653.33 413.45 653.33 389.49 608.41 389.49 603.65 419.14 653.33 413.45"/><polygon class="cls-63" points="585.9 529.84 653.33 532.12 653.33 413.45 603.65 419.14 585.9 529.84"/><polygon class="cls-65" points="438.81 524.86 402.39 442.21 344.96 448.79 348.26 521.8 438.81 524.86"/><polygon class="cls-66" points="296.72 520.06 288.9 583 351.4 591.56 348.26 521.8 296.72 520.06"/><polygon class="cls-58" points="520.99 428.61 520.79 389.49 379.16 389.49 402.39 442.21 520.99 428.61"/><polygon class="cls-64" points="521.76 527.7 521.27 428.65 402.68 442.24 439.1 524.9 521.76 527.7"/><polygon class="cls-60" points="348.26 521.8 344.96 448.79 305.02 453.37 296.72 520.06 348.26 521.8"/><polygon class="cls-61" points="305.02 453.37 185.55 467.06 201.86 516.85 296.72 520.06 305.02 453.37"/><polygon class="cls-59" points="201.86 516.85 220.45 573.63 288.9 583 296.72 520.06 201.86 516.85"/><polygon class="cls-62" points="603.65 419.14 608.41 389.49 520.79 389.49 520.99 428.61 603.65 419.14"/><polygon class="cls-72" points="475.7 608.58 499.15 661.8 522.13 661.8 521.9 614.91 475.7 608.58"/><polygon class="cls-80" points="351.4 591.56 354.57 661.8 499.15 661.8 475.7 608.58 351.4 591.56"/><polygon class="cls-73" points="288.9 583 279.1 661.8 354.57 661.8 351.4 591.56 288.9 583"/><polygon class="cls-71" points="220.45 573.63 249.33 661.8 279.1 661.8 288.9 583 220.45 573.63"/><polygon class="cls-81" points="585.9 529.84 571.18 621.65 653.33 632.9 653.33 532.12 585.9 529.84"/><polygon class="cls-82" points="521.9 614.91 522.13 661.8 564.75 661.8 571.18 621.65 521.9 614.91"/><polygon class="cls-84" points="564.75 661.8 653.33 661.8 653.33 632.9 571.18 621.65 564.75 661.8"/><polygon class="cls-86" points="144.61 563.24 144.61 661.8 249.33 661.8 220.45 573.63 144.61 563.24"/><polygon class="cls-85" points="160.15 389.49 144.61 389.49 144.61 471.75 185.55 467.06 160.15 389.49"/><polygon class="cls-83" points="305.02 453.37 312.96 389.49 160.15 389.49 185.55 467.06 305.02 453.37"/><polygon class="cls-77" points="344.96 448.79 342.29 389.49 312.96 389.49 305.02 453.37 344.96 448.79"/><polygon class="cls-75" points="185.55 467.06 144.61 471.75 144.61 514.91 201.86 516.85 185.55 467.06"/><polygon class="cls-79" points="402.39 442.21 379.16 389.49 342.29 389.49 344.96 448.79 402.39 442.21"/><polygon class="cls-76" points="201.86 516.85 144.61 514.91 144.61 563.24 220.45 573.63 201.86 516.85"/></g></g></g><g><path class="cls-4" d="M640.23,694.77c-2.78,12.08-9.41,22.86-20.06,29.71-13.64,8.77-28.51,7.98-40.08,.21-2.29-2.24-4.38-4.8-6.22-7.66-11.53-17.95-8.4-40.04,10.61-52.25,10.66-6.85,23.22-8.39,35.36-5.91l6.99-28.59-5.64-4.61c-19.02-4.59-37.97-3.21-58.22,9.8-33.75,21.69-41.64,62.16-21.2,93.96,4.88,7.6,10.9,13.92,17.67,18.86,21.89,19.9,54.24,23.49,82.25,5.49,19.72-12.68,29.1-30.5,32.57-48.55l-5.64-4.61-28.38-5.86Z"/><path class="cls-4" d="M766.17,581.91l-5.64-4.61-30.65,4.9,12.54,78.41c2.67,16.68-3.7,23.69-15.37,25.56-4.12,.66-7.97,.37-11.29-1.19-2.43-3.15-4.24-7.63-5.22-13.76l-12.55-78.4-5.64-4.61-30.44,4.87,13.28,82.99c2.27,14.2,9.09,24.86,18.84,31.46,10.44,10.18,25.83,14.37,43.21,11.59,27.53-4.4,46.96-24.62,42.22-54.23l-13.27-82.99Z"/><path class="cls-4" d="M1017.94,652.4c-1.92-1.87-4.05-3.6-6.4-5.12l-42.84-27.85-69.07,106.23,5.64,4.61,46.91,30.5c20.18,13.12,40.62,7.27,50.17-7.43,7.14-10.97,7.37-21.41,1.46-36.33l.23-.36c11.12-.83,19.22-4.38,25.67-14.3,10.66-16.4,5.33-38.3-11.77-49.95Zm-45.73,74.35c-3.68,5.67-9.88,6.67-15.9,2.76l-9.69-6.3,11.66-17.93,13.53,8.8c2.88,3.84,2.96,8.74,.4,12.67Zm23.93-43.39c-3.8,5.84-10.69,7.15-16.71,3.24l-6.33-4.12,12.35-18.99,10.2,6.63c2.98,3.92,3.23,9.02,.49,13.23Z"/><path class="cls-4" d="M907.28,645.71c3.83-16.81-2.23-31.92-15.91-41.29-6.06-5.88-14.37-10.3-24.63-12.64l-51.68-11.78-28.15,123.55,5.64,4.61,30.27,6.9,9.1-39.97,16.76,42.54,5.64,4.61,37.89,8.63-22.9-53.52c19.36-.36,33.04-10.02,37.97-31.64Zm-35.29-11.36c-1.64,7.2-7.77,13.18-14.56,11.62l-17.94-4.08,5.61-24.64,23.47,5.35c.5,.11,.98,.27,1.45,.45,2.07,3.15,2.88,7.29,1.97,11.31Z"/></g><g class="cls-10"><polygon class="cls-74" points="565.04 695.34 740.72 681.63 749.24 628.63 563.95 563.47 562.47 563.9 565.04 695.34"/><polygon class="cls-78" points="418.5 604.81 301.51 638.06 326.3 713.98 436.95 705.34 418.5 604.81"/><polygon class="cls-48" points="436.95 705.34 326.3 713.98 361.57 822 459.28 827.01 436.95 705.34"/><polygon class="cls-47" points="562.47 563.9 562.45 562.94 400.36 505.95 418.5 604.81 562.47 563.9"/><polygon class="cls-50" points="400.36 505.95 239.94 449.53 301.51 638.06 418.5 604.81 400.36 505.95"/><polygon class="cls-49" points="361.57 822 401.38 943.9 481.81 949.79 459.28 827.01 361.57 822"/><polygon class="cls-53" points="715.23 840.13 695.09 965.4 909.5 981.1 899.15 849.56 715.23 840.13"/><polygon class="cls-51" points="567.72 832.57 570.14 956.26 695.09 965.4 715.23 840.13 567.72 832.57"/><polygon class="cls-52" points="459.28 827.01 481.81 949.79 570.14 956.26 567.72 832.57 459.28 827.01"/><polygon class="cls-55" points="565.04 695.34 567.72 832.57 715.23 840.13 740.72 681.63 565.04 695.34"/><polygon class="cls-56" points="885.53 676.56 899.15 849.56 1060.61 857.85 1070.1 741.46 885.53 676.56"/><polygon class="cls-54" points="740.72 681.63 715.23 840.13 899.15 849.56 885.53 676.56 871.02 671.45 740.72 681.63"/><polygon class="cls-41" points="749.24 628.63 740.72 681.63 871.02 671.45 749.24 628.63"/><polygon class="cls-39" points="562.47 563.9 418.5 604.81 436.95 705.34 565.04 695.34 562.47 563.9"/><polygon class="cls-40" points="436.95 705.34 459.28 827.01 567.72 832.57 565.04 695.34 436.95 705.34"/><polygon class="cls-37" points="871.02 671.45 885.04 670.36 869.79 476.56 769.09 505.18 749.24 628.63 871.02 671.45"/><polygon class="cls-38" points="1077.12 655.37 1096.96 412 869.79 476.56 885.04 670.36 1077.12 655.37"/><polygon class="cls-35" points="871.02 671.45 885.53 676.56 885.04 670.36 871.02 671.45"/><polygon class="cls-36" points="769.09 505.18 563.95 563.47 749.24 628.63 769.09 505.18"/><polygon class="cls-33" points="885.53 676.56 1070.1 741.46 1077.12 655.37 885.04 670.36 885.53 676.56"/><polygon class="cls-34" points="301.51 638.06 136.4 684.98 136.4 728.8 326.3 713.98 301.51 638.06"/><polygon class="cls-32" points="326.3 713.98 136.4 728.8 136.4 810.45 361.57 822 326.3 713.98"/><polygon class="cls-44" points="1060.61 857.85 1204.89 865.24 1204.89 788.86 1070.1 741.46 1060.61 857.85"/><polygon class="cls-46" points="361.57 822 136.4 810.45 136.4 924.5 401.38 943.9 361.57 822"/><polygon class="cls-45" points="1077.12 655.37 1204.89 645.39 1204.89 381.32 1096.96 412 1077.12 655.37"/><polygon class="cls-43" points="1070.1 741.46 1204.89 788.86 1204.89 645.39 1077.12 655.37 1070.1 741.46"/><polygon class="cls-42" points="239.94 449.53 136.4 413.12 136.4 684.98 301.51 638.06 239.94 449.53"/></g></svg>