<?xml version="1.0" encoding="UTF-8"?><svg id="Layer_1" xmlns="http://www.w3.org/2000/svg" xmlns:xlink="http://www.w3.org/1999/xlink" viewBox="0 0 1200 1200"><defs><style>.cls-1{fill:none;}.cls-2{fill:url(#linear-gradient);}.cls-3{clip-path:url(#clippath);}.cls-4{fill:#0059b2;}.cls-5{fill:#005938;}.cls-6{fill:#00832d;}.cls-7{fill:#fff;}.cls-8{fill:#ffb71b;}.cls-9{clip-path:url(#clippath-1);}.cls-10{fill:url(#radial-gradient-10);}.cls-11{fill:url(#radial-gradient-11);}.cls-12{fill:url(#radial-gradient-12);}.cls-13{fill:url(#radial-gradient-13);}.cls-14{fill:url(#radial-gradient-6);}.cls-15{fill:url(#radial-gradient-5);}.cls-16{fill:url(#radial-gradient-3);}.cls-17{fill:url(#radial-gradient-4);}.cls-18{fill:url(#radial-gradient-9);}.cls-19{fill:url(#radial-gradient-8);}.cls-20{fill:url(#radial-gradient-7);}.cls-21{fill:url(#radial-gradient-2);}.cls-22{fill:url(#linear-gradient-8);}.cls-23{fill:url(#linear-gradient-9);}.cls-24{fill:url(#linear-gradient-3);}.cls-25{fill:url(#linear-gradient-4);}.cls-26{fill:url(#linear-gradient-2);}.cls-27{fill:url(#linear-gradient-6);}.cls-28{fill:url(#linear-gradient-7);}.cls-29{fill:url(#linear-gradient-5);}.cls-30{fill:url(#radial-gradient);}.cls-31{fill:url(#linear-gradient-59);}.cls-32{fill:url(#linear-gradient-57);}.cls-33{fill:url(#linear-gradient-58);}.cls-34{fill:url(#linear-gradient-55);}.cls-35{fill:url(#linear-gradient-56);}.cls-36{fill:url(#linear-gradient-53);}.cls-37{fill:url(#linear-gradient-54);}.cls-38{fill:url(#linear-gradient-51);}.cls-39{fill:url(#linear-gradient-52);}.cls-40{fill:url(#linear-gradient-50);}.cls-41{fill:url(#linear-gradient-64);}.cls-42{fill:url(#linear-gradient-63);}.cls-43{fill:url(#linear-gradient-60);}.cls-44{fill:url(#linear-gradient-62);}.cls-45{fill:url(#linear-gradient-61);}.cls-46{fill:url(#linear-gradient-41);}.cls-47{fill:url(#linear-gradient-40);}.cls-48{fill:url(#linear-gradient-43);}.cls-49{fill:url(#linear-gradient-42);}.cls-50{fill:url(#linear-gradient-45);}.cls-51{fill:url(#linear-gradient-46);}.cls-52{fill:url(#linear-gradient-44);}.cls-53{fill:url(#linear-gradient-49);}.cls-54{fill:url(#linear-gradient-47);}.cls-55{fill:url(#linear-gradient-48);}.cls-56{fill:url(#linear-gradient-14);}.cls-57{fill:url(#linear-gradient-18);}.cls-58{fill:url(#linear-gradient-22);}.cls-59{fill:url(#linear-gradient-20);}.cls-60{fill:url(#linear-gradient-21);}.cls-61{fill:url(#linear-gradient-23);}.cls-62{fill:url(#linear-gradient-15);}.cls-63{fill:url(#linear-gradient-19);}.cls-64{fill:url(#linear-gradient-16);}.cls-65{fill:url(#linear-gradient-17);}.cls-66{fill:url(#linear-gradient-13);}.cls-67{fill:url(#linear-gradient-12);}.cls-68{fill:url(#linear-gradient-10);}.cls-69{fill:url(#linear-gradient-11);}.cls-70{fill:url(#linear-gradient-27);}.cls-71{fill:url(#linear-gradient-24);}.cls-72{fill:url(#linear-gradient-26);}.cls-73{fill:url(#linear-gradient-38);}.cls-74{fill:url(#linear-gradient-35);}.cls-75{fill:url(#linear-gradient-37);}.cls-76{fill:url(#linear-gradient-34);}.cls-77{fill:url(#linear-gradient-39);}.cls-78{fill:url(#linear-gradient-36);}.cls-79{fill:url(#linear-gradient-25);}.cls-80{fill:url(#linear-gradient-28);}.cls-81{fill:url(#linear-gradient-29);}.cls-82{fill:url(#linear-gradient-33);}.cls-83{fill:url(#linear-gradient-30);}.cls-84{fill:url(#linear-gradient-32);}.cls-85{fill:url(#linear-gradient-31);}</style><linearGradient id="linear-gradient" x1="414.11" y1="595.89" x2="167.16" y2="348.93" gradientTransform="translate(200.54 308.53) rotate(-14.98)" gradientUnits="userSpaceOnUse"><stop offset="0" stop-color="#00d9ff"/><stop offset="1" stop-color="#217eff"/></linearGradient><linearGradient id="linear-gradient-2" x1="294.41" y1="291.63" x2="278.86" y2="276.08" gradientTransform="translate(200.54 308.53) rotate(-14.98)" xlink:href="#linear-gradient"/><linearGradient id="linear-gradient-3" x1="427.21" y1="347.1" x2="411.66" y2="331.55" gradientTransform="translate(200.54 308.53) rotate(-14.98)" xlink:href="#linear-gradient"/><linearGradient id="linear-gradient-4" x1="481.89" y1="480.23" x2="466.34" y2="464.69" gradientTransform="translate(200.54 308.53) rotate(-14.98)" xlink:href="#linear-gradient"/><linearGradient id="linear-gradient-5" x1="426.42" y1="613.03" x2="410.87" y2="597.48" gradientTransform="translate(200.54 308.53) rotate(-14.98)" xlink:href="#linear-gradient"/><linearGradient id="linear-gradient-6" x1="293.28" y1="667.71" x2="277.74" y2="652.17" gradientTransform="translate(200.54 308.53) rotate(-14.98)" xlink:href="#linear-gradient"/><linearGradient id="linear-gradient-7" x1="160.49" y1="612.24" x2="144.94" y2="596.69" gradientTransform="translate(200.54 308.53) rotate(-14.98)" xlink:href="#linear-gradient"/><linearGradient id="linear-gradient-8" x1="105.8" y1="479.11" x2="90.26" y2="463.57" gradientTransform="translate(200.54 308.53) rotate(-14.98)" xlink:href="#linear-gradient"/><linearGradient id="linear-gradient-9" x1="161.28" y1="346.31" x2="145.73" y2="330.76" gradientTransform="translate(200.54 308.53) rotate(-14.98)" xlink:href="#linear-gradient"/><radialGradient id="radial-gradient" cx="306.9" cy="494.8" fx="306.9" fy="494.8" r="143.56" gradientTransform="translate(272.51 113.54) rotate(-15.88)" gradientUnits="userSpaceOnUse"><stop offset="0" stop-color="#ff8d00"/><stop offset="1" stop-color="#ff4b00"/></radialGradient><radialGradient id="radial-gradient-2" cx="250.18" cy="641.05" fx="250.18" fy="641.05" r=".49" xlink:href="#radial-gradient"/><radialGradient id="radial-gradient-3" cx="255.14" cy="419.85" fx="255.14" fy="419.85" r=".19" xlink:href="#radial-gradient"/><radialGradient id="radial-gradient-4" cx="459.39" cy="1084.05" fx="459.39" fy="1084.05" r="96.45" gradientTransform="translate(11.83 -321.19) rotate(.68) scale(1 .68) skewX(1.14)" gradientUnits="userSpaceOnUse"><stop offset="0" stop-color="#1db135"/><stop offset="1" stop-color="#006a33"/></radialGradient><radialGradient id="radial-gradient-5" cx="495.47" cy="1061.04" fx="495.47" fy="1061.04" r="93.07" xlink:href="#radial-gradient-4"/><radialGradient id="radial-gradient-6" cx="395.66" cy="2948.51" fx="395.66" fy="2948.51" r="93.07" gradientTransform="translate(93.59 -632.99) rotate(1.19) scale(.81 .36) skewX(1.71)" xlink:href="#radial-gradient-4"/><radialGradient id="radial-gradient-7" cx="547.67" cy="1070.89" fx="547.67" fy="1070.89" r="87.51" xlink:href="#radial-gradient-4"/><radialGradient id="radial-gradient-8" cx="535.5" cy="1070.13" fx="535.5" fy="1070.13" r="96.45" xlink:href="#radial-gradient-4"/><radialGradient id="radial-gradient-9" cx="604.93" cy="1128.03" fx="604.93" fy="1128.03" r="96.45" xlink:href="#radial-gradient-4"/><radialGradient id="radial-gradient-10" cx="577.27" cy="1065.16" fx="577.27" fy="1065.16" r="93.07" xlink:href="#radial-gradient-4"/><radialGradient id="radial-gradient-11" cx="647.55" cy="511.73" fx="647.55" fy="511.73" r="93.07" gradientTransform="matrix(1, 0, 0, 1, 0, 0)" xlink:href="#radial-gradient-4"/><radialGradient id="radial-gradient-12" cx="694.25" cy="498.56" fx="694.25" fy="498.56" r="87.51" gradientTransform="matrix(1, 0, 0, 1, 0, 0)" xlink:href="#radial-gradient-4"/><radialGradient id="radial-gradient-13" cx="608.71" cy="520.82" fx="608.71" fy="520.82" r="96.45" gradientTransform="matrix(1, 0, 0, 1, 0, 0)" xlink:href="#radial-gradient-4"/><clipPath id="clippath"><path class="cls-1" d="M207.64,481.59h30.57l45.96,70.22v-70.22h28.8v118.34h-30.18l-46.15-70.41v70.41h-28.99v-118.34Zm126.03,0h78.3v25.64h-49.31v21.3h45.56v25.25h-45.56v21.3h51.48v24.85h-80.47v-118.34Zm147.53-3.94h5.13l57.99,122.29h-31.16l-5.91-12.23h-46.75l-5.72,12.23h-31.16l57.59-122.29Zm16.17,89.35l-13.61-29.98h-.4l-13.81,29.98h27.81Zm67.45-59.76h-26.43v-25.64h82.45v25.64h-26.82v92.7h-29.19v-92.7Z"/></clipPath><linearGradient id="linear-gradient-10" x1="522.47" y1="531.46" x2="607.68" y2="446.25" gradientUnits="userSpaceOnUse"><stop offset=".12" stop-color="#1db135"/><stop offset=".18" stop-color="#19a934"/><stop offset=".49" stop-color="#0b8633"/><stop offset=".75" stop-color="#037133"/><stop offset=".92" stop-color="#006a33"/></linearGradient><linearGradient id="linear-gradient-11" x1="523.14" y1="609.72" x2="589.75" y2="543.11" xlink:href="#linear-gradient-10"/><linearGradient id="linear-gradient-12" x1="473.71" y1="595.93" x2="530.32" y2="539.31" xlink:href="#linear-gradient-10"/><linearGradient id="linear-gradient-13" x1="393.12" y1="611.21" x2="461.98" y2="542.35" xlink:href="#linear-gradient-10"/><linearGradient id="linear-gradient-14" x1="607.53" y1="446.1" x2="642.97" y2="410.66" xlink:href="#linear-gradient-10"/><linearGradient id="linear-gradient-15" x1="582.21" y1="535.57" x2="664.34" y2="453.44" xlink:href="#linear-gradient-10"/><linearGradient id="linear-gradient-16" x1="378.89" y1="537.45" x2="438.65" y2="477.7" xlink:href="#linear-gradient-10"/><linearGradient id="linear-gradient-17" x1="325.54" y1="591.84" x2="379.41" y2="537.97" xlink:href="#linear-gradient-10"/><linearGradient id="linear-gradient-18" x1="429.9" y1="468.94" x2="506.36" y2="392.48" xlink:href="#linear-gradient-10"/><linearGradient id="linear-gradient-19" x1="448.69" y1="528.84" x2="528.42" y2="449.12" xlink:href="#linear-gradient-10"/><linearGradient id="linear-gradient-20" x1="327.83" y1="530.88" x2="381.23" y2="477.48" xlink:href="#linear-gradient-10"/><linearGradient id="linear-gradient-21" x1="251.34" y1="536.3" x2="325.8" y2="461.84" xlink:href="#linear-gradient-10"/><linearGradient id="linear-gradient-22" x1="261.36" y1="580.44" x2="319.37" y2="522.43" xlink:href="#linear-gradient-10"/><linearGradient id="linear-gradient-23" x1="536.96" y1="457.87" x2="593.5" y2="401.33" xlink:href="#linear-gradient-10"/><linearGradient id="linear-gradient-24" x1="497.88" y1="646.7" x2="529" y2="615.58" xlink:href="#linear-gradient-10"/><linearGradient id="linear-gradient-25" x1="396.57" y1="674.59" x2="474.47" y2="596.69" xlink:href="#linear-gradient-10"/><linearGradient id="linear-gradient-26" x1="314.67" y1="660.14" x2="378.36" y2="596.45" xlink:href="#linear-gradient-10"/><linearGradient id="linear-gradient-27" x1="267.12" y1="639.19" x2="320.01" y2="586.3" xlink:href="#linear-gradient-10"/><linearGradient id="linear-gradient-28" x1="577.89" y1="626.46" x2="654.6" y2="549.75" xlink:href="#linear-gradient-10"/><linearGradient id="linear-gradient-29" x1="529.41" y1="657.68" x2="569.26" y2="617.83" xlink:href="#linear-gradient-10"/><linearGradient id="linear-gradient-30" x1="580.76" y1="670.95" x2="633.25" y2="618.46" xlink:href="#linear-gradient-10"/><linearGradient id="linear-gradient-31" x1="194.41" y1="660.07" x2="267.7" y2="586.78" xlink:href="#linear-gradient-10"/><linearGradient id="linear-gradient-32" x1="182.76" y1="478.57" x2="226.45" y2="434.88" xlink:href="#linear-gradient-10"/><linearGradient id="linear-gradient-33" x1="230.25" y1="485.29" x2="321.84" y2="393.7" xlink:href="#linear-gradient-10"/><linearGradient id="linear-gradient-34" x1="331.79" y1="467.83" x2="376.98" y2="422.64" xlink:href="#linear-gradient-10"/><linearGradient id="linear-gradient-35" x1="196.61" y1="531" x2="236.29" y2="491.33" xlink:href="#linear-gradient-10"/><linearGradient id="linear-gradient-36" x1="369.6" y1="465.85" x2="411.37" y2="424.07" xlink:href="#linear-gradient-10"/><linearGradient id="linear-gradient-37" x1="201.5" y1="579.08" x2="247.81" y2="532.77" xlink:href="#linear-gradient-10"/><clipPath id="clippath-1"><path class="cls-1" d="M566.94,635.15c18.1-11.63,35.03-12.86,52.03-8.76l-6.24,25.55c-10.85-2.22-22.08-.84-31.6,5.28-16.99,10.92-19.78,30.66-9.48,46.7,10.31,16.03,29.43,21.7,46.42,10.78,9.53-6.12,15.45-15.76,17.93-26.55l25.36,5.24c-3.1,16.13-11.48,32.06-29.11,43.39-30.16,19.38-65.99,10.77-84.26-17.65-18.27-28.42-11.22-64.58,18.95-83.97Zm88.42-37.88l27.2-4.35,11.21,70.07c2.38,14.91,10.3,18.99,19.8,17.47,10.44-1.67,16.13-7.93,13.74-22.84l-11.21-70.07,27.39-4.38,11.86,74.16c4.23,26.46-13.13,44.53-37.73,48.46-25.53,4.08-46.3-8.64-50.41-34.36l-11.87-74.17Zm136.87-11.69l46.18,10.52c23.74,5.41,35.93,23.28,31.19,44.08-4.4,19.32-16.63,27.96-33.93,28.27l20.46,47.83-33.86-7.72-18.77-47.63-9.39,41.22-27.05-6.16,25.16-110.41Zm37.86,58.96c6.07,1.39,11.55-3.95,13.02-10.39,1.47-6.44-2.02-13.24-8.09-14.62l-20.98-4.78-5.66,24.84,21.71,4.94Zm99.44-23.73l38.28,24.89c15.82,10.29,20.87,30.23,11.2,45.1-5.76,8.86-13,12.03-22.94,12.78l-.2,.32c5.28,13.34,5.08,22.66-1.3,32.47-8.54,13.13-26.8,18.37-44.84,6.64l-41.93-27.26,61.73-94.93Zm-11.07,98.38c5.38,3.5,10.92,2.6,14.21-2.47,2.99-4.59,1.97-10.65-3.41-14.15l-14.08-9.16-10.8,16.61,14.08,9.16Zm20.66-38.34c5.38,3.5,11.54,2.32,14.94-2.9,3.19-4.9,1.86-11.17-3.52-14.67l-11.08-7.2-11.42,17.56,11.08,7.2Z"/></clipPath><linearGradient id="linear-gradient-38" x1="575" y1="694.91" x2="687.12" y2="582.8" gradientUnits="userSpaceOnUse"><stop offset=".19" stop-color="#00d8ff"/><stop offset=".33" stop-color="#06c9ff"/><stop offset=".59" stop-color="#16a3ff"/><stop offset=".95" stop-color="#3167ff"/></linearGradient><linearGradient id="linear-gradient-39" x1="355.69" y1="705.62" x2="445.67" y2="615.64" xlink:href="#linear-gradient-38"/><linearGradient id="linear-gradient-40" x1="377.86" y1="792.79" x2="463.67" y2="706.98" xlink:href="#linear-gradient-38"/><linearGradient id="linear-gradient-41" x1="434.68" y1="604.65" x2="517.71" y2="521.62" xlink:href="#linear-gradient-38"/><linearGradient id="linear-gradient-42" x1="296.08" y1="600.31" x2="399.29" y2="497.11" xlink:href="#linear-gradient-38"/><linearGradient id="linear-gradient-43" x1="405.65" y1="893.96" x2="483.76" y2="815.85" xlink:href="#linear-gradient-38"/><linearGradient id="linear-gradient-44" x1="712.9" y1="957.94" x2="855.84" y2="815" xlink:href="#linear-gradient-38"/><linearGradient id="linear-gradient-45" x1="575.1" y1="923.63" x2="691.82" y2="806.91" xlink:href="#linear-gradient-38"/><linearGradient id="linear-gradient-46" x1="483.09" y1="904.78" x2="573.85" y2="814.01" xlink:href="#linear-gradient-38"/><linearGradient id="linear-gradient-47" x1="574.54" y1="814.69" x2="719.29" y2="669.95" xlink:href="#linear-gradient-38"/><linearGradient id="linear-gradient-48" x1="863.57" y1="822.72" x2="988.26" y2="698.03" xlink:href="#linear-gradient-38"/><linearGradient id="linear-gradient-49" x1="716.46" y1="831.54" x2="865.64" y2="682.36" xlink:href="#linear-gradient-38"/><linearGradient id="linear-gradient-50" x1="742.66" y1="693.32" x2="805.42" y2="630.55" xlink:href="#linear-gradient-38"/><linearGradient id="linear-gradient-51" x1="454.09" y1="697.41" x2="573.38" y2="578.12" xlink:href="#linear-gradient-38"/><linearGradient id="linear-gradient-52" x1="467.54" y1="799.63" x2="573.63" y2="693.55" xlink:href="#linear-gradient-38"/><linearGradient id="linear-gradient-53" x1="749.89" y1="645.57" x2="871.7" y2="523.75" xlink:href="#linear-gradient-38"/><linearGradient id="linear-gradient-54" x1="847.59" y1="659.2" x2="1057.73" y2="449.06" xlink:href="#linear-gradient-38"/><linearGradient id="linear-gradient-55" x1="846.58" y1="671.71" x2="853.34" y2="664.95" xlink:href="#linear-gradient-38"/><linearGradient id="linear-gradient-56" x1="623.74" y1="626.78" x2="741.45" y2="509.07" xlink:href="#linear-gradient-38"/><linearGradient id="linear-gradient-57" x1="909.41" y1="726.13" x2="1004.49" y2="631.05" xlink:href="#linear-gradient-38"/><linearGradient id="linear-gradient-58" x1="215.02" y1="747.9" x2="329.34" y2="633.57" xlink:href="#linear-gradient-38"/><linearGradient id="linear-gradient-59" x1="220.34" y1="826.18" x2="348.3" y2="698.22" xlink:href="#linear-gradient-38"/><linearGradient id="linear-gradient-60" x1="1021.64" y1="843.9" x2="1116.93" y2="748.61" xlink:href="#linear-gradient-38"/><linearGradient id="linear-gradient-61" x1="223.75" y1="931.52" x2="370.17" y2="785.1" xlink:href="#linear-gradient-38"/><linearGradient id="linear-gradient-62" x1="1002.76" y1="629.32" x2="1182.31" y2="449.78" xlink:href="#linear-gradient-38"/><linearGradient id="linear-gradient-63" x1="1043.15" y1="752.92" x2="1146.31" y2="649.77" xlink:href="#linear-gradient-38"/><linearGradient id="linear-gradient-64" x1="151.36" y1="645.08" x2="302.83" y2="493.6" xlink:href="#linear-gradient-38"/></defs><circle class="cls-8" cx="600" cy="600" r="324.14"/><g><path class="cls-2" d="M755.56,764.06l-15.66,4.19s-.01-.02-.02-.02l-14.08-8.13,10.77-2.88c1.78-.48,2.84-2.31,2.36-4.09-.48-1.78-2.31-2.84-4.09-2.36l-17.23,4.61-42.85-24.76,12.6-3.37c1.78-.48,2.84-2.31,2.36-4.09-.48-1.78-2.31-2.84-4.09-2.36l-19.06,5.1-49.31-28.49,96.46,14.63,10.47,14.22c.84,1.14,2.26,1.59,3.55,1.25,.39-.1,.77-.28,1.12-.54,1.49-1.1,1.81-3.19,.71-4.67l-6.51-8.84,24.34,3.69c.08-2.25,.52-4.48,1.33-6.56l-24.36-3.69,8.48-6.25c1.49-1.1,1.8-3.19,.71-4.67-1.1-1.49-3.18-1.8-4.67-.71l-13.87,10.21-99.8-15.13,61.59-16.48,13.46,7.78c.8,.46,1.71,.56,2.54,.34s1.57-.76,2.03-1.56c.92-1.6,.38-3.64-1.22-4.56l-7.68-4.44,45.22-12.1,15.1,8.72c.8,.46,1.71,.56,2.54,.34s1.57-.76,2.03-1.56c.92-1.6,.38-3.64-1.22-4.56l-9.32-5.38,13.46-3.6,15.66,9.05c.8,.46,1.71,.56,2.54,.34,.82-.22,1.57-.76,2.03-1.56,.92-1.6,.38-3.64-1.22-4.57l-13.41-7.75,7.75-13.41c.92-1.6,.38-3.64-1.22-4.57-1.6-.92-3.64-.38-4.56,1.22l-8.4,14.55-14.33,3.84,5.38-9.32c.92-1.6,.38-3.64-1.22-4.57-1.6-.92-3.64-.38-4.57,1.22l-8.73,15.11-47.81,12.79,6.33-10.95c.92-1.6,.38-3.64-1.22-4.57-1.6-.92-3.64-.38-4.57,1.22l-9.67,16.74-53.33,14.27,76.61-56.44,17.45,2.65c.47,.07,.93,.04,1.36-.08,1.24-.33,2.24-1.37,2.44-2.73,.28-1.82-.98-3.53-2.81-3.8l-10.84-1.64,27.62-20.35,17.55,2.67c.47,.07,.93,.04,1.37-.08,1.24-.33,2.24-1.37,2.44-2.72,.28-1.83-.98-3.53-2.8-3.81l-15.31-2.32,2.32-15.31c.28-1.82-.98-3.53-2.81-3.8-1.81-.28-3.53,.98-3.8,2.81l-2.57,16.94-27.74,20.44,1.58-10.44c.28-1.82-.98-3.53-2.81-3.8-1.82-.28-3.53,.98-3.8,2.81l-2.58,17.05-83.15,61.25,32.93-57,15.94-4.26c1.78-.48,2.84-2.31,2.36-4.09-.48-1.78-2.31-2.84-4.09-2.36l-9.48,2.54,23.42-40.54,17.76-4.75c1.78-.48,2.84-2.31,2.36-4.09-.48-1.78-2.31-2.84-4.09-2.36l-11.31,3.03,7.47-12.92,16.97-4.54c1.78-.48,2.84-2.31,2.36-4.09-.48-1.78-2.31-2.84-4.09-2.36l-14.96,4-4-14.96c-.48-1.78-2.31-2.84-4.09-2.36-1.78,.48-2.84,2.31-2.36,4.09l4.48,16.72-6.89,11.92-2.54-9.48c-.48-1.78-2.31-2.84-4.09-2.36-1.78,.48-2.84,2.31-2.36,4.09l4.26,15.94-24.76,42.85-3.02-11.3c-.48-1.78-2.31-2.84-4.09-2.36-1.78,.48-2.84,2.31-2.36,4.09l4.75,17.76-27.76,48.04,14.01-92.4,14.93-11c1.49-1.1,1.81-3.19,.71-4.67-1.1-1.49-3.18-1.81-4.67-.71l-9.55,7.04,5.23-34.51,13.99-10.3c1.49-1.1,1.81-3.19,.71-4.67-1.09-1.48-3.18-1.8-4.67-.71l-12.47,9.18-9.19-12.47c-1.09-1.48-3.18-1.81-4.67-.71-1.49,1.1-1.81,3.19-.71,4.67l10.39,14.1-4.98,32.86-5.73-7.77c-1.1-1.49-3.18-1.8-4.67-.71-1.49,1.1-1.8,3.19-.71,4.67l9.69,13.15-15.59,102.85-16.93-63.25,8.73-15.11c.92-1.6,.38-3.64-1.22-4.56-1.6-.92-3.64-.38-4.57,1.22l-5.38,9.32-12.45-46.52,8.73-15.11c.92-1.6,.38-3.64-1.22-4.56-1.6-.92-3.64-.38-4.56,1.22l-5.38,9.32-3.89-14.54,8.73-15.11c.92-1.6,.38-3.64-1.22-4.57-1.6-.92-3.64-.38-4.56,1.22l-7.75,13.41-13.41-7.75c-1.59-.93-3.64-.38-4.56,1.22-.92,1.6-.38,3.64,1.22,4.57l15.1,8.73,3.89,14.54-9.31-5.38c-1.59-.92-3.64-.38-4.57,1.22-.92,1.6-.38,3.64,1.22,4.57l15.1,8.73,12.45,46.52-9.31-5.39c-1.59-.92-3.64-.38-4.57,1.22-.92,1.6-.38,3.64,1.22,4.57l15.1,8.73,14.9,55.68-57.03-77.41,2.69-17.7c.28-1.83-.98-3.53-2.8-3.81-1.83-.26-3.53,.98-3.81,2.8l-1.68,11.1-19.71-26.75,2.63-17.31c.28-1.83-.98-3.53-2.8-3.81-1.83-.25-3.53,.98-3.81,2.8l-2.32,15.31-15.31-2.32c-1.81-.28-3.53,.98-3.8,2.81-.28,1.82,.98,3.53,2.81,3.8l17.18,2.6s0,0,0,0l19.37,26.29-10.18-1.54c-1.81-.26-3.53,.98-3.8,2.81-.28,1.82,.98,3.53,2.81,3.8l16.79,2.54,60.91,82.68-54.48-31.48-4.61-17.23c-.48-1.78-2.31-2.84-4.09-2.36-1.78,.48-2.84,2.31-2.36,4.09l2.88,10.77-40.54-23.42-5.1-19.06c-.48-1.78-2.31-2.84-4.09-2.36-1.78,.48-2.84,2.31-2.36,4.09l3.37,12.6-9.92-5.73-4.51-16.86c-.48-1.78-2.31-2.84-4.09-2.36-1.78,.48-2.84,2.31-2.36,4.09l4,14.96-14.96,4c-1.78,.48-2.84,2.31-2.36,4.09s2.31,2.84,4.09,2.36l16.85-4.51,7.13,4.12-8.19,2.19c-1.78,.48-2.84,2.31-2.36,4.09,.48,1.78,2.31,2.84,4.09,2.36l14.65-3.92,42.85,24.76-10.02,2.68c-1.78,.48-2.84,2.31-2.36,4.09,.48,1.78,2.31,2.84,4.09,2.36l16.47-4.41,52.3,30.22-98.88-14.99-10.52-14.28c-1.1-1.49-3.18-1.8-4.67-.71-1.49,1.1-1.81,3.19-.71,4.67l6.56,8.9-25.66-3.89-10.51-14.26c-1.1-1.49-3.18-1.8-4.67-.71-1.49,1.1-1.81,3.19-.71,4.67l9.19,12.46-12.47,9.19c-1.49,1.1-1.8,3.19-.71,4.67,.84,1.14,2.26,1.59,3.55,1.25,.39-.1,.77-.28,1.12-.54l13.83-10.19s.03,.01,.04,.01l25.59,3.88-8.42,6.21c-1.49,1.1-1.81,3.19-.71,4.67,.84,1.14,2.26,1.59,3.55,1.25,.39-.1,.77-.28,1.12-.54l13.81-10.17,99.6,15.1-57.63,15.42-15.1-8.73c-1.59-.92-3.64-.38-4.56,1.22-.92,1.6-.38,3.64,1.22,4.56l9.32,5.39-45.23,12.1-16.74-9.67c-1.6-.92-3.64-.38-4.56,1.22-.92,1.6-.38,3.64,1.22,4.56l10.95,6.33-11.42,3.06-15.92-9.2c-1.6-.92-3.64-.38-4.56,1.22-.92,1.6-.38,3.64,1.22,4.57l13.41,7.75-7.75,13.41c-.92,1.6-.38,3.64,1.22,4.56,.8,.46,1.71,.56,2.54,.33,.83-.22,1.57-.76,2.03-1.56l8.38-14.5c.29,0,.58,.02,.87-.05l9.14-2.45-4.44,7.68c-.92,1.6-.38,3.64,1.22,4.57,.8,.46,1.71,.56,2.54,.34,.83-.22,1.57-.76,2.03-1.56l7.78-13.46,47.81-12.79-5.38,9.31c-.92,1.6-.38,3.64,1.22,4.57,.8,.46,1.71,.56,2.54,.34,.83-.22,1.57-.76,2.03-1.56l8.73-15.1,60.04-16.07-81.65,60.15-17.59-2.67c-1.81-.28-3.53,.98-3.8,2.81-.28,1.82,.98,3.53,2.81,3.8l10.98,1.66-22.1,16.28-18.51-2.81c-1.81-.28-3.52,.97-3.8,2.81-.28,1.82,.98,3.53,2.81,3.8l15.31,2.32-2.33,15.31c-.28,1.83,.98,3.53,2.8,3.81,.47,.07,.93,.04,1.37-.08,1.24-.33,2.24-1.37,2.44-2.73l2.46-16.26c.32-.11,.64-.24,.93-.45l22.19-16.35-1.56,10.3c-.28,1.82,.98,3.53,2.81,3.8,.47,.07,.93,.04,1.36-.08,1.24-.33,2.24-1.37,2.44-2.73l2.56-16.9,78.46-57.8-28.81,49.87-15.94,4.27c-1.78,.48-2.84,2.31-2.36,4.09,.48,1.78,2.31,2.84,4.09,2.36l9.48-2.54-23.42,40.54-17.76,4.75c-1.78,.48-2.84,2.31-2.36,4.09,.48,1.78,2.31,2.84,4.09,2.36l11.31-3.03-4.93,8.53-18.26,4.88c-1.78,.48-2.84,2.31-2.36,4.09,.48,1.78,2.31,2.84,4.09,2.36l14.96-4,4,14.96c.48,1.78,2.31,2.84,4.09,2.36s2.84-2.31,2.36-4.09l-4.14-15.48s.07-.06,.09-.1l5.21-9.01,2.54,9.48c.48,1.78,2.31,2.84,4.09,2.36,1.78-.48,2.84-2.31,2.36-4.09l-4.27-15.94,24.76-42.85,3.03,11.31c.48,1.78,2.31,2.84,4.09,2.36s2.84-2.31,2.36-4.09l-4.75-17.76,30.95-53.57-15.45,101.9-14.19,10.46c-1.49,1.1-1.81,3.19-.71,4.67,1.1,1.49,3.19,1.8,4.67,.71l8.81-6.49-3.89,25.64-15.37,11.32c-1.49,1.1-1.8,3.19-.71,4.67,1.1,1.49,3.19,1.81,4.67,.71l12.47-9.18,9.19,12.46c.84,1.14,2.26,1.59,3.55,1.25,.39-.1,.77-.28,1.12-.54,1.49-1.1,1.8-3.19,.71-4.67l-9.38-12.73s.02-.05,.03-.08l4.18-27.57,6.27,8.51c.84,1.14,2.26,1.59,3.55,1.25,.39-.1,.77-.28,1.12-.54,1.49-1.1,1.81-3.19,.71-4.67l-10.24-13.89,14.65-96.61,14.98,55.97-7.78,13.47c-.92,1.6-.38,3.64,1.22,4.57,.8,.46,1.71,.56,2.54,.33,.83-.22,1.57-.76,2.03-1.56l4.44-7.68,12.1,45.23-8.73,15.1c-.92,1.6-.38,3.64,1.22,4.57s3.64,.38,4.57-1.22l5.38-9.31,2.72,10.17-8.72,15.1c-.92,1.6-.38,3.64,1.22,4.56,.8,.46,1.71,.56,2.54,.33,.83-.22,1.57-.76,2.03-1.56l7.75-13.41,13.41,7.75c1.6,.92,3.64,.38,4.57-1.22,.92-1.6,.38-3.64-1.22-4.57l-15.11-8.73-2.72-10.17,9.32,5.38c.8,.46,1.71,.56,2.54,.34s1.57-.76,2.03-1.56c.92-1.6,.38-3.64-1.22-4.57l-15.11-8.72-12.79-47.81,10.95,6.33c1.6,.92,3.64,.38,4.57-1.22,.92-1.6,.38-3.64-1.22-4.57l-16.74-9.67-15.44-57.69,59.47,80.72-2.69,17.76c-.28,1.82,.98,3.53,2.81,3.8,.47,.07,.93,.04,1.36-.08,1.24-.33,2.24-1.37,2.44-2.73l1.69-11.15,17.71,24.04-2.61,17.18c-.28,1.83,.98,3.53,2.8,3.81,.47,.07,.93,.04,1.37-.08,1.24-.33,2.24-1.37,2.44-2.73l2.32-15.31,15.31,2.32c1.82,.29,3.53-.98,3.8-2.81,.28-1.82-.98-3.53-2.81-3.8l-17.31-2.62-17.22-23.37,10.13,1.54c1.84,.27,3.53-.98,3.81-2.8,.28-1.83-.98-3.53-2.8-3.81l-16.74-2.54-58.42-79.29,52.38,30.26,3.92,14.65c.48,1.78,2.31,2.84,4.09,2.36,1.78-.48,2.84-2.31,2.36-4.09l-2.19-8.19,40.54,23.42,4.41,16.47c.48,1.78,2.31,2.84,4.09,2.36s2.84-2.31,2.36-4.09l-2.68-10.02,12.11,6.99,4.83,18.05c.48,1.78,2.31,2.84,4.09,2.36,1.78-.48,2.84-2.31,2.36-4.09l-4-14.96,14.96-4c1.78-.48,2.84-2.31,2.36-4.09-.48-1.78-2.31-2.84-4.09-2.36Z"/><path class="cls-26" d="M553.64,519.27c5.86-1.57,9.35-7.61,7.78-13.47-1.57-5.86-7.61-9.35-13.47-7.78-5.86,1.57-9.35,7.61-7.78,13.46,1.57,5.86,7.61,9.35,13.46,7.78Zm-3.96-14.79c2.3-.62,4.67,.75,5.28,3.05,.61,2.3-.76,4.67-3.06,5.28s-4.67-.76-5.28-3.05,.76-4.67,3.05-5.28Z"/><path class="cls-24" d="M696.27,538.53c2.72-.73,5.16-2.49,6.68-5.12,3.03-5.25,1.23-11.99-4.02-15.02-5.25-3.04-11.99-1.23-15.02,4.02-3.03,5.25-1.23,11.99,4.02,15.02,2.63,1.52,5.62,1.82,8.34,1.1Zm-6.58-12.78c.59-1.03,1.55-1.72,2.62-2.01,1.07-.29,2.24-.16,3.27,.43,2.06,1.19,2.76,3.83,1.58,5.89-1.19,2.06-3.84,2.77-5.89,1.58-2.06-1.19-2.76-3.83-1.58-5.89Z"/><path class="cls-25" d="M777.82,631.76c-5.86,1.57-9.35,7.61-7.78,13.46,1.57,5.86,7.61,9.35,13.46,7.78,5.86-1.57,9.35-7.61,7.78-13.46-1.57-5.86-7.61-9.35-13.46-7.78Zm3.96,14.79c-2.3,.61-4.67-.76-5.28-3.05-.61-2.3,.76-4.67,3.05-5.28,2.3-.61,4.67,.76,5.28,3.05,.61,2.3-.76,4.67-3.05,5.28Z"/><path class="cls-29" d="M751.89,779.5c-3.03,5.25-1.23,11.99,4.02,15.02,2.63,1.52,5.62,1.82,8.34,1.1,2.72-.73,5.16-2.49,6.68-5.12,3.03-5.25,1.23-11.99-4.02-15.02-5.25-3.04-11.99-1.23-15.02,4.02Zm13.26,7.66c-1.19,2.06-3.84,2.77-5.89,1.58-2.06-1.19-2.76-3.83-1.58-5.89,.59-1.03,1.55-1.72,2.62-2.01s2.24-.16,3.27,.43c2.06,1.19,2.76,3.83,1.58,5.89Z"/><path class="cls-27" d="M644.09,861.62c-5.86,1.57-9.35,7.61-7.78,13.46,1.57,5.86,7.61,9.35,13.46,7.78,5.86-1.57,9.35-7.61,7.78-13.46-1.57-5.86-7.61-9.35-13.46-7.78Zm3.96,14.79c-2.3,.61-4.67-.76-5.28-3.05s.76-4.67,3.05-5.28,4.67,.76,5.28,3.05c.61,2.3-.76,4.67-3.05,5.28Z"/><path class="cls-28" d="M494.79,847.48c-3.03,5.25-1.23,11.99,4.02,15.02,2.63,1.52,5.62,1.82,8.34,1.1,2.72-.73,5.16-2.49,6.68-5.12,3.03-5.25,1.23-11.99-4.02-15.02s-11.99-1.23-15.02,4.02Zm13.26,7.66c-1.19,2.06-3.84,2.77-5.89,1.58-2.06-1.19-2.76-3.83-1.58-5.89,.59-1.03,1.55-1.72,2.62-2.01s2.24-.16,3.27,.43c2.06,1.19,2.76,3.83,1.58,5.89Z"/><path class="cls-22" d="M414.23,727.89c-5.86,1.57-9.35,7.61-7.78,13.46,1.57,5.86,7.61,9.35,13.46,7.78,5.86-1.57,9.35-7.61,7.78-13.47-1.57-5.86-7.61-9.35-13.47-7.78Zm3.96,14.79c-2.3,.61-4.67-.76-5.28-3.05-.61-2.3,.76-4.67,3.05-5.28,2.3-.62,4.67,.75,5.28,3.05,.61,2.3-.76,4.67-3.06,5.28Z"/><path class="cls-23" d="M439.18,606.5c2.72-.73,5.16-2.49,6.68-5.12,3.03-5.25,1.23-11.99-4.02-15.02-5.25-3.04-11.99-1.23-15.02,4.02-3.03,5.25-1.23,11.99,4.02,15.02,2.63,1.52,5.62,1.82,8.34,1.1Zm-6.58-12.78c.59-1.03,1.55-1.72,2.62-2.01,1.07-.29,2.24-.16,3.27,.43,2.06,1.19,2.76,3.83,1.58,5.89-1.19,2.06-3.84,2.77-5.89,1.58-2.06-1.19-2.76-3.83-1.58-5.89Z"/></g><g><g><g id="Cfggfw.tif"><g><path class="cls-30" d="M828.78,454.89c-2.34,2.69-4.48,5.32-6.81,7.77-1.61,1.69-2.55,3.69-3.46,5.77-1.06,2.41-2.17,4.81-3.43,7.12-1.17,2.14-2.6,4.14-3.89,6.21-.4,.64-.71,1.32-1.07,1.98-.16,.29-.28,.61-.49,.86-1.76,2.07-2.92,4.49-4.28,6.81-1.96,3.33-4.05,6.58-6.08,9.87-.07,.12-.19,.23-.23,.36-.75,2.49-2.51,4.38-3.85,6.53-1.01,1.62-1.36,3.42-1.45,5.26-.09,1.98,.95,3.42,2.68,4.32,2.66,1.39,5.52,2.14,8.49,2.54,1.58,.21,3.14,.56,4.71,.87,2.17,.43,4.33,.97,6.52,1.29,2.82,.41,5.57,.87,8.1,2.33,1.41,.82,3.06,1.22,4.49,2.01,2.81,1.54,5.45,3.3,7.68,5.7,1.52,1.63,3.33,3.05,5.48,3.92,.52,.21,.99,.54,1.49,.8,1.38,.72,2.76,1.41,4.13,2.14,.95,.51,1.91,1.02,2.81,1.62,1.03,.69,2.01,1.37,3.33,1.41,.79,.02,.98,.5,.49,1.13-.4,.51-.87,1.01-1.4,1.38-1.59,1.1-3.23,2.11-4.83,3.19-1.09,.74-2.13,1.56-3.22,2.3-1.53,1.03-3.14,1.89-4.91,2.47-.92,.3-1.76,.89-2.6,1.41-1.52,.94-2.95,2.02-4.52,2.87-1.86,1.01-3.15,2.67-4.82,3.89-2.01,1.46-4.2,2.48-6.6,3.1-2.32,.6-4.63,1.27-6.95,1.89-.78,.21-1.08,.7-1.02,1.46,.1,1.22,.22,2.44,.34,3.66,.14,1.49-.2,2.9-.71,4.29-.32,.87-.89,1.14-1.8,1.27-4.37,.62-8.53-.48-12.73-1.37-3.09-.65-6.2-1.23-9.29-1.88-1.01-.21-1.98-.6-2.99-.85-1.56-.38-3.17-.58-4.68-1.09-4.04-1.37-8.24-2.02-12.36-3.02-.91-.22-1.86-.36-2.8-.37-3.05-.03-4.83,1.29-5.39,4.98-.49,3.22,.52,6.02,2.65,8.48,1.68,1.95,2.74,4.26,3.45,6.73,.26,.89,.22,1.8-.54,2.49-.31,.27-.66,.54-1.04,.67-2.56,.89-5.23,1.21-7.89,1.55-.28,.04-.57,.02-.84,.09-2.25,.61-4.43,0-6.55-.56-4.34-1.15-8.37-3.18-12.46-4.98-2.1-.92-4.02-2.25-6.02-3.39-.49-.28-.99-.55-1.5-.79-1.06-.49-2.19-.84-2.9-1.9-.22-.32-.67-.52-1.06-.68-2.43-1.05-4.31-2.78-6.15-4.65-2.07-2.12-4.38-4-6.57-6.01-.55-.51-1.05-1.07-1.56-1.62-.38-.41-.75-.85-1.13-1.26-.19-.21-.46-.35-.62-.57-1.95-2.69-4.76-4.54-6.95-7-.22-.24-.51-.41-.76-.63-.59-.52-1.19-1.03-1.77-1.56-.17-.16-.29-.37-.45-.54-.38-.42-.83-.62-1.39-.45-.57,.18-.77,.6-.87,1.16-.3,1.72-.61,3.44-.96,5.15-.29,1.39-.7,2.75-.95,4.14-.4,2.13-.73,4.27-1.05,6.42-.29,1.91-.53,3.83-.78,5.74-.23,1.72-.52,3.44-.68,5.16-.19,2.01-.28,4.03-.42,6.04-.3,4.14-.6,8.28-.9,12.41-.02,.33,0,.66,.02,.98,.01,.19,.15,.43,.07,.55-.95,1.59-.21,3.31-.41,4.96-.21,1.72,0,3.49-.13,5.22-.26,3.39,.1,6.76,.2,10.14,.07,2.4-.04,4.82,.14,7.21,.28,3.91,.02,7.79-.11,11.69-.05,1.45,.11,2.91,.28,4.35,.11,.99,.37,1.95-.15,2.9-.1,.19-.11,.46-.1,.69,.06,1.27,.14,2.54,.2,3.8,.09,1.97-.09,3.84-1.62,5.35-.43,.42-.65,1.03-1,1.54-.29,.42-.59,.86-.96,1.22-.48,.46-.98,.38-1.27-.22-.69-1.44-1.43-2.87-.89-4.58,.17-.52,.1-1.12,.09-1.68-.03-1.51-.12-3.01-.15-4.52-.07-3.56-.15-7.13-.17-10.69-.02-3.76,.05-7.53,.04-11.29,0-2.35-.13-4.7-.12-7.04,0-1.59,.15-3.19,.2-4.78,.02-.75-.07-1.5-.03-2.25,.18-3.57,.34-7.15,.61-10.72,.21-2.72,.57-5.43,.87-8.15,.11-1.03,.24-2.06,.32-3.09,.26-3.15,.49-6.3,.77-9.45,.1-1.12,.3-2.24,.48-3.35,.7-4.19,1.4-8.37,2.12-12.55,.21-1.2,.49-2.38,.73-3.57,.07-.37,.09-.75,.13-1.12,.22-1.92,.43-3.83,.65-5.75,.03-.28,.11-.56,.1-.84-.02-.91-.65-1.36-1.41-.9-2.2,1.33-4.7,1.96-7,3.01-1.86,.84-3.72,1.57-5.66,2.15-1.71,.51-3.4,1.23-5.15,1.46-3.34,.44-6.22,2.11-9.35,3.09-.72,.23-1.44,.43-2.16,.62-1.64,.43-3.29,.8-4.93,1.26-2.15,.6-4.34,.83-6.57,.8-.79,0-1.57,.15-2.36,.23-.28,.03-.56,.08-.84,.08-2.54,0-5.08,.08-7.61-.03-1.54-.07-3.06-.41-4.59-.66-1.61-.26-3.21-.42-4.87-.37-2.76,.07-5.54-.15-8.3-.39-1.1-.1-2.18-.53-3.25-.87-1.28-.41-2.57-.57-3.9-.43-1.42,.15-2.7-.27-3.89-1.01-.58-.36-.86-.8-.62-1.53,.57-1.69,1-3.43,2.09-4.91,1.7-2.31,3.26-4.73,5.04-6.99,1.04-1.32,2.45-2.34,3.56-3.62,.85-.98,1.5-2.14,2.2-3.25,.31-.49,.18-1.05-.2-1.44-.42-.43-.91-.82-1.43-1.11-4.78-2.72-9.94-3.55-15.4-3.31-1.68,.08-3.39-.58-5.09-.91-.27-.05-.53-.2-.81-.23-1.29-.14-2.59-.24-3.89-.37-.33-.03-.68-.04-.97-.18-2.12-.96-4.49-.95-6.67-1.7-.3-.1-.65-.08-.97-.14-.79-.14-1.58-.25-2.35-.45-1.63-.43-3.25-.91-4.87-1.37-1.04-.3-2.08-.61-3.13-.88-.63-.16-1.29-.26-1.93-.36-.83-.13-1.66-.26-2.5-.36-.46-.06-.93-.07-1.4-.09-1.28-.04-2.03-.88-1.75-2.14,.27-1.24,.67-2.41,1.77-3.28,.88-.7,1.66-1.52,2.73-1.97,.28-.12,.54-.39,.72-.65,.75-1.13,1.82-1.87,2.91-2.64,1.03-.73,1.9-1.68,2.82-2.55,.36-.35,.34-.83,0-1.15-.39-.38-.86-.77-1.37-.92-1.98-.58-3.75-1.51-5.25-2.94-.37-.36-.82-.63-1.22-.96-.44-.36-.94-.67-1.26-1.12-1.38-1.92-3.06-3.56-4.72-5.22-.37-.37-.74-.73-1.13-1.06-2.91-2.48-5.56-5.2-7.43-8.57-.68-1.23-1.21-2.57-1.61-3.92-.58-1.95-1.54-3.63-2.98-5.05-.26-.26-.5-.55-.77-.86,.42-.98,1.27-1.29,2.14-1.48,.73-.16,1.52-.32,2.23-.18,2.11,.41,3.99-.47,5.96-.86,1.71-.34,3.42-.68,5.13-.99,.41-.07,.84-.03,1.27-.02,2.4,.03,4.8,0,7.19,.12,2.29,.11,4.6,.11,6.81,1.01,.88,.36,1.94,.29,2.91,.45,.73,.12,1.46,.3,2.19,.45,.32,.07,.64,.18,.96,.2,1.93,.13,3.86,.21,5.78,.37,1.45,.12,2.9,.32,4.34,.53,2.29,.34,4.56,.11,6.66-.74,1.67-.67,3.24-1.61,4.72-2.74,1.55-1.19,2.71-2.63,3.55-4.29,.67-1.33,1.32-2.77,.56-4.41-.7-1.51-1.14-3.14-1.83-4.66-.38-.84-1.05-1.55-1.56-2.34-1.5-2.34-3.05-4.65-4.46-7.04-.88-1.49-1.61-3.09-2.28-4.69-.83-1.98-2.04-3.67-3.41-5.31-.96-1.14-1.71-2.47-2.39-3.8-.46-.9-1.19-1.68-1.24-2.81-.06-1.44-.27-2.88-.43-4.48,1.02-.25,1.9-.55,2.82-.68,1.49-.21,3-.32,4.5-.46,.32-.03,.66-.04,.98,.01,2.27,.37,4.48,.05,6.68-.5,.08-.02,.13-.13,.31-.31-.13-.31-.27-.69-.46-1.05-1.05-1.94-2.32-3.77-3.04-5.88-.27-.8-.58-1.6-.78-2.42-.88-3.67-1.69-7.35-2.6-11.01-.35-1.41-.88-2.78-1.39-4.14-.48-1.28-1.05-2.52-1.56-3.79-.53-1.3-.21-2.07,.91-2.9,1.88-1.4,4.1-1.6,6.29-1.82,2.41-.24,2.41-.16,1.96-2.48-.39-2.03-.97-4.06-1.1-6.11-.15-2.42-.06-4.89,.23-7.31,.25-2.09,.12-4.14-.01-6.2-.09-1.36-.27-2.72-.44-4.08-.08-.64,.17-.94,.78-1.12,1.5-.44,2.98-.31,4.47,.07,1.9,.48,3.56,1.47,5.24,2.45,2.64,1.54,5.31,3.04,7.92,4.64,1.24,.76,2.36,1.7,3.55,2.53,.73,.51,1.5,.97,2.23,1.49,1.33,.97,2.62,1.98,3.95,2.94,.61,.43,1.25,.98,1.94,1.1,.96,.18,1.72,.62,2.53,1.08,1.59,.89,3.02,.53,4.69-.88,.86-.72,1.77-1.41,2.75-1.95,1.14-.63,1.59-.48,2.5,.47,.19,.2,.4,.42,.52,.67,.7,1.48,1.71,2.8,2.08,4.44,.2,.87,.35,1.83,.84,2.52,.61,.85,1.46,1.61,2.37,2.14,1.04,.61,1.93,1.3,2.76,2.16,1.22,1.24,2.61,2.33,3.81,3.58,1.69,1.76,3.28,3.63,4.93,5.42,1.59,1.73,3.22,3.42,4.83,5.14,.45,.48,.9,.97,1.32,1.47,.96,1.16,1.9,2.32,2.84,3.49,.49,.61,1.09,.67,1.78,.47,.74-.22,1.25-.67,1.39-1.45,.47-2.69,.92-5.38,1.39-8.06,.19-1.11,.48-2.2,.27-3.34-.06-.36,.03-.75,.09-1.12,.39-2.22,.75-4.45,1.22-6.66,.47-2.26,1.08-4.49,1.57-6.74,.65-2.95,1.17-5.92,1.91-8.85,.78-3.1,1.57-6.24,3.43-8.91,.93-1.34,2.11-2.53,3.21-3.75,1.23-1.37,2.5-2.7,3.77-4.03,.97-1.02,1.15-1.01,2.35-.14,1.14,.83,2.23,1.66,2.95,2.95,.7,1.26,2.28,1.25,3.13-.01,.7-1.05,1.24-2.22,1.72-3.39,1.01-2.49,2.63-4.55,4.3-6.6,.42-.51,.9-.63,1.5-.42,1.15,.4,2.42,.38,3.47,1.15,.21,.15,.78,.07,1.01-.11,.8-.64,1.61-1.31,2.27-2.09,2.4-2.82,3.92-6.21,5.97-9.25,1.18-1.75,2.62-3.33,3.96-4.98,.15-.18,.34-.33,.53-.46,.82-.54,1.57-.29,1.9,.63,.11,.31,.19,.64,.23,.96,.38,3.28,.73,6.55,1.12,9.83,.31,2.62,.54,5.25,1.3,7.79,.49,1.64,1.31,2.29,3,2.09,2-.23,3.55,.77,5.09,1.76,.65,.42,.94,1.18,.8,2-.11,.65-.2,1.31-.39,1.94-.47,1.53-1.05,3.03-1.48,4.57-.3,1.08-.6,2.2-.62,3.31-.05,2.27,1.69,3.81,4.1,2.76,2.91-1.26,6.01-1.51,9.12-1.65,1.59-.07,1.72,.19,1.58,1.83-.24,2.85-1.3,5.48-2.18,8.16-.58,1.78-1.23,3.55-1.97,5.28-1.55,3.65-2.37,7.53-3.72,11.24-.63,1.74-.84,3.67-1.01,5.54-.2,2.2-.17,4.42-.2,6.64-.02,1.31,.52,1.75,1.77,1.41,2.04-.56,4.05-1.23,6.09-1.78,1.36-.37,2.75-.66,4.14-.88,2.36-.38,4.5-1.38,6.65-2.34,1.41-.63,2.79-1.35,4.17-2.04,.63-.31,1.26-.64,1.88-.98,2.92-1.65,5.91-3.14,9.09-4.22,.27-.09,.53-.22,.81-.25,2.21-.27,2.98,.64,2.75,2.58-.18,1.5-.39,2.99-.48,4.49-.1,1.61,.62,2.98,1.77,4.01,1,.9,2.32,.82,3.5,.38,2.89-1.09,5.91-1.62,8.93-2.07,3.8-.56,7.46-1.52,11-3.05,1.75-.75,3.34-1.73,4.93-2.73,.59-.37,1.23-.72,1.88-.95,1.48-.53,2.6,.23,2.74,1.82,.04,.47,.09,.95,0,1.4-.27,1.33-.6,2.66-.93,3.98-.43,1.74-.93,3.46-1.33,5.2-.36,1.58-.96,3.02-1.84,4.4-1.42,2.22-2.66,4.55-4,6.82-.88,1.5-1.78,3-2.72,4.46-1.04,1.62-1.45,3.37-1.15,5.26,.2,1.25,1.66,2.47,3.14,2.72,3.02,.51,6.04,1,9.06,1.51,.79,.13,1.57,.33,2.36,.47,2.28,.43,3.9,1.58,4.41,3.87Zm-139.94,206.32c-.08-.03-.17-.06-.25-.09-.14,.34-.27,.68-.41,1.01,.1,.04,.21,.08,.31,.11,.12-.35,.23-.69,.35-1.04Zm-56.12-213.42c.13-.06,.21-.09,.29-.12-.07-.1-.13-.21-.22-.28-.04-.03-.15,.06-.23,.09,.06,.1,.11,.21,.17,.31Z"/><path class="cls-21" d="M688.84,661.21c-.12,.35-.23,.69-.35,1.04-.1-.04-.21-.08-.31-.11,.14-.34,.27-.68,.41-1.01,.08,.03,.17,.06,.25,.09Z"/><path class="cls-16" d="M632.71,447.79c-.05-.1-.11-.2-.17-.31,.08-.03,.19-.12,.23-.09,.09,.06,.15,.18,.22,.28-.08,.03-.16,.07-.29,.12Z"/></g></g><polygon class="cls-8" points="627.93 403.63 700.78 516.46 700.78 508.17 627.93 403.63"/><polygon class="cls-8" points="700.78 500.51 807.21 428.24 700.78 508.17 700.78 500.51"/><path class="cls-8" d="M582.82,500.88s87.68,33.85,111.8,30.99l.61-5.87s-3.44,11.2-112.41-25.12Z"/><path class="cls-8" d="M811.41,547.97s-93.9-4.2-114.84-16.51l1.8-5.62s-1.35,11.64,113.04,22.12Z"/><path class="cls-8" d="M731.05,358.52s-36.9,124.98-37.94,199.1l5.7-1.17s-2.92-65.54,32.24-197.94Z"/></g><g><g><path class="cls-17" d="M507.78,502.97s-13.86-146.96-83.99-166.98c0,0,105.86,19.15,120.08,168.64l-36.09-1.66Z"/><path class="cls-15" d="M530.73,491.98s-5.37-155.18-40.28-174.57c0,0,52.81,17.55,58.33,175.4l-18.05-.83Z"/><path class="cls-14" d="M475.57,471.84s-6.03-81.6-34.68-92.16c0,0,43.21,9.78,49.39,92.79l-14.72-.63Z"/><polygon class="cls-20" points="551.89 329.84 548.78 492.81 597.89 495.07 551.89 329.84"/><path class="cls-19" d="M583.7,494.42s-13.86-146.96-83.99-166.98c0,0,105.86,19.15,120.08,168.64l-36.09-1.66Z"/><path class="cls-18" d="M653.77,534.55s-13.86-146.96-83.99-166.98c0,0,105.86,19.15,120.08,168.64l-36.09-1.66Z"/><path class="cls-10" d="M612.55,495.74s-5.37-155.18-40.28-174.57c0,0,52.81,17.55,58.33,175.4l-18.05-.83Z"/></g><g><path class="cls-11" d="M657.16,639.5s-2.67-228.49-37.26-256.45c0,0,52.53,24.93,55.31,257.36l-18.05-.91Z"/><polygon class="cls-12" points="675.65 377.26 669.69 617.38 718.8 619.86 675.65 377.26"/><path class="cls-13" d="M631.24,642.17s-11.31-216.24-81.14-244.51c0,0,105.6,26.36,117.22,246.33l-36.08-1.82Z"/></g></g></g><g><path class="cls-7" d="M1018.2,654.43c-4.88-16.86-16.06-31.23-31.49-40.46l-39.18-23.46c-15.18-9.09-34.44-5.26-45.14,8.21-9.21-18.74-27.23-33.18-51.37-39.09l-46.02-11.26c-14.3-3.51-28.69,2.4-36.71,13.74-2.21-2.91-4.86-5.5-7.92-7.61-7.6-5.25-16.98-7.27-26.07-5.61l-27.29,4.99c-6.07,1.11-11.48,3.73-15.92,7.4-5.44-1.86-11.42-2.4-17.49-1.29l-27.1,4.95c-8.12,1.48-15.4,5.8-20.61,12.12v-30.31c14.79-4.03,25.67-17.55,25.67-33.62v-24.54c0-19.24-15.6-34.84-34.84-34.84h-78.89c-9.07,0-17.3,3.49-23.5,9.17-6.52-8.07-16.42-12.94-27.08-12.94h-4.91c-13.49,0-25.77,7.79-31.52,20l-3.15,6.69c-4.88-13.36-17.66-22.91-32.7-22.91h-74.93c-4.46,0-8.72,.87-12.64,2.4-3.92-1.53-8.18-2.4-12.64-2.4h-27.56c-8.34,0-15.99,2.93-21.99,7.81-6.13-4.99-13.87-7.81-21.99-7.81h-29.25c-19.24,0-34.84,15.6-34.84,34.84v113.25c0,19.24,15.6,34.84,34.84,34.84h27.75c8.38,0,16.07-2.96,22.08-7.89,6.15,5.04,13.92,7.89,22.08,7.89h28.88c4.46,0,8.72-.87,12.64-2.4,3.92,1.53,8.18,2.4,12.64,2.4h77.01c1.73,0,3.42-.17,5.08-.41,1.68,.25,3.38,.41,5.1,.41h29.82c10.11,0,19.54-4.38,26.05-11.7h3.77c6.51,7.33,15.95,11.7,26.05,11.7h5.01c-18.82,29.74-20.1,68.2-.2,100.46,13.55,21.96,34.42,37.24,58.76,43.03,7.07,1.68,14.26,2.52,21.45,2.52,17.8,0,35.6-5.1,51.66-15.02,12.77-7.88,23.19-17.98,31.06-29.9,8.34,2.87,17.3,4.36,26.57,4.36,5.41,0,10.93-.5,16.47-1.51,13.39-2.45,25.59-7.7,35.78-15.16,.68,.21,1.34,.44,2.04,.61l26.95,6.6c4.88,1.2,9.92,1.31,14.77,.39,3.86,3.04,8.37,5.27,13.28,6.47l33.73,8.26c1.74,.43,3.49,.66,5.23,.82l40.98,24.54c11.81,7.07,24.72,10.72,37.43,10.72,4.84,0,9.65-.53,14.36-1.6,17.13-3.88,31.53-14.33,40.56-29.41,5.85-9.77,8.97-19.88,9.37-30.46,5.16-4.38,9.63-9.71,13.38-15.98,9.42-15.74,11.78-34.2,6.64-51.98Z"/><path class="cls-6" d="M933.9,787.65c-13.46,0-27.08-3.89-39.38-11.26l-40.25-24.1c-1.83-.19-3.41-.46-4.92-.83l-33.73-8.26c-4.85-1.19-9.33-3.25-13.36-6.15-4.92,.71-9.85,.47-14.69-.71l-26.95-6.6c-.15-.04-.3-.08-.46-.12-10.4,7.26-22.73,12.33-35.78,14.72-14.48,2.64-28.99,1.93-42.19-2.09-8.02,11.42-18.3,21.05-30.6,28.64-16.52,10.19-35.07,15.58-53.65,15.58-7.51,0-15.02-.88-22.33-2.62-25.32-6.02-47.02-21.9-61.11-44.72-18.87-30.58-19.92-67.81-3.17-98.69-9.87-.41-19.23-4.59-26.12-11.67h-.46c-7.25,7.46-17.25,11.7-27.7,11.7h-29.82c-1.59,0-3.27-.12-5.11-.37-1.87,.26-3.5,.37-5.08,.37h-77.01c-4.3,0-8.54-.72-12.64-2.15-4.1,1.43-8.35,2.15-12.64,2.15h-28.88c-7.9,0-15.63-2.44-22.08-6.93-6.45,4.49-14.18,6.93-22.08,6.93h-27.75c-21.3,0-38.63-17.33-38.63-38.63v-113.25c0-21.3,17.33-38.63,38.63-38.63h29.25c7.85,0,15.55,2.42,21.99,6.87,6.43-4.45,14.13-6.87,21.99-6.87h27.56c4.3,0,8.54,.72,12.64,2.15,4.1-1.43,8.35-2.15,12.64-2.15h74.93c13.35,0,25.63,6.98,32.62,18,6.43-13.24,20.02-21.77,34.76-21.77h4.91c10.42,0,20.24,4.15,27.47,11.49,6.66-5,14.74-7.71,23.1-7.71h78.89c21.3,0,38.63,17.33,38.63,38.63v24.54c0,16.4-10.42,30.97-25.67,36.4v18.71c4.74-3.54,10.26-5.97,16.14-7.04l27.1-4.95c5.79-1.06,11.76-.78,17.4,.81,4.71-3.48,10.2-5.86,16-6.92l27.29-4.99c10.14-1.85,20.41,.35,28.91,6.22,2.03,1.41,3.93,3.01,5.67,4.81,9.46-10.43,23.78-14.92,37.71-11.5l46.02,11.26c22.7,5.56,40.71,18.36,51.28,36.3,12.37-11.62,31.34-13.93,46.27-5l39.18,23.46c16.25,9.73,28.03,24.88,33.18,42.66h0c5.44,18.81,2.95,38.33-7.02,54.98-3.64,6.08-7.99,11.4-12.93,15.83-.67,10.55-3.97,20.84-9.82,30.61-9.56,15.97-24.83,27.04-42.98,31.16-4.96,1.12-10.07,1.69-15.2,1.69Zm-129.67-58.65l1.36,1.07c3.51,2.76,7.49,4.71,11.83,5.77l33.73,8.26c1.36,.33,2.84,.56,4.66,.72l.87,.08,41.73,24.99c15.33,9.18,32.94,12.32,49.01,8.68,16.11-3.65,29.65-13.48,38.15-27.66,5.57-9.3,8.46-18.67,8.83-28.66l.06-1.67,1.27-1.08c4.83-4.1,9.06-9.15,12.58-15.03,8.88-14.82,11.09-32.22,6.25-48.98h0c-4.61-15.93-15.2-29.53-29.8-38.27l-39.18-23.46c-13.3-7.96-30.59-4.81-40.22,7.32l-3.73,4.7-2.64-5.38c-9.05-18.41-26.4-31.58-48.87-37.08l-46.02-11.26c-12.46-3.05-25.29,1.75-32.72,12.25l-2.99,4.22-3.13-4.12c-2.02-2.67-4.4-4.95-7.06-6.79-6.83-4.72-15.08-6.5-23.23-5l-27.29,4.99c-5.22,.95-10.12,3.23-14.18,6.59l-1.63,1.35-2.01-.68c-4.98-1.7-10.37-2.1-15.58-1.14l-27.1,4.95c-7.18,1.31-13.7,5.15-18.37,10.8l-6.72,8.14v-43.76l2.8-.76c13.47-3.67,22.87-15.99,22.87-29.96v-24.54c0-17.12-13.93-31.05-31.05-31.05h-78.89c-7.75,0-15.18,2.9-20.94,8.17l-2.97,2.72-2.53-3.13c-5.93-7.33-14.72-11.54-24.13-11.54h-4.91c-11.97,0-22.99,7-28.09,17.82l-7.02,14.91-3.12-8.54c-4.46-12.21-16.17-20.42-29.14-20.42h-74.93c-3.83,0-7.62,.72-11.26,2.14l-1.38,.54-1.38-.54c-3.64-1.42-7.43-2.14-11.26-2.14h-27.56c-7.12,0-14.08,2.47-19.6,6.96l-2.39,1.95-2.39-1.95c-5.52-4.49-12.48-6.96-19.59-6.96h-29.25c-17.12,0-31.05,13.93-31.05,31.05v113.25c0,17.12,13.93,31.05,31.05,31.05h27.75c7.16,0,14.15-2.5,19.68-7.03l2.4-1.97,2.4,1.97c5.53,4.53,12.52,7.03,19.68,7.03h28.88c3.83,0,7.62-.72,11.26-2.14l1.38-.54,1.38,.54c3.64,1.42,7.43,2.14,11.26,2.14h77.01c1.36,0,2.8-.12,4.54-.37l.55-.08,.55,.08c1.69,.25,3.17,.37,4.55,.37h29.82c8.86,0,17.33-3.8,23.22-10.43l1.13-1.27h7.17l1.13,1.27c5.89,6.63,14.35,10.43,23.21,10.43h11.9l-3.68,5.82c-18.64,29.46-18.71,66.41-.18,96.44,13.02,21.1,33.06,35.78,56.41,41.33,6.73,1.6,13.65,2.41,20.57,2.41,17.18,0,34.35-5,49.67-14.45,12.2-7.53,22.26-17.21,29.88-28.76l1.62-2.45,2.78,.96c12.72,4.38,26.91,5.3,41.12,2.7,12.59-2.3,24.42-7.31,34.22-14.49l1.54-1.13,2.36,.73c.42,.13,.84,.27,1.28,.38l26.95,6.6c4.34,1.06,8.77,1.18,13.16,.35l1.7-.32Z"/></g><g><polygon class="cls-5" points="207.64 481.59 207.64 599.93 210.42 604.74 238.96 604.74 238.96 534.23 285.53 604.74 315.77 604.74 315.77 486.33 312.99 481.61 284.2 481.61 284.2 551.4 238.36 481.61 207.64 481.59"/><polygon class="cls-5" points="333.67 481.59 333.67 599.93 336.38 605.15 417 605.15 417 580.06 414.14 575.08 365.6 575.08 365.42 558.74 411.05 558.74 411.05 533.46 408.23 528.53 365.24 528.58 365.24 511.96 415.2 511.96 415.2 486.67 411.97 481.59 333.67 481.59"/><path class="cls-5" d="M492.08,481.15l-5.75-3.5-5.14,.38-57.59,121.9,3.36,5.21h30.8l5.57-12.39,46.21,.36,6.26,12.03h36.03l-59.76-124Zm-17.37,85.98l11.28-24.49,11.12,24.49h-22.39Z"/><polygon class="cls-5" points="538.23 481.59 538.23 507.73 540.77 512.45 564.49 512.45 564.82 599.93 568.18 605.15 596.68 605.15 596.68 512.45 623.43 512.45 623.43 486.67 620.84 481.59 538.23 481.59"/><g class="cls-3"><g><polygon class="cls-68" points="529.39 450.3 529.82 538.82 587.4 540.77 603.26 441.84 529.39 450.3"/><polygon class="cls-69" points="530.21 616.79 574.25 622.82 587.4 540.77 529.82 538.82 530.21 616.79"/><polygon class="cls-67" points="455.95 536.32 488.92 611.13 530.21 616.79 529.82 538.82 455.95 536.32"/><polygon class="cls-66" points="375.03 533.58 377.84 595.92 488.92 611.13 455.95 536.32 375.03 533.58"/><polygon class="cls-56" points="647.66 436.75 647.66 415.34 607.51 415.34 603.26 441.84 647.66 436.75"/><polygon class="cls-62" points="587.4 540.77 647.66 542.81 647.66 436.75 603.26 441.84 587.4 540.77"/><polygon class="cls-64" points="455.95 536.32 423.4 462.45 372.08 468.33 375.03 533.58 455.95 536.32"/><polygon class="cls-65" points="328.97 532.02 321.98 588.27 377.84 595.92 375.03 533.58 328.97 532.02"/><polygon class="cls-57" points="529.39 450.3 529.22 415.34 402.65 415.34 423.4 462.45 529.39 450.3"/><polygon class="cls-63" points="530.08 538.85 529.64 450.34 423.66 462.48 456.21 536.35 530.08 538.85"/><polygon class="cls-59" points="375.03 533.58 372.08 468.33 336.38 472.42 328.97 532.02 375.03 533.58"/><polygon class="cls-60" points="336.38 472.42 229.62 484.66 244.19 529.16 328.97 532.02 336.38 472.42"/><polygon class="cls-58" points="244.19 529.16 260.81 579.9 321.98 588.27 328.97 532.02 244.19 529.16"/><polygon class="cls-61" points="603.26 441.84 607.51 415.34 529.22 415.34 529.39 450.3 603.26 441.84"/><polygon class="cls-71" points="488.92 611.13 509.87 658.69 530.41 658.69 530.21 616.79 488.92 611.13"/><polygon class="cls-79" points="377.84 595.92 380.67 658.69 509.87 658.69 488.92 611.13 377.84 595.92"/><polygon class="cls-72" points="321.98 588.27 313.22 658.69 380.67 658.69 377.84 595.92 321.98 588.27"/><polygon class="cls-70" points="260.81 579.9 286.62 658.69 313.22 658.69 321.98 588.27 260.81 579.9"/><polygon class="cls-80" points="587.4 540.77 574.25 622.82 647.66 632.87 647.66 542.81 587.4 540.77"/><polygon class="cls-81" points="530.21 616.79 530.41 658.69 568.5 658.69 574.25 622.82 530.21 616.79"/><polygon class="cls-83" points="568.5 658.69 647.66 658.69 647.66 632.87 574.25 622.82 568.5 658.69"/><polygon class="cls-85" points="193.04 570.62 193.04 658.69 286.62 658.69 260.81 579.9 193.04 570.62"/><polygon class="cls-84" points="206.92 415.34 193.04 415.34 193.04 488.85 229.62 484.66 206.92 415.34"/><polygon class="cls-82" points="336.38 472.42 343.48 415.34 206.92 415.34 229.62 484.66 336.38 472.42"/><polygon class="cls-76" points="372.08 468.33 369.69 415.34 343.48 415.34 336.38 472.42 372.08 468.33"/><polygon class="cls-74" points="229.62 484.66 193.04 488.85 193.04 527.43 244.19 529.16 229.62 484.66"/><polygon class="cls-78" points="423.4 462.45 402.65 415.34 369.69 415.34 372.08 468.33 423.4 462.45"/><polygon class="cls-75" points="244.19 529.16 193.04 527.43 193.04 570.62 260.81 579.9 244.19 529.16"/></g></g></g><g><path class="cls-4" d="M635.96,688.16c-2.48,10.79-8.41,20.43-17.93,26.55-12.19,7.84-25.48,7.13-35.82,.19-2.05-2-3.91-4.29-5.56-6.85-10.3-16.04-7.51-35.78,9.48-46.7,9.53-6.12,20.75-7.5,31.6-5.28l6.24-25.55-5.04-4.12c-17-4.1-33.93-2.87-52.03,8.76-30.16,19.38-37.21,55.55-18.95,83.97,4.36,6.79,9.74,12.44,15.79,16.85,19.56,17.79,48.47,20.99,73.5,4.91,17.62-11.33,26.01-27.26,29.11-43.39l-5.04-4.12-25.36-5.24Z"/><path class="cls-4" d="M748.5,587.3l-5.04-4.12-27.39,4.38,11.21,70.07c2.39,14.91-3.3,21.17-13.74,22.84-3.68,.59-7.12,.33-10.09-1.07-2.17-2.81-3.79-6.82-4.67-12.29l-11.21-70.07-5.04-4.12-27.2,4.35,11.87,74.17c2.03,12.69,8.12,22.21,16.84,28.12,9.33,9.1,23.09,12.84,38.61,10.36,24.6-3.93,41.96-22,37.73-48.46l-11.86-74.16Z"/><path class="cls-4" d="M973.5,650.3c-1.71-1.67-3.62-3.21-5.72-4.58l-38.28-24.89-61.73,94.93,5.04,4.12,41.93,27.26c18.04,11.73,36.3,6.49,44.84-6.64,6.38-9.81,6.59-19.13,1.3-32.47l.2-.32c9.94-.74,17.18-3.91,22.94-12.78,9.53-14.66,4.76-34.22-10.52-44.64Zm-40.87,66.44c-3.29,5.06-8.83,5.96-14.21,2.47l-8.66-5.63,10.42-16.02,12.09,7.86c2.58,3.43,2.65,7.81,.36,11.33Zm21.39-38.77c-3.39,5.22-9.56,6.39-14.94,2.9l-5.66-3.68,11.04-16.97,9.12,5.93c2.66,3.5,2.89,8.06,.44,11.83Z"/><path class="cls-4" d="M874.61,644.32c3.42-15.03-1.99-28.53-14.22-36.9-5.41-5.25-12.85-9.21-22.01-11.29l-46.18-10.52-25.16,110.41,5.04,4.12,27.05,6.16,8.13-35.72,14.98,38.02,5.04,4.12,33.86,7.72-20.46-47.83c17.3-.32,29.53-8.95,33.93-28.27Zm-31.54-10.15c-1.47,6.44-6.94,11.78-13.02,10.39l-16.03-3.65,5.02-22.02,20.98,4.78c.45,.1,.87,.24,1.29,.4,1.85,2.81,2.58,6.51,1.76,10.1Z"/></g><g class="cls-9"><polygon class="cls-73" points="568.75 688.67 725.75 676.41 733.37 629.05 567.79 570.82 566.46 571.2 568.75 688.67"/><polygon class="cls-77" points="437.8 607.76 333.25 637.48 355.4 705.32 454.29 697.61 437.8 607.76"/><polygon class="cls-47" points="454.29 697.61 355.4 705.32 386.92 801.86 474.24 806.34 454.29 697.61"/><polygon class="cls-46" points="566.46 571.2 566.44 570.35 421.59 519.41 437.8 607.76 566.46 571.2"/><polygon class="cls-49" points="421.59 519.41 278.23 469 333.25 637.48 437.8 607.76 421.59 519.41"/><polygon class="cls-48" points="386.92 801.86 422.5 910.8 494.38 916.06 474.24 806.34 386.92 801.86"/><polygon class="cls-52" points="702.98 818.07 684.98 930.02 876.59 944.04 867.34 826.49 702.98 818.07"/><polygon class="cls-50" points="571.15 811.31 573.31 921.84 684.98 930.02 702.98 818.07 571.15 811.31"/><polygon class="cls-51" points="474.24 806.34 494.38 916.06 573.31 921.84 571.15 811.31 474.24 806.34"/><polygon class="cls-54" points="568.75 688.67 571.15 811.31 702.98 818.07 725.75 676.41 568.75 688.67"/><polygon class="cls-55" points="855.17 671.88 867.34 826.49 1011.63 833.89 1020.11 729.89 855.17 671.88"/><polygon class="cls-53" points="725.75 676.41 702.98 818.07 867.34 826.49 855.17 671.88 842.2 667.32 725.75 676.41"/><polygon class="cls-40" points="733.37 629.05 725.75 676.41 842.2 667.32 733.37 629.05"/><polygon class="cls-38" points="566.46 571.2 437.8 607.76 454.29 697.61 568.75 688.67 566.46 571.2"/><polygon class="cls-39" points="454.29 697.61 474.24 806.34 571.15 811.31 568.75 688.67 454.29 697.61"/><polygon class="cls-36" points="842.2 667.32 854.73 666.34 841.1 493.15 751.11 518.72 733.37 629.05 842.2 667.32"/><polygon class="cls-37" points="1026.39 652.94 1044.12 435.45 841.1 493.15 854.73 666.34 1026.39 652.94"/><polygon class="cls-34" points="842.2 667.32 855.17 671.88 854.73 666.34 842.2 667.32"/><polygon class="cls-35" points="751.11 518.72 567.79 570.82 733.37 629.05 751.11 518.72"/><polygon class="cls-32" points="855.17 671.88 1020.11 729.89 1026.39 652.94 854.73 666.34 855.17 671.88"/><polygon class="cls-33" points="333.25 637.48 185.69 679.41 185.69 718.57 355.4 705.32 333.25 637.48"/><polygon class="cls-31" points="355.4 705.32 185.69 718.57 185.69 791.54 386.92 801.86 355.4 705.32"/><polygon class="cls-43" points="1011.63 833.89 1140.57 840.51 1140.57 772.25 1020.11 729.89 1011.63 833.89"/><polygon class="cls-45" points="386.92 801.86 185.69 791.54 185.69 893.47 422.5 910.8 386.92 801.86"/><polygon class="cls-44" points="1026.39 652.94 1140.57 644.03 1140.57 408.04 1044.12 435.45 1026.39 652.94"/><polygon class="cls-42" points="1020.11 729.89 1140.57 772.25 1140.57 644.03 1026.39 652.94 1020.11 729.89"/><polygon class="cls-41" points="278.23 469 185.69 436.46 185.69 679.41 333.25 637.48 278.23 469"/></g></svg>