<?xml version="1.0" encoding="UTF-8"?>
<svg xmlns="http://www.w3.org/2000/svg" xmlns:xlink="http://www.w3.org/1999/xlink" viewBox="239 150 313 313">
<path fill-rule="nonzero" fill="rgb(9.915161%, 20.106506%, 43.280029%)" fill-opacity="1" d="M 551.210938 305.902344 C 551.210938 391.902344 481.492188 461.621094 395.488281 461.621094 C 393.800781 461.621094 392.125 461.589844 390.453125 461.535156 C 306.78125 458.882812 239.765625 390.214844 239.765625 305.902344 C 239.765625 219.898438 309.488281 150.179688 395.488281 150.179688 C 480.015625 150.179688 548.816406 217.527344 551.144531 301.492188 C 551.191406 302.960938 551.210938 304.429688 551.210938 305.902344 "/>
<path fill-rule="nonzero" fill="rgb(100%, 100%, 100%)" fill-opacity="1" d="M 508.90625 305.90625 C 508.90625 309.78125 508.710938 313.609375 508.332031 317.382812 C 506.613281 334.5 501.085938 350.492188 492.613281 364.5 C 491.210938 366.816406 489.726562 369.082031 488.171875 371.289062 C 470.664062 396.058594 443.472656 413.507812 412.109375 418.113281 C 406.683594 418.90625 401.136719 419.316406 395.488281 419.316406 C 393.742188 419.316406 392 419.277344 390.277344 419.195312 C 385.578125 418.988281 380.960938 418.488281 376.429688 417.726562 C 370.449219 416.707031 364.632812 415.230469 359.011719 413.324219 L 359.003906 413.324219 C 353.542969 411.472656 348.265625 409.207031 343.207031 406.578125 C 312.1875 390.4375 289.5625 360.378906 283.617188 324.679688 C 282.769531 319.582031 282.261719 314.371094 282.105469 309.074219 C 282.085938 308.015625 282.066406 306.957031 282.066406 305.90625 C 282.066406 289.636719 285.492188 274.167969 291.660156 260.183594 C 293.042969 257.058594 294.558594 254.003906 296.203125 251.03125 C 302.269531 240.070312 310.101562 230.222656 319.320312 221.875 C 323.179688 218.363281 327.28125 215.128906 331.601562 212.175781 L 331.609375 212.175781 C 336.628906 208.738281 341.941406 205.703125 347.503906 203.101562 C 353.097656 200.488281 358.9375 198.316406 364.976562 196.628906 C 374.683594 193.925781 384.917969 192.484375 395.488281 192.484375 C 434.167969 192.484375 468.316406 211.84375 488.804688 241.40625 C 498.863281 255.9375 505.617188 272.933594 507.984375 291.304688 C 508.589844 296.082031 508.90625 300.957031 508.90625 305.90625 "/>
<path fill-rule="nonzero" fill="rgb(9.915161%, 20.106506%, 43.280029%)" fill-opacity="1" d="M 419.074219 212.335938 L 419.246094 214.976562 L 420.269531 218.898438 L 420.183594 219.582031 L 419.84375 219.921875 L 419.246094 222.222656 L 419.074219 222.992188 L 419.671875 223.585938 L 419.671875 224.355469 L 419.757812 226.402344 L 419.585938 229.214844 L 420.523438 229.296875 L 421.289062 229.554688 L 421.289062 232.792969 L 421.632812 232.964844 L 421.71875 241.234375 L 419.585938 251.460938 L 419.925781 264.078125 L 417.796875 266.296875 L 418.734375 267.746094 L 417.371094 270.300781 L 415.578125 272.007812 L 416.089844 270.386719 L 416.261719 269.109375 L 416.519531 267.828125 L 405.945312 261.351562 L 404.667969 261.4375 L 403.304688 259.390625 L 403.21875 257.003906 L 399.46875 253.335938 L 350.707031 253.335938 L 350.707031 249.925781 L 353.945312 247.796875 L 354.542969 247.796875 L 355.480469 246.519531 L 356.761719 246.089844 L 357.613281 245.324219 L 358.890625 243.449219 L 359.660156 243.449219 L 360.597656 242.425781 L 360.765625 241.0625 L 360.171875 240.125 L 360.253906 237.738281 L 358.722656 237.140625 L 358.722656 235.265625 L 363.75 233.730469 L 370.824219 233.902344 L 371.421875 234.15625 L 372.871094 234.328125 L 374.40625 236.460938 L 375.429688 236.542969 L 376.027344 235.605469 L 378.15625 235.007812 L 380.289062 235.179688 L 381.738281 235.949219 L 383.015625 234.582031 L 384.722656 233.816406 L 385.742188 232.792969 L 388.132812 231.429688 L 388.726562 231.855469 L 390.007812 230.917969 L 390.433594 229.382812 L 389.496094 226.230469 L 390.773438 224.355469 L 391.371094 224.269531 L 391.371094 223.332031 L 390.433594 222.992188 L 390.261719 222.308594 L 388.726562 221.96875 L 390.089844 220.6875 L 391.027344 220.433594 L 392.394531 220.261719 L 395.121094 217.363281 L 395.121094 216 L 402.195312 209.863281 L 403.644531 209.777344 L 404.15625 209.09375 L 419.757812 208.582031 L 419.84375 210.03125 L 419.332031 210.886719 L 419.671875 211.652344 Z M 419.074219 212.335938 "/>
<path fill-rule="nonzero" fill="rgb(9.915161%, 20.106506%, 43.280029%)" fill-opacity="1" d="M 413.023438 275.417969 L 413.363281 274.222656 L 414.300781 273.796875 L 414.726562 274.050781 L 414.644531 274.734375 Z M 413.023438 275.417969 "/>
<path fill-rule="nonzero" fill="rgb(9.915161%, 20.106506%, 43.280029%)" fill-opacity="1" d="M 415.578125 273.199219 L 416.601562 271.75 L 417.199219 271.75 L 417.625 271.324219 L 418.308594 271.152344 L 418.648438 270.214844 L 419.414062 270.046875 L 420.097656 269.363281 L 421.207031 269.023438 L 422.398438 268.9375 L 422.65625 269.191406 L 424.785156 269.109375 L 425.554688 268.511719 L 430.839844 268.425781 L 433.394531 266.292969 L 434.589844 265.867188 L 434.761719 266.125 L 433.992188 266.636719 L 433.90625 267.148438 L 432.628906 268.597656 L 431.777344 268.765625 L 431.863281 269.191406 L 432.542969 269.449219 L 433.226562 269.277344 L 434.417969 268 L 435.441406 267.914062 L 435.953125 267.402344 L 436.550781 267.828125 L 437.574219 267.660156 L 439.617188 266.636719 L 440.046875 266.808594 L 436.550781 268.765625 L 434.164062 270.300781 L 431.519531 271.410156 L 428.28125 272.433594 L 425.554688 272.773438 L 424.273438 272.519531 L 423.679688 272.945312 L 421.375 273.625 L 420.183594 274.050781 L 419.929688 274.308594 L 418.90625 274.308594 L 418.820312 273.796875 L 417.710938 274.734375 L 417.027344 274.480469 L 417.796875 273.625 L 417.453125 273.027344 L 416.433594 274.050781 L 415.75 273.96875 Z M 415.578125 273.199219 "/>
<path fill-rule="nonzero" fill="rgb(97.740173%, 68.045044%, 4.518127%)" fill-opacity="1" d="M 506.726562 220.636719 L 502.691406 220.636719 C 502.453125 220.636719 502.242188 220.484375 502.167969 220.257812 L 500.921875 216.421875 C 500.757812 215.914062 500.042969 215.914062 499.875 216.421875 L 498.628906 220.257812 C 498.554688 220.484375 498.34375 220.636719 498.105469 220.636719 L 494.074219 220.636719 C 493.539062 220.636719 493.320312 221.320312 493.75 221.632812 L 497.015625 224.003906 C 497.207031 224.144531 497.289062 224.390625 497.214844 224.617188 L 495.96875 228.453125 C 495.800781 228.960938 496.382812 229.382812 496.8125 229.070312 L 500.078125 226.699219 C 500.269531 226.558594 500.53125 226.558594 500.722656 226.699219 L 503.984375 229.070312 C 504.417969 229.382812 504.996094 228.960938 504.832031 228.453125 L 503.585938 224.617188 C 503.511719 224.390625 503.589844 224.144531 503.785156 224.003906 L 507.046875 221.632812 C 507.476562 221.320312 507.257812 220.636719 506.726562 220.636719 "/>
<path fill-rule="nonzero" fill="rgb(97.740173%, 68.045044%, 4.518127%)" fill-opacity="1" d="M 297.40625 220.636719 L 293.371094 220.636719 C 293.132812 220.636719 292.921875 220.484375 292.851562 220.257812 L 291.601562 216.421875 C 291.4375 215.914062 290.722656 215.914062 290.558594 216.421875 L 289.3125 220.257812 C 289.238281 220.484375 289.027344 220.636719 288.789062 220.636719 L 284.753906 220.636719 C 284.222656 220.636719 284 221.320312 284.433594 221.632812 L 287.695312 224.003906 C 287.886719 224.144531 287.96875 224.390625 287.894531 224.617188 L 286.648438 228.453125 C 286.484375 228.960938 287.0625 229.382812 287.492188 229.070312 L 290.757812 226.699219 C 290.949219 226.558594 291.210938 226.558594 291.402344 226.699219 L 294.667969 229.070312 C 295.097656 229.382812 295.675781 228.960938 295.511719 228.453125 L 294.265625 224.617188 C 294.191406 224.390625 294.273438 224.144531 294.464844 224.003906 L 297.730469 221.632812 C 298.160156 221.320312 297.9375 220.636719 297.40625 220.636719 "/>
<path fill-rule="nonzero" fill="rgb(100%, 100%, 100%)" fill-opacity="1" d="M 263.023438 253.855469 L 273.007812 258.207031 L 264.824219 249.71875 L 265.265625 248.710938 L 277.042969 248.945312 L 267.058594 244.597656 L 268.085938 242.234375 L 281.539062 248.097656 L 280.089844 251.425781 L 269.644531 251.21875 L 276.898438 258.75 L 275.449219 262.078125 L 261.996094 256.214844 Z M 263.023438 253.855469 "/>
<path fill-rule="nonzero" fill="rgb(100%, 100%, 100%)" fill-opacity="1" d="M 260.480469 261.105469 L 274.445312 265.605469 L 273.65625 268.054688 L 259.691406 263.554688 Z M 260.480469 261.105469 "/>
<path fill-rule="nonzero" fill="rgb(100%, 100%, 100%)" fill-opacity="1" d="M 255.886719 278.375 L 267.789062 273.207031 L 257.570312 270.902344 L 258.136719 268.390625 L 272.453125 271.617188 L 271.875 274.195312 L 260.285156 279.277344 L 270.222656 281.515625 L 269.65625 284.027344 L 255.339844 280.800781 Z M 255.886719 278.375 "/>
<path fill-rule="nonzero" fill="rgb(100%, 100%, 100%)" fill-opacity="1" d="M 260.714844 298.453125 C 263.738281 298.726562 266.167969 297.027344 266.433594 294.089844 C 266.703125 291.132812 264.613281 289.042969 261.589844 288.769531 C 258.589844 288.496094 256.140625 290.175781 255.871094 293.132812 C 255.605469 296.070312 257.710938 298.183594 260.714844 298.453125 M 261.828125 286.140625 C 266.1875 286.535156 269.109375 289.914062 268.710938 294.296875 C 268.316406 298.679688 264.835938 301.476562 260.476562 301.082031 C 256.117188 300.6875 253.195312 297.308594 253.59375 292.925781 C 253.988281 288.542969 257.46875 285.746094 261.828125 286.140625 "/>
<path fill-rule="nonzero" fill="rgb(100%, 100%, 100%)" fill-opacity="1" d="M 263.523438 313.421875 C 264.929688 313.375 265.820312 312.292969 265.773438 310.839844 L 265.660156 307.324219 L 261 307.472656 L 261.109375 310.988281 C 261.15625 312.441406 262.113281 313.464844 263.523438 313.421875 M 253.445312 313.523438 L 258.816406 310.09375 L 258.734375 307.542969 L 253.257812 307.71875 L 253.175781 305.144531 L 267.84375 304.675781 L 268.050781 311.121094 C 268.140625 314.023438 266.3125 315.972656 263.605469 316.058594 C 260.988281 316.144531 259.527344 314.472656 259.1875 312.722656 L 253.539062 316.492188 Z M 253.445312 313.523438 "/>
<path fill-rule="nonzero" fill="rgb(100%, 100%, 100%)" fill-opacity="1" d="M 254.035156 320.769531 L 268.621094 319.121094 L 268.910156 321.679688 L 254.324219 323.328125 Z M 254.035156 320.769531 "/>
<path fill-rule="nonzero" fill="rgb(100%, 100%, 100%)" fill-opacity="1" d="M 255.597656 331.664062 L 267.785156 329.316406 L 266.941406 324.949219 L 269.167969 324.523438 L 271.335938 335.777344 L 269.113281 336.207031 L 268.269531 331.84375 L 256.085938 334.191406 Z M 255.597656 331.664062 "/>
<path fill-rule="nonzero" fill="rgb(100%, 100%, 100%)" fill-opacity="1" d="M 259.207031 346.671875 L 265.027344 344.871094 L 271.535156 336.894531 L 272.40625 339.710938 L 267.59375 345.433594 L 274.785156 347.398438 L 275.65625 350.214844 L 265.785156 347.328125 L 259.964844 349.128906 Z M 259.207031 346.671875 "/>
<path fill-rule="nonzero" fill="rgb(100%, 100%, 100%)" fill-opacity="1" d="M 279.257812 364.46875 L 271.828125 365.273438 L 274.210938 369.984375 Z M 270.492188 373.886719 L 272.519531 371.652344 L 269.476562 365.648438 L 266.480469 365.957031 L 265.160156 363.347656 L 280.847656 361.863281 L 282.300781 364.730469 L 271.8125 376.496094 Z M 270.492188 373.886719 "/>
<path fill-rule="nonzero" fill="rgb(100%, 100%, 100%)" fill-opacity="1" d="M 279.539062 388.292969 L 283.949219 376.097656 L 275.261719 381.941406 L 273.828125 379.808594 L 286 371.613281 L 287.472656 373.804688 L 283.210938 385.714844 L 291.660156 380.027344 L 293.097656 382.164062 L 280.925781 390.355469 Z M 279.539062 388.292969 "/>
<path fill-rule="nonzero" fill="rgb(100%, 100%, 100%)" fill-opacity="1" d="M 296.632812 397.699219 C 298.773438 395.832031 299.304688 393.03125 297.144531 390.5625 L 295.25 388.390625 L 287.609375 395.066406 L 289.507812 397.238281 C 291.605469 399.640625 294.546875 399.527344 296.632812 397.699219 M 284.207031 394.617188 L 295.261719 384.960938 L 298.851562 389.070312 C 301.863281 392.515625 301.617188 396.851562 298.371094 399.691406 C 295.125 402.527344 290.8125 402.175781 287.800781 398.726562 Z M 284.207031 394.617188 "/>
<path fill-rule="nonzero" fill="rgb(100%, 100%, 100%)" fill-opacity="1" d="M 310.417969 419.816406 L 314.804688 409.515625 L 305.921875 416.316406 L 303.75 414.628906 L 309.441406 400.46875 L 311.714844 402.238281 L 307.035156 412.917969 L 316.371094 405.859375 L 317.984375 407.113281 L 313.441406 417.902344 L 322.621094 410.71875 L 324.894531 412.488281 L 312.589844 421.503906 Z M 310.417969 419.816406 "/>
<path fill-rule="nonzero" fill="rgb(100%, 100%, 100%)" fill-opacity="1" d="M 332.871094 425.390625 C 334.375 422.753906 333.835938 419.839844 331.277344 418.378906 C 328.695312 416.90625 325.929688 417.9375 324.425781 420.574219 C 322.933594 423.191406 323.445312 426.117188 326.023438 427.585938 C 328.582031 429.046875 331.378906 428.007812 332.871094 425.390625 M 322.136719 419.269531 C 324.304688 415.464844 328.585938 414.214844 332.410156 416.390625 C 336.230469 418.570312 337.332031 422.894531 335.164062 426.699219 C 332.996094 430.5 328.710938 431.753906 324.890625 429.574219 C 321.070312 427.394531 319.96875 423.070312 322.136719 419.269531 "/>
<path fill-rule="nonzero" fill="rgb(100%, 100%, 100%)" fill-opacity="1" d="M 347.726562 439.855469 L 351.738281 429.726562 L 343.535156 438.191406 L 342.511719 437.789062 L 342.347656 426.007812 L 338.335938 436.136719 L 335.941406 435.1875 L 341.347656 421.539062 L 344.722656 422.875 L 344.871094 433.324219 L 352.152344 425.816406 L 355.527344 427.152344 L 350.121094 440.800781 Z M 347.726562 439.855469 "/>
<path fill-rule="nonzero" fill="rgb(100%, 100%, 100%)" fill-opacity="1" d="M 355.3125 442.296875 L 358.953125 428.078125 L 368.695312 430.574219 L 368.132812 432.769531 L 360.886719 430.914062 L 359.941406 434.601562 L 367.039062 436.417969 L 366.476562 438.613281 L 359.378906 436.796875 L 358.367188 440.738281 L 365.613281 442.597656 L 365.054688 444.792969 Z M 355.3125 442.296875 "/>
<path fill-rule="nonzero" fill="rgb(100%, 100%, 100%)" fill-opacity="1" d="M 379.890625 447.140625 L 373.703125 435.734375 L 372.304688 446.113281 L 369.753906 445.769531 L 371.714844 431.226562 L 374.332031 431.578125 L 380.402344 442.679688 L 381.769531 432.582031 L 384.320312 432.925781 L 382.355469 447.472656 Z M 379.890625 447.140625 "/>
<path fill-rule="nonzero" fill="rgb(100%, 100%, 100%)" fill-opacity="1" d="M 388.511719 438.613281 L 387.519531 437.710938 C 388.242188 437.324219 389.011719 436.457031 389.199219 435.71875 C 389.132812 435.738281 388.953125 435.773438 388.824219 435.765625 C 388.074219 435.730469 387.53125 435.132812 387.570312 434.320312 C 387.609375 433.484375 388.324219 432.835938 389.136719 432.875 C 390.035156 432.917969 390.816406 433.679688 390.753906 434.957031 C 390.683594 436.472656 389.761719 437.816406 388.511719 438.613281 "/>
<path fill-rule="nonzero" fill="rgb(100%, 100%, 100%)" fill-opacity="1" d="M 393.535156 445.957031 L 394.90625 443.9375 C 395.949219 444.984375 397.558594 445.882812 399.605469 445.824219 C 401.714844 445.761719 402.519531 444.703125 402.492188 443.738281 C 402.402344 440.660156 393.90625 442.820312 393.746094 437.414062 C 393.675781 434.992188 395.753906 433.0625 398.964844 432.96875 C 401.253906 432.902344 403.121094 433.574219 404.523438 434.851562 L 403.105469 436.808594 C 401.929688 435.699219 400.351562 435.21875 398.8125 435.261719 C 397.296875 435.308594 396.347656 436.058594 396.382812 437.160156 C 396.460938 439.886719 404.941406 437.945312 405.101562 443.417969 C 405.171875 445.859375 403.519531 448 399.5625 448.113281 C 396.855469 448.191406 394.871094 447.304688 393.535156 445.957031 "/>
<path fill-rule="nonzero" fill="rgb(100%, 100%, 100%)" fill-opacity="1" d="M 424.917969 440.445312 C 424.710938 439.367188 423.777344 438.605469 422.332031 438.882812 L 418.183594 439.683594 L 418.953125 443.679688 L 423.101562 442.878906 C 424.484375 442.613281 425.160156 441.699219 424.917969 440.445312 M 423.464844 434.429688 C 423.257812 433.347656 422.371094 432.691406 421.074219 432.941406 L 417.03125 433.71875 L 417.753906 437.457031 L 421.792969 436.679688 C 423.089844 436.429688 423.675781 435.511719 423.464844 434.429688 M 416.855469 446.394531 L 414.074219 431.984375 L 421.164062 430.617188 C 423.796875 430.109375 425.585938 431.46875 425.976562 433.496094 C 426.324219 435.3125 425.390625 436.746094 424.105469 437.285156 C 425.6875 437.230469 427.234375 438.519531 427.578125 440.292969 C 428.007812 442.519531 426.835938 444.46875 424.136719 444.988281 Z M 416.855469 446.394531 "/>
<path fill-rule="nonzero" fill="rgb(100%, 100%, 100%)" fill-opacity="1" d="M 431.1875 437.496094 L 428.449219 429.039062 L 430.921875 428.238281 L 433.632812 436.613281 C 434.351562 438.832031 436.050781 439.875 438.394531 439.117188 C 440.722656 438.367188 441.488281 436.523438 440.769531 434.304688 L 438.058594 425.929688 L 440.53125 425.128906 L 443.261719 433.566406 C 444.386719 437.042969 443.140625 439.988281 439.101562 441.296875 C 435.039062 442.609375 432.300781 440.929688 431.1875 437.496094 "/>
<path fill-rule="nonzero" fill="rgb(100%, 100%, 100%)" fill-opacity="1" d="M 448.257812 435.601562 L 448.730469 433.207031 C 450.097656 433.761719 451.933594 433.960938 453.792969 433.105469 C 455.710938 432.226562 456.039062 430.9375 455.636719 430.058594 C 454.347656 427.257812 447.371094 432.570312 445.113281 427.652344 C 444.101562 425.457031 445.261719 422.863281 448.179688 421.523438 C 450.257812 420.566406 452.238281 420.457031 454.03125 421.085938 L 453.488281 423.441406 C 451.972656 422.878906 450.332031 423.050781 448.933594 423.695312 C 447.554688 424.328125 446.980469 425.390625 447.4375 426.390625 C 448.578125 428.871094 455.625 423.765625 457.914062 428.742188 C 458.933594 430.964844 458.246094 433.578125 454.648438 435.230469 C 452.1875 436.359375 450.015625 436.320312 448.257812 435.601562 "/>
<path fill-rule="nonzero" fill="rgb(100%, 100%, 100%)" fill-opacity="1" d="M 463.363281 430.558594 L 456.199219 417.757812 L 458.445312 416.5 L 465.609375 429.300781 Z M 463.363281 430.558594 "/>
<path fill-rule="nonzero" fill="rgb(100%, 100%, 100%)" fill-opacity="1" d="M 478.445312 421.085938 L 466.214844 416.753906 L 472.121094 425.402344 L 469.992188 426.855469 L 461.71875 414.734375 L 463.898438 413.246094 L 475.839844 417.429688 L 470.097656 409.015625 L 472.222656 407.5625 L 480.496094 419.683594 Z M 478.445312 421.085938 "/>
<path fill-rule="nonzero" fill="rgb(100%, 100%, 100%)" fill-opacity="1" d="M 484.628906 416.386719 L 475.019531 405.300781 L 482.613281 398.71875 L 484.097656 400.429688 L 478.449219 405.328125 L 480.9375 408.203125 L 486.472656 403.40625 L 487.957031 405.117188 L 482.421875 409.914062 L 485.085938 412.988281 L 490.738281 408.089844 L 492.222656 409.800781 Z M 484.628906 416.386719 "/>
<path fill-rule="nonzero" fill="rgb(100%, 100%, 100%)" fill-opacity="1" d="M 493.445312 405.804688 L 492.976562 403.40625 C 494.453125 403.40625 496.226562 402.894531 497.625 401.402344 C 499.066406 399.859375 498.882812 398.542969 498.175781 397.878906 C 495.925781 395.777344 491.476562 403.332031 487.523438 399.636719 C 485.757812 397.984375 485.851562 395.148438 488.046875 392.800781 C 489.609375 391.128906 491.398438 390.277344 493.296875 390.183594 L 493.6875 392.566406 C 492.070312 392.621094 490.617188 393.398438 489.566406 394.523438 C 488.527344 395.632812 488.398438 396.835938 489.199219 397.589844 C 491.191406 399.453125 495.789062 392.058594 499.789062 395.804688 C 501.570312 397.472656 501.925781 400.152344 499.21875 403.042969 C 497.371094 405.019531 495.34375 405.804688 493.445312 405.804688 "/>
<path fill-rule="nonzero" fill="rgb(100%, 100%, 100%)" fill-opacity="1" d="M 503.515625 394.800781 L 502.792969 392.46875 C 504.265625 392.308594 505.972656 391.613281 507.207031 389.980469 C 508.476562 388.292969 508.15625 387.003906 507.382812 386.421875 C 504.921875 384.566406 501.296875 392.550781 496.980469 389.292969 C 495.046875 387.835938 494.839844 385.007812 496.773438 382.441406 C 498.148438 380.617188 499.839844 379.578125 501.714844 379.285156 L 502.359375 381.613281 C 500.753906 381.835938 499.394531 382.765625 498.464844 383.996094 C 497.550781 385.207031 497.550781 386.417969 498.425781 387.078125 C 500.605469 388.722656 504.390625 380.886719 508.765625 384.183594 C 510.714844 385.65625 511.347656 388.285156 508.964844 391.445312 C 507.335938 393.605469 505.402344 394.597656 503.515625 394.800781 "/>
<path fill-rule="nonzero" fill="rgb(100%, 100%, 100%)" fill-opacity="1" d="M 518.394531 376.875 L 505.449219 369.960938 L 510.183594 361.09375 L 512.183594 362.160156 L 508.660156 368.757812 L 512.015625 370.550781 L 515.46875 364.089844 L 517.464844 365.15625 L 514.015625 371.617188 L 517.609375 373.535156 L 521.128906 366.933594 L 523.128906 368.003906 Z M 518.394531 376.875 "/>
<path fill-rule="nonzero" fill="rgb(100%, 100%, 100%)" fill-opacity="1" d="M 528.933594 354.148438 L 516.386719 357.449219 L 526.132812 361.277344 L 525.195312 363.671875 L 511.535156 358.308594 L 512.5 355.851562 L 524.722656 352.589844 L 515.242188 348.867188 L 516.183594 346.472656 L 529.839844 351.835938 Z M 528.933594 354.148438 "/>
<path fill-rule="nonzero" fill="rgb(100%, 100%, 100%)" fill-opacity="1" d="M 532.285156 343.390625 L 520.289062 340.230469 L 519.15625 344.527344 L 516.964844 343.953125 L 519.882812 332.867188 L 522.074219 333.445312 L 520.941406 337.742188 L 532.941406 340.898438 Z M 532.285156 343.390625 "/>
<path fill-rule="nonzero" fill="rgb(100%, 100%, 100%)" fill-opacity="1" d="M 534.886719 332.429688 L 520.382812 330.203125 L 521.910156 320.265625 L 524.148438 320.609375 L 523.011719 328 L 526.773438 328.578125 L 527.886719 321.339844 L 530.128906 321.683594 L 529.015625 328.925781 L 533.035156 329.542969 L 534.171875 322.148438 L 536.414062 322.492188 Z M 534.886719 332.429688 "/>
<path fill-rule="nonzero" fill="rgb(100%, 100%, 100%)" fill-opacity="1" d="M 527.210938 308.746094 C 525.804688 308.683594 524.832031 309.695312 524.765625 311.148438 L 524.609375 314.664062 L 529.265625 314.871094 L 529.425781 311.359375 C 529.492188 309.90625 528.617188 308.8125 527.210938 308.746094 M 537.261719 309.421875 L 531.644531 312.425781 L 531.53125 314.976562 L 537 315.222656 L 536.886719 317.792969 L 522.230469 317.132812 L 522.519531 310.695312 C 522.652344 307.792969 524.625 305.988281 527.328125 306.109375 C 529.945312 306.230469 531.273438 308.003906 531.476562 309.777344 L 537.398438 306.457031 Z M 537.261719 309.421875 "/>
<path fill-rule="nonzero" fill="rgb(100%, 100%, 100%)" fill-opacity="1" d="M 526.714844 294.015625 C 525.308594 294.105469 524.453125 295.214844 524.542969 296.664062 L 524.765625 300.179688 L 529.421875 299.882812 L 529.199219 296.371094 C 529.109375 294.921875 528.117188 293.925781 526.714844 294.015625 M 537.3125 301.964844 L 522.667969 302.890625 L 522.261719 296.457031 C 522.066406 293.382812 524.066406 291.535156 526.546875 291.378906 C 529.027344 291.222656 531.246094 292.824219 531.4375 295.875 L 531.683594 299.742188 L 537.152344 299.394531 Z M 537.3125 301.964844 "/>
<path fill-rule="nonzero" fill="rgb(100%, 100%, 100%)" fill-opacity="1" d="M 524.65625 279.800781 C 523.269531 280.042969 522.542969 281.242188 522.792969 282.675781 L 523.402344 286.140625 L 527.996094 285.335938 L 527.386719 281.867188 C 527.136719 280.4375 526.042969 279.558594 524.65625 279.800781 M 534.617188 278.277344 L 529.785156 282.429688 L 530.226562 284.945312 L 535.621094 284 L 536.066406 286.53125 L 521.613281 289.066406 L 520.5 282.71875 C 520 279.859375 521.535156 277.667969 524.199219 277.203125 C 526.78125 276.75 528.460938 278.195312 529.046875 279.878906 L 534.105469 275.351562 Z M 534.617188 278.277344 "/>
<path fill-rule="nonzero" fill="rgb(100%, 100%, 100%)" fill-opacity="1" d="M 533 271.164062 L 518.800781 274.867188 L 518.152344 272.378906 L 532.351562 268.671875 Z M 533 271.164062 "/>
<path fill-rule="nonzero" fill="rgb(100%, 100%, 100%)" fill-opacity="1" d="M 529.410156 265.476562 L 527.070312 264.777344 C 527.753906 263.46875 528.128906 261.660156 527.453125 259.726562 C 526.761719 257.734375 525.507812 257.285156 524.59375 257.601562 C 521.683594 258.613281 526.304688 266.070312 521.195312 267.847656 C 518.90625 268.644531 516.441406 267.242188 515.382812 264.207031 C 514.632812 262.046875 514.710938 260.0625 515.507812 258.339844 L 517.800781 259.101562 C 517.097656 260.558594 517.109375 262.210938 517.617188 263.664062 C 518.117188 265.097656 519.121094 265.773438 520.160156 265.414062 C 522.738281 264.515625 518.332031 257.007812 523.503906 255.207031 C 525.8125 254.40625 528.351562 255.339844 529.652344 259.078125 C 530.542969 261.636719 530.292969 263.796875 529.410156 265.476562 "/>
<path fill-rule="nonzero" fill="rgb(100%, 100%, 100%)" fill-opacity="1" d="M 525.800781 249.695312 L 512.53125 255.953125 L 508.242188 246.859375 L 510.292969 245.894531 L 513.484375 252.660156 L 516.925781 251.035156 L 513.800781 244.410156 L 515.851562 243.445312 L 518.976562 250.070312 L 522.65625 248.335938 L 519.464844 241.570312 L 521.515625 240.601562 Z M 525.800781 249.695312 "/>
<path fill-rule="nonzero" fill="rgb(97.740173%, 68.045044%, 4.518127%)" fill-opacity="1" d="M 319.585938 206.15625 L 307.042969 202.828125 L 313.632812 210.972656 L 311.628906 212.589844 L 302.398438 201.179688 L 304.453125 199.519531 L 316.691406 202.722656 L 310.285156 194.800781 L 312.285156 193.183594 L 321.515625 204.589844 Z M 319.585938 206.15625 "/>
<path fill-rule="nonzero" fill="rgb(97.740173%, 68.045044%, 4.518127%)" fill-opacity="1" d="M 324.386719 202.636719 L 316.539062 190.238281 L 325.03125 184.863281 L 326.246094 186.777344 L 319.925781 190.777344 L 321.960938 193.992188 L 328.152344 190.074219 L 329.363281 191.988281 L 323.175781 195.90625 L 325.351562 199.34375 L 331.667969 195.34375 L 332.882812 197.257812 Z M 324.386719 202.636719 "/>
<path fill-rule="nonzero" fill="rgb(97.740173%, 68.045044%, 4.518127%)" fill-opacity="1" d="M 345.582031 190.972656 L 338.457031 182.332031 L 340.402344 193.355469 L 337.902344 194.503906 L 327.949219 182.929688 L 330.566406 181.722656 L 337.894531 190.800781 L 335.925781 179.257812 L 337.785156 178.402344 L 345.269531 187.40625 L 343.121094 175.945312 L 345.738281 174.738281 L 348.078125 189.820312 Z M 345.582031 190.972656 "/>
<path fill-rule="nonzero" fill="rgb(97.740173%, 68.045044%, 4.518127%)" fill-opacity="1" d="M 363.824219 184.726562 L 362.355469 178.816406 L 354.761719 171.859375 L 357.625 171.152344 L 363.066406 176.28125 L 365.4375 169.210938 L 368.296875 168.503906 L 364.855469 178.195312 L 366.320312 184.109375 Z M 363.824219 184.726562 "/>
<path fill-rule="nonzero" fill="rgb(97.740173%, 68.045044%, 4.518127%)" fill-opacity="1" d="M 383.640625 173.84375 C 383.269531 170.828125 381.089844 168.816406 378.164062 169.179688 C 375.21875 169.542969 373.617188 172.023438 373.992188 175.035156 C 374.359375 178.027344 376.519531 180.066406 379.46875 179.703125 C 382.394531 179.339844 384.011719 176.835938 383.640625 173.84375 M 371.371094 175.359375 C 370.832031 171.015625 373.519531 167.445312 377.882812 166.90625 C 382.25 166.367188 385.722656 169.171875 386.261719 173.519531 C 386.800781 177.863281 384.117188 181.433594 379.746094 181.972656 C 375.378906 182.511719 371.90625 179.707031 371.371094 175.359375 "/>
<path fill-rule="nonzero" fill="rgb(97.740173%, 68.045044%, 4.518127%)" fill-opacity="1" d="M 398.695312 170.722656 C 398.714844 169.316406 397.675781 168.375 396.222656 168.351562 L 392.703125 168.296875 L 392.628906 172.960938 L 396.148438 173.015625 C 397.601562 173.039062 398.671875 172.132812 398.695312 170.722656 M 398.3125 180.796875 L 395.144531 175.265625 L 392.589844 175.226562 L 392.503906 180.707031 L 389.929688 180.664062 L 390.164062 165.988281 L 396.609375 166.089844 C 399.515625 166.136719 401.378906 168.058594 401.335938 170.765625 C 401.292969 173.386719 399.554688 174.765625 397.789062 175.023438 L 401.285156 180.847656 Z M 398.3125 180.796875 "/>
<path fill-rule="nonzero" fill="rgb(97.740173%, 68.045044%, 4.518127%)" fill-opacity="1" d="M 412.890625 181.933594 L 408.679688 175.238281 L 407.246094 176.582031 L 406.722656 181.238281 L 404.164062 180.953125 L 405.800781 166.367188 L 408.363281 166.65625 L 407.578125 173.609375 L 414.070312 167.296875 L 417.238281 167.652344 L 410.539062 173.875 L 416.039062 182.285156 Z M 412.890625 181.933594 "/>
<path fill-rule="nonzero" fill="rgb(97.740173%, 68.045044%, 4.518127%)" fill-opacity="1" d="M 423.835938 181.761719 L 425.746094 180.238281 C 426.429688 181.546875 427.703125 182.882812 429.675781 183.433594 C 431.707031 184 432.792969 183.226562 433.050781 182.296875 C 433.878906 179.328125 425.121094 178.875 426.570312 173.660156 C 427.222656 171.328125 429.78125 170.101562 432.875 170.964844 C 435.078125 171.578125 436.664062 172.773438 437.625 174.410156 L 435.691406 175.859375 C 434.894531 174.449219 433.53125 173.519531 432.046875 173.109375 C 430.585938 172.699219 429.457031 173.140625 429.164062 174.199219 C 428.429688 176.828125 437.109375 177.488281 435.636719 182.765625 C 434.984375 185.117188 432.769531 186.671875 428.953125 185.605469 C 426.347656 184.882812 424.714844 183.445312 423.835938 181.761719 "/>
<path fill-rule="nonzero" fill="rgb(97.740173%, 68.045044%, 4.518127%)" fill-opacity="1" d="M 440.148438 189.03125 L 444.714844 177.496094 L 440.585938 175.859375 L 441.421875 173.753906 L 452.074219 177.976562 L 451.238281 180.082031 L 447.109375 178.445312 L 442.539062 189.976562 Z M 440.148438 189.03125 "/>
<path fill-rule="nonzero" fill="rgb(97.740173%, 68.045044%, 4.518127%)" fill-opacity="1" d="M 458.488281 184.070312 L 452.917969 189.058594 L 457.601562 191.496094 Z M 456.859375 196.835938 L 457.199219 193.839844 L 451.230469 190.734375 L 448.972656 192.738281 L 446.378906 191.386719 L 458.261719 181.027344 L 461.109375 182.511719 L 459.453125 198.183594 Z M 456.859375 196.835938 "/>
<path fill-rule="nonzero" fill="rgb(97.740173%, 68.045044%, 4.518127%)" fill-opacity="1" d="M 462.824219 200.519531 L 469.640625 190.152344 L 465.925781 187.710938 L 467.171875 185.816406 L 476.75 192.113281 L 475.503906 194.003906 L 471.789062 191.566406 L 464.976562 201.933594 Z M 462.824219 200.519531 "/>
<path fill-rule="nonzero" fill="rgb(97.740173%, 68.045044%, 4.518127%)" fill-opacity="1" d="M 470.746094 205.945312 L 480.039062 194.585938 L 487.820312 200.953125 L 486.386719 202.707031 L 480.597656 197.96875 L 478.1875 200.917969 L 483.859375 205.554688 L 482.421875 207.308594 L 476.753906 202.671875 L 474.175781 205.820312 L 479.964844 210.558594 L 478.53125 212.3125 Z M 470.746094 205.945312 "/>
<path fill-rule="nonzero" fill="rgb(97.740173%, 68.045044%, 4.518127%)" fill-opacity="1" d="M 424.953125 375.785156 L 420.273438 371.109375 C 419.605469 370.441406 418.527344 370.441406 417.859375 371.109375 L 396.421875 392.546875 C 395.753906 393.210938 394.675781 393.210938 394.007812 392.546875 L 384.898438 383.433594 C 384.230469 382.769531 383.152344 382.769531 382.484375 383.433594 L 377.804688 388.113281 C 377.140625 388.78125 377.140625 389.859375 377.804688 390.527344 L 394.007812 406.730469 C 394.675781 407.398438 395.753906 407.398438 396.421875 406.730469 L 424.953125 378.199219 C 425.617188 377.535156 425.617188 376.453125 424.953125 375.785156 "/>
<path fill-rule="nonzero" fill="rgb(9.915161%, 20.106506%, 43.280029%)" fill-opacity="1" d="M 327.847656 353.6875 C 327.621094 354.21875 327.324219 354.664062 326.949219 355.039062 C 326.578125 355.410156 326.171875 355.714844 325.734375 355.953125 C 325.292969 356.1875 324.832031 356.359375 324.347656 356.46875 C 323.859375 356.578125 323.394531 356.632812 322.949219 356.632812 C 322.09375 356.632812 321.304688 356.453125 320.582031 356.085938 C 319.867188 355.722656 319.25 355.242188 318.738281 354.644531 C 318.222656 354.042969 317.828125 353.347656 317.546875 352.558594 C 317.265625 351.765625 317.125 350.945312 317.125 350.09375 C 317.125 349.328125 317.246094 348.5625 317.492188 347.785156 C 317.734375 347.015625 318.09375 346.324219 318.570312 345.71875 C 319.042969 345.109375 319.640625 344.613281 320.359375 344.230469 C 321.078125 343.847656 321.921875 343.65625 322.894531 343.65625 C 323.339844 343.65625 323.792969 343.707031 324.261719 343.808594 C 324.726562 343.910156 325.179688 344.066406 325.609375 344.285156 C 326.035156 344.503906 326.4375 344.796875 326.8125 345.167969 C 327.183594 345.542969 327.5 346.003906 327.765625 346.546875 L 330.730469 344.558594 C 330.078125 343.304688 329.082031 342.285156 327.75 341.503906 C 326.414062 340.726562 324.832031 340.332031 323.003906 340.332031 C 321.457031 340.332031 320.074219 340.613281 318.859375 341.179688 C 317.648438 341.742188 316.625 342.476562 315.785156 343.386719 C 314.941406 344.292969 314.304688 345.328125 313.867188 346.480469 C 313.429688 347.632812 313.210938 348.800781 313.210938 349.980469 C 313.210938 351.21875 313.449219 352.429688 313.917969 353.621094 C 314.394531 354.8125 315.0625 355.875 315.910156 356.808594 C 316.761719 357.746094 317.769531 358.503906 318.949219 359.085938 C 320.121094 359.667969 321.417969 359.960938 322.835938 359.960938 C 323.636719 359.960938 324.460938 359.859375 325.300781 359.660156 C 326.136719 359.457031 326.925781 359.167969 327.664062 358.785156 C 328.398438 358.402344 329.0625 357.9375 329.648438 357.382812 C 330.242188 356.828125 330.691406 356.1875 331.011719 355.460938 Z M 327.847656 353.6875 "/>
<path fill-rule="nonzero" fill="rgb(9.915161%, 20.106506%, 43.280029%)" fill-opacity="1" d="M 340.832031 356.496094 L 340.832031 351.453125 L 349.203125 351.453125 L 349.203125 348.402344 L 340.832031 348.402344 L 340.832031 343.738281 L 350.515625 343.738281 L 350.515625 340.441406 L 336.972656 340.441406 L 336.972656 359.792969 L 350.769531 359.792969 L 350.769531 356.496094 Z M 340.832031 356.496094 "/>
<path fill-rule="nonzero" fill="rgb(9.915161%, 20.106506%, 43.280029%)" fill-opacity="1" d="M 368.171875 348.101562 C 368.046875 348.480469 367.871094 348.8125 367.644531 349.097656 C 367.421875 349.378906 367.152344 349.601562 366.84375 349.761719 C 366.539062 349.929688 366.203125 350.011719 365.851562 350.011719 L 361.011719 350.011719 L 361.011719 343.738281 L 365.683594 343.738281 C 366.023438 343.738281 366.355469 343.816406 366.675781 343.96875 C 367.003906 344.128906 367.292969 344.34375 367.542969 344.625 C 367.796875 344.90625 368 345.238281 368.148438 345.621094 C 368.296875 346.003906 368.375 346.421875 368.375 346.875 C 368.375 347.3125 368.308594 347.71875 368.171875 348.101562 M 368.679688 352.519531 C 369.78125 352.0625 370.652344 351.324219 371.292969 350.296875 C 371.9375 349.269531 372.261719 348.128906 372.261719 346.875 C 372.261719 346.09375 372.105469 345.316406 371.785156 344.542969 C 371.46875 343.773438 371.03125 343.082031 370.472656 342.472656 C 369.910156 341.863281 369.246094 341.371094 368.46875 341 C 367.695312 340.628906 366.851562 340.441406 365.9375 340.441406 L 357.148438 340.441406 L 357.148438 359.792969 L 361.011719 359.792969 L 361.011719 353.308594 L 364.816406 353.308594 L 368.875 359.792969 L 373.214844 359.792969 Z M 368.679688 352.519531 "/>
<path fill-rule="nonzero" fill="rgb(9.915161%, 20.106506%, 43.280029%)" fill-opacity="1" d="M 377.132812 340.441406 L 377.132812 343.738281 L 383.484375 343.738281 L 383.484375 359.792969 L 387.320312 359.792969 L 387.320312 343.738281 L 393.671875 343.738281 L 393.671875 340.441406 Z M 377.132812 340.441406 "/>
<path fill-rule="nonzero" fill="rgb(9.915161%, 20.106506%, 43.280029%)" fill-opacity="1" d="M 399.492188 359.792969 L 403.355469 359.792969 L 403.355469 340.441406 L 399.492188 340.441406 Z M 399.492188 359.792969 "/>
<path fill-rule="nonzero" fill="rgb(9.915161%, 20.106506%, 43.280029%)" fill-opacity="1" d="M 424.203125 343.738281 L 424.203125 340.441406 L 410.859375 340.441406 L 410.859375 359.792969 L 414.71875 359.792969 L 414.71875 351.78125 L 422.609375 351.78125 L 422.609375 348.730469 L 414.71875 348.730469 L 414.71875 343.738281 Z M 424.203125 343.738281 "/>
<path fill-rule="nonzero" fill="rgb(9.915161%, 20.106506%, 43.280029%)" fill-opacity="1" d="M 430.28125 359.792969 L 434.136719 359.792969 L 434.136719 340.441406 L 430.28125 340.441406 Z M 430.28125 359.792969 "/>
<path fill-rule="nonzero" fill="rgb(9.915161%, 20.106506%, 43.280029%)" fill-opacity="1" d="M 445.503906 356.496094 L 445.503906 351.453125 L 453.867188 351.453125 L 453.867188 348.402344 L 445.503906 348.402344 L 445.503906 343.738281 L 455.191406 343.738281 L 455.191406 340.441406 L 441.644531 340.441406 L 441.644531 359.792969 L 455.4375 359.792969 L 455.4375 356.496094 Z M 445.503906 356.496094 "/>
<path fill-rule="nonzero" fill="rgb(9.915161%, 20.106506%, 43.280029%)" fill-opacity="1" d="M 474.554688 352.628906 C 474.289062 353.40625 473.914062 354.082031 473.421875 354.65625 C 472.929688 355.230469 472.3125 355.679688 471.578125 356.003906 C 470.835938 356.335938 469.992188 356.496094 469.042969 356.496094 L 465.679688 356.496094 L 465.679688 343.738281 L 469.042969 343.738281 C 469.976562 343.738281 470.808594 343.894531 471.546875 344.203125 C 472.285156 344.511719 472.902344 344.949219 473.40625 345.511719 C 473.910156 346.074219 474.289062 346.75 474.554688 347.53125 C 474.816406 348.308594 474.949219 349.164062 474.949219 350.089844 C 474.949219 351 474.816406 351.84375 474.554688 352.628906 M 478.21875 346.34375 C 477.808594 345.171875 477.191406 344.148438 476.375 343.277344 C 475.546875 342.40625 474.527344 341.714844 473.308594 341.207031 C 472.082031 340.695312 470.664062 340.441406 469.042969 340.441406 L 461.820312 340.441406 L 461.820312 359.792969 L 469.042969 359.792969 C 470.53125 359.792969 471.878906 359.5625 473.085938 359.097656 C 474.289062 358.636719 475.316406 357.980469 476.175781 357.136719 C 477.03125 356.292969 477.695312 355.277344 478.152344 354.082031 C 478.605469 352.894531 478.832031 351.5625 478.832031 350.089844 C 478.832031 348.765625 478.632812 347.515625 478.21875 346.34375 "/>
<path fill-rule="nonzero" fill="rgb(5.592346%, 52.766418%, 82.420349%)" fill-opacity="1" d="M 335.085938 299.554688 L 324.945312 326.554688 L 320.386719 326.554688 L 310.304688 299.554688 L 310.304688 326.554688 L 299.984375 326.554688 L 299.984375 286.535156 L 314.324219 286.535156 L 322.664062 309.214844 L 331.0625 286.535156 L 345.402344 286.535156 L 345.402344 326.554688 L 335.085938 326.554688 Z M 335.085938 299.554688 "/>
<path fill-rule="nonzero" fill="rgb(5.592346%, 52.766418%, 82.420349%)" fill-opacity="1" d="M 380.085938 301.476562 L 374.023438 326.554688 L 363.105469 326.554688 L 351.644531 286.535156 L 363.226562 286.535156 L 369.285156 313.234375 L 376.125 286.535156 L 384.042969 286.535156 L 390.882812 313.234375 L 396.882812 286.535156 L 408.464844 286.535156 L 397.0625 326.554688 L 386.144531 326.554688 Z M 380.085938 301.476562 "/>
<path fill-rule="nonzero" fill="rgb(5.592346%, 52.766418%, 82.420349%)" fill-opacity="1" d="M 435.464844 317.976562 C 437.925781 317.976562 439.425781 316.476562 439.425781 314.316406 C 439.425781 312.273438 437.984375 310.535156 435.464844 310.535156 L 425.085938 310.535156 L 425.085938 317.976562 Z M 435.105469 302.015625 C 437.203125 302.015625 438.644531 300.515625 438.644531 298.535156 C 438.644531 296.554688 437.203125 295.117188 435.105469 295.117188 L 425.085938 295.117188 L 425.085938 302.015625 Z M 414.765625 286.535156 L 437.445312 286.535156 C 445.363281 286.535156 449.144531 291.695312 449.144531 296.734375 C 449.144531 301.714844 446.082031 305.074219 442.304688 305.914062 C 446.5625 306.574219 449.921875 310.65625 449.921875 315.695312 C 449.921875 321.515625 446.023438 326.554688 438.164062 326.554688 L 414.765625 326.554688 Z M 414.765625 286.535156 "/>
<path fill-rule="nonzero" fill="rgb(5.592346%, 52.766418%, 82.420349%)" fill-opacity="1" d="M 458.566406 286.535156 L 487.902344 286.535156 L 487.902344 295.234375 L 468.882812 295.234375 L 468.882812 301.894531 L 487.484375 301.894531 L 487.484375 310.65625 L 468.882812 310.65625 L 468.882812 317.855469 L 487.902344 317.855469 L 487.902344 326.554688 L 458.566406 326.554688 Z M 458.566406 286.535156 "/>
</svg>
